<?xml version="1.0" encoding="UTF-8" standalone="no"?>
<svg
   xmlns:dc="http://purl.org/dc/elements/1.1/"
   xmlns:cc="http://creativecommons.org/ns#"
   xmlns:rdf="http://www.w3.org/1999/02/22-rdf-syntax-ns#"
   xmlns:svg="http://www.w3.org/2000/svg"
   xmlns="http://www.w3.org/2000/svg"
   xmlns:sodipodi="http://sodipodi.sourceforge.net/DTD/sodipodi-0.dtd"
   xmlns:inkscape="http://www.inkscape.org/namespaces/inkscape"
   id="svg4"
   version="1.1"
   height="500"
   width="500"
   sodipodi:docname="thyme-fw-green-bg-white.svg"
   inkscape:version="0.92.4 (5da689c313, 2019-01-14)">
  <sodipodi:namedview
     pagecolor="#ffffff"
     bordercolor="#666666"
     borderopacity="1"
     objecttolerance="10"
     gridtolerance="10"
     guidetolerance="10"
     inkscape:pageopacity="0"
     inkscape:pageshadow="2"
     inkscape:window-width="751"
     inkscape:window-height="480"
     id="namedview6"
     showgrid="false"
     inkscape:zoom="0.472"
     inkscape:cx="-65.677966"
     inkscape:cy="250"
     inkscape:window-x="0"
     inkscape:window-y="0"
     inkscape:window-maximized="0"
     inkscape:current-layer="svg4" />
  <metadata
     id="metadata10">
    <rdf:RDF>
      <cc:Work
         rdf:about="">
        <dc:format>image/svg+xml</dc:format>
        <dc:type
           rdf:resource="http://purl.org/dc/dcmitype/StillImage" />
        <dc:title></dc:title>
      </cc:Work>
    </rdf:RDF>
  </metadata>
  <defs
     id="defs8" />
  <path
     id="path2"
     d="m 386.4453,37.76959 c -18.38011,0.25252 -37.41216,5.33522 -54.46679,14.20899 -48.46302,25.216 -98.13362,73.24851 -148.42774,153.40039 -50.4037,80.32652 -79.56654,174.32512 -150.271486,237.55469 -7.58555,6.78356 -2.965369,19.30643 7.210938,19.30664 130.096248,0.003 238.355558,-52.14869 314.949218,-116.81641 57.18074,-48.27747 102.30021,-123.27646 111.66211,-176.35937 9.3619,-53.08292 -1.30172,-91.39761 -24.5,-112.0293 C 427.2701,43.39999 407.27609,37.4834 386.4453,37.76959 Z m 8.43164,9.54688 c 14.95533,0.27346 29.18894,4.83555 41.19532,15.82226 18.14687,16.60571 30.52407,53.5359 20.07422,101.66993 C 445.69662,212.94269 412.56831,272.24362 341.24804,332.45905 278.7501,385.22582 193.9877,426.66492 92.554675,437.43756 166.53917,397.57501 218.08317,335.02855 261.15429,271.85944 312.63356,196.35872 360.78825,124.02102 404.26757,88.6778 415.09589,79.87573 412.11448,76.24922 400.3164,84.54889 347.69945,121.56369 305.13119,194.0162 250.59374,265.42975 203.4623,327.14558 150.77041,387.12446 77.181628,425.3985 125.09047,357.95678 161.06026,280.8672 198.85741,213.89655 243.85034,134.17612 293.3167,84.94934 336.81444,62.99616 c 18.41305,-9.29302 38.83423,-16.03128 58.0625,-15.67969 z"
     style="fill:#62a433;fill-opacity:1;fill-rule:evenodd;stroke:none" />
</svg>
