<?xml version="1.0" encoding="UTF-8" standalone="no"?>
<svg
   xmlns:dc="http://purl.org/dc/elements/1.1/"
   xmlns:cc="http://creativecommons.org/ns#"
   xmlns:rdf="http://www.w3.org/1999/02/22-rdf-syntax-ns#"
   xmlns:svg="http://www.w3.org/2000/svg"
   xmlns="http://www.w3.org/2000/svg"
   xmlns:sodipodi="http://sodipodi.sourceforge.net/DTD/sodipodi-0.dtd"
   xmlns:inkscape="http://www.inkscape.org/namespaces/inkscape"
   id="svg4"
   version="1.1"
   height="500"
   width="500"
   sodipodi:docname="top-page.svg"
   inkscape:version="0.92.4 (5da689c313, 2019-01-14)">
  <sodipodi:namedview
     pagecolor="#ffffff"
     bordercolor="#666666"
     borderopacity="1"
     objecttolerance="10"
     gridtolerance="10"
     guidetolerance="10"
     inkscape:pageopacity="0"
     inkscape:pageshadow="2"
     inkscape:window-width="1600"
     inkscape:window-height="847"
     id="namedview6"
     showgrid="false"
     inkscape:zoom="0.472"
     inkscape:cx="-392.03942"
     inkscape:cy="170.52096"
     inkscape:window-x="-8"
     inkscape:window-y="-8"
     inkscape:window-maximized="1"
     inkscape:current-layer="svg4"
     inkscape:snap-page="true"
     inkscape:snap-global="false" />
  <metadata
     id="metadata10">
    <rdf:RDF>
      <cc:Work
         rdf:about="">
        <dc:format>image/svg+xml</dc:format>
        <dc:type
           rdf:resource="http://purl.org/dc/dcmitype/StillImage" />
        <dc:title />
      </cc:Work>
    </rdf:RDF>
  </metadata>
  <defs
     id="defs8" />
  <path
     style="opacity:1;vector-effect:none;fill:#394435;fill-opacity:0.50196081;fill-rule:nonzero;stroke:none;stroke-width:1;stroke-linecap:butt;stroke-linejoin:miter;stroke-miterlimit:4;stroke-dasharray:none;stroke-dashoffset:0;stroke-opacity:1;paint-order:markers fill stroke"
     d="M 250 0 A 250 250 0 0 0 0 250 A 250 250 0 0 0 250 500 A 250 250 0 0 0 500 250 A 250 250 0 0 0 250 0 z M 250 36.648438 L 399.43945 188.55859 L 100.56055 188.55859 L 250 36.648438 z M 252.7832 222.65234 C 265.04883 222.65234 274.85351 226.77344 282.19727 235.01562 C 289.54101 243.21875 293.21289 254.23437 293.21289 268.0625 C 293.21289 281.85156 289.54101 292.86719 282.19727 301.10938 C 274.85351 309.31249 265.04883 313.41406 252.7832 313.41406 C 240.47852 313.41406 230.63477 309.3125 223.25195 301.10938 C 215.90821 292.90625 212.23633 281.89062 212.23633 268.0625 C 212.23633 254.23437 215.90821 243.21875 223.25195 235.01562 C 230.63477 226.77344 240.47852 222.65234 252.7832 222.65234 z M 131.78711 224.23438 L 205.79102 224.23438 L 205.79102 234.19531 L 174.73633 234.19531 L 174.73633 311.71484 L 162.8418 311.71484 L 162.8418 234.19531 L 131.78711 234.19531 L 131.78711 224.23438 z M 311.72852 224.23438 L 338.44727 224.23438 C 348.25195 224.23437 355.6543 226.46094 360.6543 230.91406 C 365.69336 235.32812 368.21289 241.8125 368.21289 250.36719 C 368.21289 259 365.69336 265.52343 360.6543 269.9375 C 355.6543 274.35156 348.25195 276.55859 338.44727 276.55859 L 323.56445 276.55859 L 323.56445 311.71484 L 311.72852 311.71484 L 311.72852 224.23438 z M 252.7832 232.26172 C 244.18946 232.26172 237.35352 235.46484 232.27539 241.87109 C 227.23633 248.27734 224.7168 257.00781 224.7168 268.0625 C 224.7168 279.07812 227.23633 287.78906 232.27539 294.19531 C 237.35352 300.60156 244.18946 303.80469 252.7832 303.80469 C 261.37696 303.80469 268.17383 300.60156 273.17383 294.19531 C 278.21289 287.78906 280.73242 279.07812 280.73242 268.0625 C 280.73242 257.00781 278.21289 248.27734 273.17383 241.87109 C 268.17383 235.46484 261.37696 232.26172 252.7832 232.26172 z M 323.56445 233.96094 L 323.56445 266.83203 L 338.44727 266.83203 C 343.95507 266.83203 348.21289 265.40625 351.2207 262.55469 C 354.22852 259.70313 355.73242 255.64063 355.73242 250.36719 C 355.73242 245.13281 354.22852 241.08984 351.2207 238.23828 C 348.21289 235.38671 343.95507 233.96094 338.44727 233.96094 L 323.56445 233.96094 z M 286.21094 337.06055 C 291.91406 337.06055 297.32421 337.76368 302.44141 339.16992 C 307.59765 340.57618 312.34375 342.64649 316.67969 345.38086 L 316.67969 357.97852 C 312.30469 354.26758 307.65625 351.47461 302.73438 349.59961 C 297.81249 347.72461 292.63672 346.78711 287.20703 346.78711 C 276.5039 346.78711 268.45703 349.77539 263.06641 355.75195 C 257.71484 361.72851 255.03906 370.63476 255.03906 382.4707 C 255.03906 394.26758 257.71484 403.1543 263.06641 409.13086 C 268.45703 415.10743 276.5039 418.0957 287.20703 418.0957 C 291.38672 418.0957 295.11718 417.74414 298.39844 417.04102 C 301.67968 416.29883 304.62891 415.16602 307.24609 413.64258 L 307.24609 390.14648 L 287.91016 390.14648 L 287.91016 380.41992 L 318.96484 380.41992 L 318.96484 417.97852 C 314.39453 421.2207 309.35546 423.68164 303.84766 425.36133 C 298.33984 427.00195 292.46094 427.82227 286.21094 427.82227 C 272.53906 427.82227 261.83594 423.83789 254.10156 415.86914 C 246.40625 407.86133 242.55859 396.72851 242.55859 382.4707 C 242.55859 368.17382 246.40625 357.04101 254.10156 349.07227 C 261.83594 341.06445 272.53906 337.06055 286.21094 337.06055 z M 102.98828 338.64258 L 129.70703 338.64258 C 139.51172 338.64258 146.91406 340.86914 151.91406 345.32227 C 156.95313 349.73633 159.47266 356.2207 159.47266 364.77539 C 159.47266 373.4082 156.95313 379.93164 151.91406 384.3457 C 146.91406 388.75976 139.51172 390.9668 129.70703 390.9668 L 114.82422 390.9668 L 114.82422 426.12305 L 102.98828 426.12305 L 102.98828 338.64258 z M 190.23438 338.64258 L 203.65234 338.64258 L 236.99219 426.12305 L 224.6875 426.12305 L 216.71875 403.68164 L 177.28516 403.68164 L 169.31641 426.12305 L 156.83594 426.12305 L 190.23438 338.64258 z M 340.64453 338.64258 L 395.95703 338.64258 L 395.95703 348.60352 L 352.48047 348.60352 L 352.48047 374.50195 L 394.14062 374.50195 L 394.14062 384.46289 L 352.48047 384.46289 L 352.48047 416.16211 L 397.01172 416.16211 L 397.01172 426.12305 L 340.64453 426.12305 L 340.64453 338.64258 z M 114.82422 348.36914 L 114.82422 381.24023 L 129.70703 381.24023 C 135.21484 381.24023 139.47266 379.81446 142.48047 376.96289 C 145.48828 374.11133 146.99219 370.04883 146.99219 364.77539 C 146.99219 359.54102 145.48828 355.49804 142.48047 352.64648 C 139.47266 349.79492 135.21484 348.36914 129.70703 348.36914 L 114.82422 348.36914 z M 196.91406 350.30273 L 180.85938 393.83789 L 213.02734 393.83789 L 196.91406 350.30273 z "
     id="path821" />
</svg>
