<?xml version="1.0" encoding="UTF-8" standalone="no"?><svg xmlns:svg="http://www.w3.org/2000/svg" xmlns="http://www.w3.org/2000/svg"
height="500" width="1800"><path
d="m 306.15022,30.830422 c -14.44739,0.198496 -29.40724,4.19367 -42.81276,11.168751 -38.09359,19.82064 -77.13638,57.575838 -116.66927,120.577957 -39.61902,63.13939 -62.54202,137.02549 -118.11852,186.7261 -5.962501,5.33211 -2.330882,15.17551 5.668044,15.17567 102.260086,0.002 187.355606,-40.99065 247.560836,-91.82168 44.94602,-37.94775 80.41147,-96.89951 87.77024,-138.62449 7.35877,-41.72499 -1.0232,-71.841649 -19.25784,-88.05886 C 338.23991,35.256117 322.52393,30.605467 306.15022,30.830422 Z m 6.62755,7.504175 c 11.75541,0.214958 22.94351,3.800906 32.38093,12.436841 14.26406,13.052653 23.99297,42.081041 15.77903,79.916042 -8.21394,37.83499 -34.25393,84.44754 -90.31411,131.77893 -49.12551,41.47648 -115.75165,74.04903 -195.481464,82.5167 C 133.29649,313.64978 173.81184,264.48612 207.6672,214.83305 248.13167,155.4869 285.98291,98.627002 320.15913,70.846025 c 8.51143,-6.91873 6.16794,-9.769294 -3.10575,-3.245472 C 275.69466,96.695454 242.23456,153.6456 199.36626,209.77909 162.31933,258.28984 120.9017,305.43529 63.058412,335.51999 100.7164,282.5085 128.98988,221.91346 158.69973,169.27224 194.06571,106.60925 232.94795,67.915328 267.13866,50.659375 281.61195,43.354739 297.6637,38.058242 312.77777,38.334597 Z"
style="fill:#ffffff;"
/><path
d="m 418.29332,325.54507 q -18.9312,0 -27.69042,-12.14988 -8.47665,-12.14987 -7.06388,-32.77641 1.13022,-12.71498 4.80344,-32.49386 3.10811,-16.95332 9.32432,-42.66585 6.49878,-25.71253 17.51843,-62.16217 3.39066,-2.26044 6.78134,-3.39066 3.67321,-1.41278 6.49876,-1.97789 3.10811,-0.84766 6.49877,-1.13022 2.543,-0.28255 5.36855,-0.28255 2.26044,0 4.52088,0.56511 2.26046,0.28255 3.67323,1.41277 -14.41032,37.01475 -22.60442,63.29239 -7.91156,26.27765 -11.86733,43.23097 -4.80344,19.77886 -5.93366,32.49385 -0.84766,15.54055 4.52088,22.03931 5.65111,6.49877 16.67077,6.49877 8.75921,0 17.80099,-6.49877 9.04176,-6.78132 17.51842,-18.9312 8.47666,-12.43244 15.54054,-29.66831 7.34644,-17.51843 12.43243,-39.27518 2.26044,-12.14988 5.086,-24.29976 2.26044,-10.45454 5.086,-22.32187 2.82555,-12.14987 5.36854,-22.60442 2.543,-2.26044 5.36855,-3.39066 3.10811,-1.41278 5.65112,-2.26045 3.1081,-1.13022 6.21621,-1.41277 2.82555,-0.28256 5.6511,0 2.26044,0.28255 4.52089,0.84766 2.54299,0.56511 3.95577,1.97789 -4.80344,14.97543 -8.47666,27.12531 -3.39066,12.14988 -5.93366,20.90909 -3.1081,10.172 -5.36854,18.08354 -2.26044,8.47666 -5.36856,22.03931 -3.10811,11.86732 -7.62899,29.95086 -4.52088,18.08354 -11.01965,44.64374 -1.69533,6.78133 -4.23834,16.95332 -2.543,10.17199 -6.78133,21.19164 -3.95577,11.01966 -10.17198,21.75676 -5.93367,11.01966 -14.97544,19.77887 -8.75921,8.75922 -20.90909,14.12777 -12.14987,5.36855 -28.25553,5.36855 -9.32432,-0.28256 -16.67076,-2.82555 -6.49877,-2.26045 -12.14987,-6.78133 -5.36855,-4.23834 -6.21622,-12.43244 1.41278,-3.1081 3.10811,-5.6511 1.69533,-2.543 3.39066,-4.80344 1.97789,-2.54299 3.95577,-4.80345 1.97789,-1.97788 4.23833,-3.67321 1.97789,-1.41278 4.23833,-2.543 2.26044,-1.13022 4.52089,-1.13022 1.13022,2.543 3.39066,5.93366 2.26044,3.39066 5.65111,6.21622 3.39066,3.10811 7.62899,5.086 4.23832,1.97788 9.32433,1.97788 6.78132,0 14.41031,-4.52088 7.62899,-4.23833 14.97544,-14.97544 7.62899,-10.45454 14.69286,-28.53808 7.06389,-18.08354 13.28011,-45.4914 -3.67322,6.49877 -9.32432,14.12777 -5.65112,7.62899 -13.56266,14.41031 -7.62899,6.78134 -18.08354,11.30222 -10.17199,4.52088 -22.88698,4.52088 z"
style="fill:#ffffff;"
/><path
d="m 673.15819,291.07332 q -3.95577,5.65111 -10.172,14.12777 -6.21621,8.1941 -12.99753,16.67076 -6.49877,8.1941 -12.99755,15.25798 -6.21622,6.78134 -10.45454,9.60689 -2.82556,1.69533 -6.49877,2.82555 -3.67323,1.13022 -7.629,1.41278 -3.67322,0.28255 -7.06388,-0.56511 -3.39066,-0.56511 -5.93366,-2.26044 -2.543,-1.97789 -4.23834,-5.65111 -1.41276,-3.10812 -2.82555,-8.19411 -1.13022,-5.08599 -0.84767,-12.71498 -6.78132,11.30221 -14.97542,17.51842 -8.19411,5.93367 -15.54054,8.75922 -8.47666,3.10811 -16.95333,3.67322 -3.95577,0 -8.47665,-2.82555 -4.52088,-2.543 -7.62899,-8.1941 -3.10811,-5.93367 -3.95577,-14.97544 -0.84767,-9.32433 2.26044,-22.03931 3.95577,-17.23588 12.43243,-31.36364 8.75922,-14.12777 18.9312,-24.0172 10.17199,-10.17199 20.06143,-15.25799 9.88943,-5.08599 16.3882,-4.52088 7.629,1.41278 12.43244,4.52088 3.95577,2.82556 5.08599,8.47666 1.41278,5.36856 -4.52088,14.41032 3.95577,-0.84766 6.49877,-1.13022 2.82555,-0.28255 4.23834,-0.28255 1.69533,0 2.26044,0.28255 0.28255,0.56511 0.28255,2.543 0,1.69533 -0.84766,6.49877 -0.84768,4.80345 -2.54301,12.99755 -1.69533,8.1941 -4.52088,21.19164 -0.56511,2.543 -1.13022,4.80344 -0.28256,1.97789 -0.84767,4.23833 -0.28255,1.97789 -0.84766,4.80344 -0.56511,2.82555 -1.41278,7.06389 -0.28256,2.54299 -0.28256,5.6511 0.28256,2.82555 1.13023,5.36855 0.84766,2.543 2.54299,4.23833 1.97789,1.41277 5.36855,1.41277 2.82556,0 7.34644,-3.39066 4.52089,-3.67322 9.60688,-9.04177 5.08599,-5.6511 10.45455,-12.14988 5.65111,-6.78132 10.45454,-12.99754 4.80344,-6.21622 8.47666,-11.01966 3.95577,-4.80344 5.65111,-7.06388 2.26044,-2.54299 4.52089,-2.82555 2.26044,-0.56511 3.39066,1.13022 1.13022,1.69533 0.28255,5.08599 -0.56511,3.39067 -3.95577,7.91155 z m -82.78871,12.43244 q 1.41278,-5.65111 3.39068,-13.28011 1.97788,-7.62899 3.39066,-14.69286 1.41277,-7.06388 1.97788,-11.58478 0.84767,-4.80344 -0.28255,-4.52088 -1.41278,0.28256 -3.10811,0.84767 -1.41277,0.56511 -3.67323,0.84766 -2.26044,0.28256 -4.52088,0.84767 2.26044,-4.52089 2.543,-7.34644 0.56511,-3.1081 0.28255,-4.80344 -0.28255,-1.97788 -1.13022,-3.1081 -3.1081,-2.54301 -11.01965,4.23832 -7.629,6.49877 -17.80098,24.29976 -4.23833,7.34643 -6.78133,15.82309 -2.543,8.19411 -3.67322,15.54054 -0.84766,7.34644 -0.28255,12.99755 0.56511,5.36855 2.26044,7.06388 3.10811,3.10811 7.06388,3.10811 3.95577,-0.28256 7.91154,-2.26044 4.23834,-2.26044 8.19411,-5.65111 4.23833,-3.39066 7.34644,-7.06389 3.39066,-3.67321 5.36855,-6.78132 2.26044,-3.10811 2.54299,-4.52088 z"
style="fill:#ffffff;"
/><path
d="m 728.53902,243.32149 q 3.67322,-2.82557 7.06388,-4.23834 3.67322,-1.69533 6.49878,-2.26044 3.10811,-0.84767 6.21621,-0.56511 7.62899,0.56511 9.32433,4.80343 1.97788,4.23834 0.56511,13.56266 -0.84767,4.80344 -3.39067,12.14987 -2.54299,7.34645 -5.93366,18.08355 -3.39066,10.45455 -7.34643,24.0172 -3.67323,13.56265 -7.06389,30.51596 -3.39066,13.84522 -7.34643,31.92876 -3.39067,15.82309 -8.1941,38.14496 -4.5209,22.32187 -9.88945,51.1425 -1.41277,7.06389 -6.21621,8.19412 -4.52088,1.13022 -9.60687,-1.13023 -1.9779,-1.13022 -3.67323,-2.54299 -1.41278,-1.41278 -3.10811,-3.39066 -1.69533,-1.69535 -2.82555,-4.80345 6.49877,-23.73465 11.30222,-43.23095 5.08599,-19.49632 9.04176,-33.90665 4.23833,-16.67076 7.91155,-29.95085 1.41277,-5.93366 2.54299,-11.58478 1.41278,-5.93365 2.82555,-11.58476 -3.67321,5.93366 -7.91154,11.30221 -4.23833,5.36856 -9.32432,9.32433 -5.08599,3.95577 -11.01966,5.93366 -5.65111,2.26044 -11.86732,1.41277 -15.25799,-1.97788 -21.75676,-11.3022 -6.21621,-9.32433 -5.36855,-24.29976 0.28256,-5.93367 1.69533,-12.99755 1.41278,-7.06388 3.10811,-13.56264 1.69533,-6.49878 3.10811,-11.58478 1.69533,-5.36854 2.54299,-7.62899 3.39067,-10.7371 4.80344,-18.36609 1.69533,-7.62899 -2.26044,-12.715 3.95577,-2.54299 7.34645,-3.39066 3.67321,-1.13022 6.49876,-1.69533 3.10811,-0.28255 6.21622,0 7.62899,1.13022 8.75921,5.6511 1.41279,4.5209 -0.84767,13.56266 -1.13022,4.80344 -3.67321,12.43244 -2.543,7.34644 -5.36855,15.25798 -2.82555,7.91156 -5.086,14.69288 -2.26044,6.49877 -2.54299,9.32432 -2.543,12.71499 -0.28256,19.77887 2.26044,6.78133 9.88943,6.78133 3.67322,0 8.1941,-3.10811 4.5209,-3.39066 9.04178,-8.75921 4.80344,-5.36855 9.32432,-12.14988 4.52088,-7.06388 8.19411,-14.12776 3.95577,-7.06389 6.78133,-13.84522 3.1081,-6.78132 4.52088,-12.14987 1.97788,-10.45455 2.54299,-16.38821 0.56511,-5.93366 -3.95577,-10.73709 z"
style="fill:#ffffff;"
/><path
d="m 855.40637,302.37554 q -2.82557,10.73709 -7.629,20.06142 -4.80344,9.32432 -11.58477,16.10565 -6.49877,6.78133 -14.97543,10.45455 -8.1941,3.95577 -18.08354,3.95577 -11.58476,0 -18.3661,-5.08599 -6.49877,-4.80344 -9.88943,-12.14988 -3.10811,-7.34644 -3.67322,-16.10565 -0.84766,-8.75922 -0.84766,-16.38821 0,-5.36855 1.41277,-11.86733 1.13023,-6.49876 3.39067,-13.28009 2.26044,-6.78132 5.6511,-13.56266 3.67323,-6.78132 8.47667,-12.43242 1.69533,-4.80344 5.08599,-8.47667 3.67322,-3.67322 8.1941,-5.93366 4.80345,-2.543 10.172,-3.67322 5.36854,-1.41277 10.45454,-1.41277 0.84766,0 1.41277,0.28255 0.84767,0.28256 1.69533,0.56511 3.67322,0.28256 9.04178,2.82556 5.6511,2.54299 10.7371,7.629 5.36854,5.08599 9.04176,12.99753 3.67323,7.62899 3.67323,18.64866 0,2.26044 -0.28256,5.6511 -0.28255,3.10811 -0.56512,5.36855 6.49878,-2.543 13.56266,-6.21622 7.06388,-3.67321 13.56266,-7.62899 6.78132,-4.23832 12.43243,-8.47666 5.6511,-4.23833 9.04176,-7.62899 2.82557,-2.543 4.80345,-2.82555 1.97789,-0.28256 2.82555,1.13022 0.84767,1.41277 0.28256,3.95577 -0.56511,2.543 -3.10811,5.6511 -1.41277,1.69533 -7.34643,6.78134 -5.65112,5.08599 -13.56266,11.01965 -7.91155,5.93366 -17.23588,11.58477 -9.32432,5.6511 -17.80097,8.47666 z m -47.75186,-42.94841 q -0.84766,2.543 -0.84766,5.36855 0,4.52089 0.56512,9.60688 0.56511,4.80344 2.82555,8.75921 2.26044,3.95578 7.06388,6.78133 5.08599,2.54301 13.8452,2.54301 1.41279,0 2.82555,0 1.41279,-0.28257 2.82557,-0.56511 0.84766,-3.67323 1.41277,-6.49878 0.84767,-3.10811 0.84767,-5.36855 0.56511,-5.36855 0,-11.01965 -0.56511,-5.65112 -2.26044,-10.172 -1.41278,-4.80344 -3.95579,-7.62899 -2.26044,-3.10811 -5.6511,-3.10811 -5.36855,0 -10.45454,3.10811 -4.80344,2.82555 -9.04178,8.1941 z m -18.08353,49.72973 q 0,5.08599 0.56511,10.172 0.56511,4.80344 2.26044,8.75921 1.69533,3.67321 4.52089,6.21621 2.82555,2.26044 7.34643,2.26044 5.08599,0 9.32433,-2.26044 4.23833,-2.543 7.62899,-6.21621 3.39066,-3.95577 5.93366,-8.75921 2.82555,-5.08601 4.80345,-10.45455 -1.9779,0.28255 -3.95579,0.56511 -1.69533,0 -3.95577,0 -10.73709,0 -18.64865,-6.21622 -7.62899,-6.49877 -11.86732,-16.38821 -1.69533,5.93367 -2.82555,11.58477 -1.13022,5.65111 -1.13022,10.7371 z"
style="fill:#ffffff;"
/><path
d="m 948.08449,180.87676 q -0.84766,3.10811 -3.39066,6.21622 -2.26044,2.82555 -5.36855,4.80343 -2.82555,1.69533 -5.93366,2.26044 -3.1081,0.56511 -5.086,-1.13022 -5.93366,-4.52088 -6.21621,-9.60687 -0.28256,-5.36855 2.54299,-9.88943 2.82555,-4.80345 7.06389,-7.91156 4.23833,-3.39066 7.34644,-3.95577 3.1081,-0.56511 5.08599,1.41278 2.26044,1.69533 3.39066,4.80343 1.13022,2.82555 1.13022,6.49878 0.28256,3.67322 -0.56511,6.49877 z m -38.99262,60.18427 q 1.41277,-1.69533 5.36855,-2.82555 3.95577,-1.13022 8.1941,-1.69533 4.23832,-0.84766 7.629,-0.84766 3.67321,-0.28256 4.23832,0 0.28256,0.28255 -1.41277,5.93365 -1.69533,5.65112 -4.23834,13.28011 -2.543,7.62899 -5.36855,15.8231 -2.82555,7.91154 -4.23833,12.99754 -1.41277,5.08599 -3.39066,11.58477 -1.97788,6.21621 -3.67321,12.43243 -1.41278,5.93365 -1.97789,11.30221 -0.56511,5.36855 0.84766,8.1941 1.41278,3.39066 3.10811,4.80344 1.69533,1.13022 3.67322,1.13022 5.6511,0 14.12777,-6.21621 8.75921,-6.21622 17.51842,-14.69288 9.04177,-8.75921 16.67076,-17.51842 7.62899,-9.04178 11.30221,-14.41033 2.26045,-2.82555 4.52089,-3.67321 2.543,-0.84767 3.95578,0.28255 1.69533,1.13022 1.69533,3.67322 0.28255,2.54299 -1.69533,5.93366 -4.52089,7.91155 -13.28011,18.9312 -8.75921,10.7371 -18.64865,20.9091 -9.88943,9.88943 -19.49631,16.95332 -9.32433,7.06388 -15.25799,7.34643 -4.80343,0.28256 -9.60687,-1.69533 -4.52088,-1.69533 -8.47667,-4.80344 -3.67321,-3.39067 -6.21621,-7.629 -2.543,-4.52088 -2.82555,-9.32432 -0.84767,-7.06388 0,-19.21376 0.84766,-12.43243 3.1081,-25.14742 2.26045,-12.99754 5.65111,-24.58231 3.67323,-11.58476 8.19411,-17.23588 z"
style="fill:#ffffff;"
/><path
d="m 1064.2147,170.42221 q -3.3906,1.13022 -5.086,0.28255 -1.6953,-0.84766 -2.543,-2.82555 -0.8476,-1.97788 -0.8476,-4.23832 0,-2.543 0.2825,-4.80344 0.2826,-1.97789 0.8477,-4.52089 0.8476,-2.54299 1.9779,-4.80343 1.1302,-2.26044 2.543,-3.67323 1.6953,-1.69533 4.2383,-2.26044 12.9975,-2.26044 25.1474,-3.39066 12.4325,-1.13022 22.3219,-1.69534 11.3022,-0.84766 21.7567,-0.84766 2.2605,0 4.5209,0.28255 2.2604,0 4.5209,0 2.543,-0.56511 3.9558,-0.28255 1.6953,0 2.8255,0.28255 8.1941,0.28256 16.9533,0.84767 7.3465,0.56511 16.3883,1.41278 9.3243,0.56511 18.3661,1.69533 0.8476,2.26044 0.2826,5.65111 -0.2826,1.69533 -0.5652,3.39066 -0.2826,1.69533 -1.4128,3.10811 -0.8477,1.41278 -2.2605,2.82555 -1.1302,1.13022 -2.8255,1.97789 -9.6069,-0.28256 -18.6486,-0.28256 -8.7592,-0.28255 -15.5405,-0.28255 h -15.2581 q -3.6731,12.99755 -9.0417,32.2113 -5.3686,18.9312 -11.0197,40.12285 -5.3685,20.9091 -10.4545,41.81819 -4.8034,20.62654 -7.629,37.29729 -2.8256,16.10566 -5.6511,31.6462 -1.1302,6.49877 -2.543,13.56265 -1.1302,7.06388 -2.2605,13.84521 -0.8476,6.78133 -1.6953,12.99754 -0.8476,6.21621 -1.4128,11.30222 -4.5208,2.26044 -8.4766,3.39066 -3.9558,1.41278 -7.0639,1.97789 -3.6732,0.84766 -6.7813,0.84766 -6.7814,0 -8.4767,-1.69533 -1.4128,-1.41278 -0.2825,-5.93366 0.8476,-3.95578 5.086,-21.4742 1.6953,-7.34645 4.2383,-18.64865 2.8255,-11.01965 6.4988,-26.84275 3.6732,-16.10566 8.7592,-37.29731 5.086,-21.4742 11.5847,-49.16462 l 18.9312,-78.55037 q -8.4766,1.13022 -16.6707,2.543 -8.1941,1.41278 -15.5406,3.10811 -7.0638,1.41277 -12.9975,2.82555 -5.6511,1.41277 -9.0418,2.26044 z"
style="fill:#ffffff;"
/><path
d="m 1315.4064,285.13966 q 1.9779,-2.26044 3.9557,-2.26044 2.2605,-0.28256 3.3907,1.13022 1.4128,1.13022 1.1302,3.67322 0,2.54299 -2.2604,5.65111 -5.3685,7.34644 -12.4324,15.25798 -7.064,7.62899 -15.258,14.97543 -7.9116,7.34644 -16.1056,13.84521 -8.1942,6.49878 -15.8231,10.73711 -8.4767,4.80343 -14.4104,4.80343 -5.6511,0 -11.3022,-7.34643 -5.086,-6.49878 -5.086,-13.84522 0.2825,-7.62898 3.3907,-18.9312 1.9779,-7.06388 5.3685,-16.67076 3.6733,-9.88944 5.6511,-18.9312 2.2605,-9.04178 1.4128,-15.25799 -0.8477,-6.49877 -7.3465,-6.49877 -4.5208,0 -9.8894,3.1081 -5.086,3.10811 -10.4545,8.1941 -5.086,4.80345 -9.8894,11.01967 -4.8035,6.21621 -8.4767,12.14987 -2.2605,11.01966 -4.5209,21.75676 -1.9779,9.04177 -4.2383,19.77887 -1.9779,10.45455 -3.9558,18.64865 -1.6953,1.41278 -3.6732,1.97789 -1.9779,0.56511 -3.6732,0.56511 -1.9779,0 -3.9558,-0.28256 -2.2605,-0.56511 -4.2383,-1.69533 -1.6954,-1.13022 -3.3907,-3.10811 -1.6954,-1.69533 -2.543,-4.80343 12.715,-52.27274 20.0615,-83.91893 7.3463,-31.64619 11.3022,-48.31696 4.5209,-19.77887 6.2161,-27.40786 0.8477,-5.36855 1.4128,-10.45454 0.5651,-4.52089 0.5651,-9.32433 0,-4.80344 -0.8477,-8.75921 2.2605,-1.41278 4.8035,-2.26044 2.8256,-0.84767 5.3685,-1.41278 3.1082,-0.84766 6.2163,-1.41277 3.1081,-0.56511 5.6511,-0.56511 2.2604,0 4.2383,0.56511 1.9779,0.28255 2.543,1.69533 1.6953,1.41277 1.4128,5.6511 0,4.23833 -0.5651,8.75921 -1.1303,5.36855 -2.5431,11.58477 -5.9335,22.88698 -13.28,44.64374 -7.3465,21.47421 -13.5627,46.05652 3.6733,-5.65112 8.7592,-11.58478 5.0861,-5.93366 11.0197,-10.73709 6.2162,-5.08601 12.9975,-8.19411 6.7813,-3.39067 14.4104,-3.39067 3.9557,0 7.3464,1.41278 3.6732,1.13022 6.2163,4.23833 2.8255,2.82555 4.2383,7.91155 1.4128,4.80344 1.1302,12.14988 0,4.52088 -1.1302,9.32433 -0.8477,4.80343 -2.5431,10.73709 -1.6952,5.65111 -4.5208,12.715 -2.5431,7.06387 -6.2162,16.3882 -2.543,6.49876 -3.9558,11.01966 -1.4128,4.52088 0.5651,7.91154 2.5429,4.52089 9.8894,2.26044 7.629,-2.54299 22.6044,-14.69288 3.3907,-2.82555 7.629,-7.06387 4.2384,-4.23833 8.1941,-8.47666 3.9559,-4.52088 7.3465,-8.47667 3.3907,-3.95577 5.6511,-6.21621 z"
style="fill:#ffffff;"
/><path
d="m 1378.9813,243.32149 q 3.6733,-2.82557 7.064,-4.23834 3.6731,-1.69533 6.4987,-2.26044 3.1081,-0.84767 6.2161,-0.56511 7.6291,0.56511 9.3244,4.80343 1.978,4.23834 0.5652,13.56266 -0.8477,4.80344 -3.3907,12.14987 -2.543,7.34645 -5.9337,18.08355 -3.3906,10.45455 -7.3465,24.0172 -3.6731,13.56265 -7.0638,30.51596 -3.3906,13.84522 -7.3465,31.92876 -3.3906,15.82309 -8.1941,38.14496 -4.5209,22.32187 -9.8894,51.1425 -1.4128,7.06389 -6.2163,8.19412 -4.5208,1.13022 -9.6068,-1.13023 -1.9778,-1.13022 -3.6732,-2.54299 -1.4128,-1.41278 -3.1081,-3.39066 -1.6954,-1.69535 -2.8256,-4.80345 6.4989,-23.73465 11.3022,-43.23095 5.0861,-19.49632 9.0418,-33.90665 4.2384,-16.67076 7.9115,-29.95085 1.4128,-5.93366 2.543,-11.58478 1.4128,-5.93365 2.8256,-11.58476 -3.6732,5.93366 -7.9115,11.30221 -4.2384,5.36856 -9.3243,9.32433 -5.0861,3.95577 -11.0197,5.93366 -5.6511,2.26044 -11.8673,1.41277 -15.2581,-1.97788 -21.7568,-11.3022 -6.2162,-9.32433 -5.3685,-24.29976 0.2826,-5.93367 1.6952,-12.99755 1.4128,-7.06388 3.1082,-13.56264 1.6953,-6.49878 3.1081,-11.58478 1.6953,-5.36854 2.543,-7.62899 3.3907,-10.7371 4.8034,-18.36609 1.6954,-7.62899 -2.2605,-12.715 3.9559,-2.54299 7.3465,-3.39066 3.6733,-1.13022 6.4988,-1.69533 3.1082,-0.28255 6.2162,0 7.629,1.13022 8.7592,5.6511 1.4128,4.5209 -0.8476,13.56266 -1.1302,4.80344 -3.6733,12.43244 -2.543,7.34644 -5.3685,15.25798 -2.8256,7.91156 -5.086,14.69288 -2.2605,6.49877 -2.5429,9.32432 -2.5431,12.71499 -0.2826,19.77887 2.2604,6.78133 9.8894,6.78133 3.6732,0 8.1941,-3.10811 4.5209,-3.39066 9.0418,-8.75921 4.8034,-5.36855 9.3243,-12.14988 4.5209,-7.06388 8.1941,-14.12776 3.9558,-7.06389 6.7814,-13.84522 3.108,-6.78132 4.5209,-12.14987 1.9778,-10.45455 2.5429,-16.38821 0.5651,-5.93366 -3.9558,-10.73709 z"
style="fill:#ffffff;"
/><path
d="m 1553.883,334.30428 q 0,-5.93366 1.1303,-13.56265 1.4128,-7.629 3.3906,-15.54054 1.9779,-8.1941 3.9558,-15.8231 1.9779,-7.62899 3.3907,-13.56265 1.6953,-7.34643 -0.2826,-11.30222 -1.9778,-3.95577 -6.7813,-3.95577 -2.2604,0 -9.0418,3.95577 -6.4988,3.95579 -14.4104,13.84522 -7.6289,9.60687 -15.2579,26.27764 -7.3465,16.38821 -11.5848,41.81818 -5.3685,2.82556 -10.1719,3.67322 -2.5431,0.56511 -4.5209,0.84767 -5.6511,0.28255 -7.3465,-1.97789 -1.6953,-1.97789 0.5651,-10.172 1.1303,-3.95577 3.9558,-12.71498 3.1082,-8.75921 5.9336,-18.93121 2.8257,-10.45454 4.8035,-20.62653 2.2605,-10.45454 2.2605,-18.08353 0,-5.36856 -1.9779,-7.34645 -1.6954,-1.97789 -5.0861,-1.97789 -2.543,0 -8.4765,2.82556 -5.9337,2.82555 -13.2802,11.01966 -7.3464,8.1941 -14.6929,22.88698 -7.0639,14.41031 -12.1498,37.57985 v -0.56511 q -0.5652,2.26044 -1.1302,4.52088 -0.5652,1.97788 -0.8477,4.23834 -0.2826,2.26044 -0.8477,4.23832 l -14.1277,6.21622 q -1.4128,0.56511 -3.6733,0.84766 -1.9778,0.28256 -3.9558,-0.84766 -1.6953,-0.84767 -2.5429,-3.95577 -0.8478,-3.10811 0.565,-9.32434 l 17.8011,-73.74693 q 0.8476,-3.67321 1.4127,-7.06388 0.5651,-3.1081 0.5651,-5.93365 0.2826,-3.10811 -0.2825,-5.086 4.8034,-2.26044 8.4767,-3.39067 3.6731,-1.13022 5.9335,-1.69533 2.8257,-0.84767 4.8035,-0.84767 9.0418,0 5.9337,15.54055 -1.1302,4.52088 -3.3907,13.2801 5.3686,-6.78133 11.3022,-12.71499 6.2163,-6.21622 12.4325,-11.01965 6.2162,-4.80345 12.4324,-7.629 6.4987,-2.82555 12.715,-2.82555 4.8035,0 7.9115,2.82555 3.3907,2.82555 5.0861,7.629 1.9778,4.52088 2.2604,11.01965 0.2825,6.21621 -0.5651,12.99755 4.5208,-5.93367 9.8894,-11.86733 5.6511,-6.21621 11.5847,-11.01965 6.2163,-4.80345 12.7151,-7.91156 6.4987,-3.1081 12.9975,-3.1081 7.629,0 11.5847,4.52088 4.2384,4.52089 5.6511,11.58477 1.6954,7.06388 0.8478,15.25798 -0.5652,8.19411 -2.2605,15.8231 l -9.6069,38.14497 q -3.1081,14.12776 5.9337,14.12776 7.0639,0 15.5405,-6.78133 8.4767,-6.78132 16.3882,-16.10565 8.1942,-9.32432 15.258,-19.21375 7.0639,-9.88944 11.8673,-15.8231 1.6954,-1.97789 3.3907,-2.26044 1.9778,-0.28256 3.1081,0.84766 1.4128,0.84767 1.4128,3.10811 0.2826,2.26044 -1.4128,5.6511 -5.6511,9.88944 -13.8451,22.03931 -8.1942,11.86733 -18.0837,22.32187 -9.6068,10.45456 -20.6264,17.51843 -11.0198,7.06388 -22.887,7.06388 -3.9558,0 -7.9116,-0.84766 -3.6732,-0.84767 -7.0639,-3.10811 -3.108,-2.26044 -5.086,-5.93366 -1.9779,-3.95578 -1.9779,-9.88944 z"
style="fill:#ffffff;"
/><path
d="m 1758.1704,288.53032 q -8.4765,12.43244 -19.2137,24.29976 -10.737,11.58477 -22.887,20.90909 -11.8672,9.04178 -24.5823,14.69288 -12.4324,5.6511 -24.2998,5.6511 -6.2161,0 -13.5626,-3.1081 -7.0639,-2.82555 -12.9975,-9.04177 -5.9337,-6.21622 -9.6069,-16.10565 -3.3907,-9.88943 -1.9779,-24.0172 1.1303,-11.58478 7.0639,-24.29976 6.2162,-12.99755 14.9754,-23.73464 9.0417,-10.73711 20.0615,-17.80099 11.3022,-7.06388 22.6044,-7.06388 10.737,0 15.5405,5.36855 4.8035,5.36855 4.2384,13.2801 -0.8478,8.75921 -5.086,16.10565 -3.9559,7.34644 -9.607,13.2801 -5.6511,5.93366 -12.1498,10.7371 -6.2162,4.80345 -11.8673,8.75922 -6.2162,4.23833 -11.8673,8.1941 -5.6511,3.67322 -9.8894,6.78132 0.2824,7.06389 2.5429,11.86733 2.2604,4.80344 5.6511,7.91154 3.3906,2.82556 7.629,4.23833 4.5209,1.13022 9.0418,1.13022 9.6068,0 20.0614,-5.93366 10.4546,-6.21621 20.3439,-14.69286 10.172,-8.75923 18.6487,-18.08355 8.7592,-9.32433 14.4103,-16.10565 1.978,-2.26044 3.9559,-2.543 2.2604,-0.56511 3.3906,0.56511 1.4128,0.84767 1.4128,3.39066 0,2.26045 -1.978,5.36855 z m -72.3341,-43.5135 q -3.3906,0 -8.1941,3.39066 -4.5209,3.39066 -9.0417,9.88943 -4.5209,6.21621 -8.4768,15.54054 -3.9557,9.04177 -5.9335,20.9091 3.3906,-2.54301 7.3463,-5.08601 3.9559,-2.82555 7.9116,-5.93365 12.1499,-9.32433 16.9533,-16.38822 4.8035,-7.06387 5.3686,-12.14987 0.5651,-5.36855 -1.1302,-7.62899 -1.6954,-2.54299 -4.8035,-2.54299 z"
style="fill:#ffffff;"
/><path
d="m 33.324155,349.4315 a 7.5213421,7.5213421 0 1 0 0,15.04026 H 1766.754 a 7.5213421,7.5213421 0 1 0 0,-15.04026 z"
style="fill:#ffffff;"
/></svg>