<?xml version="1.0" encoding="UTF-8" standalone="no"?>
<!-- Created with Inkscape (http://www.inkscape.org/) -->

<svg
   xmlns:dc="http://purl.org/dc/elements/1.1/"
   xmlns:cc="http://creativecommons.org/ns#"
   xmlns:rdf="http://www.w3.org/1999/02/22-rdf-syntax-ns#"
   xmlns:svg="http://www.w3.org/2000/svg"
   xmlns="http://www.w3.org/2000/svg"
   xmlns:sodipodi="http://sodipodi.sourceforge.net/DTD/sodipodi-0.dtd"
   xmlns:inkscape="http://www.inkscape.org/namespaces/inkscape"
   width="279.16031"
   height="311.60046"
   viewBox="0 0 73.861163 82.444292"
   version="1.1"
   id="svg8"
   inkscape:version="0.92.2 (5c3e80d, 2017-08-06)"
   sodipodi:docname="yayoi-thyme-island-logo.svg"
   inkscape:export-filename="C:\Users\camellia\Desktop\bitmap.png"
   inkscape:export-xdpi="96"
   inkscape:export-ydpi="96">
  <defs
     id="defs2">
    <clipPath
       id="clipPath831"
       clipPathUnits="userSpaceOnUse">
      <path
         inkscape:connector-curvature="0"
         id="path829"
         d="M 0,815 H 850 V 0 H 0 Z" />
    </clipPath>
    <clipPath
       id="clipPath2771"
       clipPathUnits="userSpaceOnUse">
      <path
         inkscape:connector-curvature="0"
         id="path2769"
         d="M 0,815 H 850 V 0 H 0 Z" />
    </clipPath>
    <clipPath
       id="clipPath2959"
       clipPathUnits="userSpaceOnUse">
      <path
         inkscape:connector-curvature="0"
         id="path2957"
         d="M 0,815 H 850 V 0 H 0 Z" />
    </clipPath>
    <clipPath
       id="clipPath3147"
       clipPathUnits="userSpaceOnUse">
      <path
         inkscape:connector-curvature="0"
         id="path3145"
         d="M 0,815 H 850 V 0 H 0 Z" />
    </clipPath>
    <clipPath
       id="clipPath5888"
       clipPathUnits="userSpaceOnUse">
      <path
         inkscape:connector-curvature="0"
         id="path5886"
         d="M 0,815 H 850 V 0 H 0 Z" />
    </clipPath>
    <clipPath
       id="clipPath7828"
       clipPathUnits="userSpaceOnUse">
      <path
         inkscape:connector-curvature="0"
         id="path7826"
         d="M 0,815 H 850 V 0 H 0 Z" />
    </clipPath>
    <clipPath
       id="clipPath7892"
       clipPathUnits="userSpaceOnUse">
      <path
         inkscape:connector-curvature="0"
         id="path7890"
         d="M 0,815 H 850 V 0 H 0 Z" />
    </clipPath>
    <clipPath
       id="clipPath7956"
       clipPathUnits="userSpaceOnUse">
      <path
         inkscape:connector-curvature="0"
         id="path7954"
         d="M 0,815 H 850 V 0 H 0 Z" />
    </clipPath>
  </defs>
  <sodipodi:namedview
     id="base"
     pagecolor="#ffffff"
     bordercolor="#666666"
     borderopacity="1.0"
     inkscape:pageopacity="0.0"
     inkscape:pageshadow="2"
     inkscape:zoom="1.37187"
     inkscape:cx="108.09179"
     inkscape:cy="135.66905"
     inkscape:document-units="mm"
     inkscape:current-layer="layer1"
     showgrid="false"
     inkscape:snap-global="false"
     showguides="false"
     inkscape:snap-smooth-nodes="true"
     inkscape:window-width="1440"
     inkscape:window-height="847"
     inkscape:window-x="-8"
     inkscape:window-y="-8"
     inkscape:window-maximized="1"
     units="px"
     fit-margin-top="0"
     fit-margin-left="0"
     fit-margin-right="0"
     fit-margin-bottom="0" />
  <metadata
     id="metadata5">
    <rdf:RDF>
      <cc:Work
         rdf:about="">
        <dc:format>image/svg+xml</dc:format>
        <dc:type
           rdf:resource="http://purl.org/dc/dcmitype/StillImage" />
        <dc:title></dc:title>
      </cc:Work>
    </rdf:RDF>
  </metadata>
  <g
     inkscape:label="レイヤー 1"
     inkscape:groupmode="layer"
     id="layer1"
     transform="translate(-61.393795,-107.3199)">
    <g
       id="g2773"
       transform="matrix(0.35277777,0,0,-0.35277777,132.90264,142.21774)"
       style="fill:#2f517e;fill-opacity:1">
      <path
         d="m 0,0 c 0,-54.634 -44.288,-98.923 -98.923,-98.923 -54.634,0 -98.923,44.289 -98.923,98.923 0,54.634 44.289,98.923 98.923,98.923 C -44.288,98.923 0,54.634 0,0"
         style="fill:#2f517e;fill-opacity:1;fill-rule:nonzero;stroke:none"
         id="path2775"
         inkscape:connector-curvature="0" />
    </g>
    <g
       id="g2777"
       transform="matrix(0.35277777,0,0,-0.35277777,104.43799,157.21937)">
      <path
         d="m 0,0 5.35,5.393 6.96,-7.358 c 0,0 3.44,3.084 4.079,3.25 0.971,0.253 6.153,-4.135 6.153,-4.135 1.749,-1.728 8.501,-2.087 10.039,-3.12 -5.579,-1.77 -33.789,0.114 -33.789,0.114 z"
         style="fill:#86b3ba;fill-opacity:1;fill-rule:nonzero;stroke:none"
         id="path2779"
         inkscape:connector-curvature="0" />
    </g>
    <g
       id="g2781"
       transform="matrix(0.35277777,0,0,-0.35277777,100.62728,159.43795)">
      <path
         d="M 0,0 C 0,0 10.811,-0.449 15.677,1.795 14.596,3.589 11.081,7.402 11.081,7.402 L 2.432,12.45 -0.136,15.704 Z"
         style="fill:#83b0b7;fill-opacity:1;fill-rule:nonzero;stroke:none"
         id="path2783"
         inkscape:connector-curvature="0" />
    </g>
    <g
       id="g2785"
       transform="matrix(0.35277777,0,0,-0.35277777,92.617991,158.80475)">
      <path
         d="m 0,0 c 5.946,0 19.865,10.768 22.568,13.909 l 0.135,-8.076 2.567,1.009 5.406,-8.302 c 0,0 -4.054,0 -7.973,-0.335 C 16.114,-2.359 5.406,-1.122 0,0"
         style="fill:#91bcc6;fill-opacity:1;fill-rule:nonzero;stroke:none"
         id="path2787"
         inkscape:connector-curvature="0" />
    </g>
    <g
       id="g2789"
       transform="matrix(0.35277777,0,0,-0.35277777,97.861856,159.18988)">
      <path
         d="m 0,0 c 1.081,-0.27 3.784,-0.27 3.513,0.54 -0.269,0.811 0.136,3.649 0.406,4.055 0.271,0.405 0,1.757 0,1.757 L 1.757,2.838 1.351,4.325 -1.892,0 Z"
         style="fill:#86b3ba;fill-opacity:1;fill-rule:nonzero;stroke:none"
         id="path2791"
         inkscape:connector-curvature="0" />
    </g>
    <g
       id="g2793"
       transform="matrix(0.35277777,0,0,-0.35277777,68.501784,159.61416)"
       style="fill:#746527;fill-opacity:1">
      <path
         d="m 0,0 c -4.865,4.054 -40.542,65.678 17.839,115.14 3.244,3.244 8.92,17.028 -4.865,3.244 C -0.81,104.599 -40.542,47.84 0,-5.676 40.542,-59.192 0,0 0,0"
         style="fill:#746527;fill-opacity:1;fill-rule:nonzero;stroke:none"
         id="path2795"
         inkscape:connector-curvature="0" />
    </g>
    <g
       id="g2797"
       transform="matrix(0.35277777,0,0,-0.35277777,125.47426,160.68372)"
       style="fill:#746527;fill-opacity:1">
      <path
         d="m 0,0 c 4.865,4.054 48.649,55.946 -10.679,118.172 -3.243,3.243 -8.919,17.028 4.866,3.243 C 7.971,107.631 47.703,50.872 7.16,-2.644 -33.382,-56.16 0,0 0,0"
         style="fill:#746527;fill-opacity:1;fill-rule:nonzero;stroke:none"
         id="path2799"
         inkscape:connector-curvature="0" />
    </g>
    <g
       id="g2801"
       transform="matrix(0.35277777,0,0,-0.35277777,131.90967,134.53727)"
       style="fill:#257132;fill-opacity:1;stroke:none">
      <path
         d="m 0,0 c -3.784,3.243 -4.025,8.609 -10.271,7.568 -9.73,-1.622 -12.163,4.054 -8.919,5.676 -2.434,1.622 0,3.243 -4.866,3.243 -4.865,0 0,3.244 -4.054,3.244 -4.054,0 -7.297,4.054 -5.676,6.487 1.622,2.432 -3.243,0.81 -6.487,4.865 -3.243,4.054 -4.054,9.73 0.811,10.541 4.865,0.811 -4.96,2.575 -8.108,7.297 -2.162,3.244 0.811,12.163 8.919,10.541 8.919,4.054 17.027,2.433 17.027,-0.81 0,-3.244 2.434,-1.622 7.299,-1.622 4.864,0 11.352,-3.244 11.352,-9.731 0,-6.486 7.538,-1.533 8.919,-5.675 C 6.756,39.191 8.378,34.326 5.135,29.461 2.29,25.194 7.298,18.109 4.865,14.055 2.432,10.001 1.081,6.487 2.702,3.243 4.324,0 0,0 0,0"
         style="fill:#257132;fill-opacity:1;fill-rule:nonzero;stroke:none"
         id="path2803"
         inkscape:connector-curvature="0" />
    </g>
    <g
       id="g2805"
       transform="matrix(0.35277777,0,0,-0.35277777,129.90723,135.20466)"
       style="fill:#746527;fill-opacity:1">
      <path
         d="m 0,0 c 2.162,-1.081 5.406,-3.243 10,-10.811 1.352,-4.595 1.352,-5.406 1.352,-5.406 0,0 -5.136,12.163 -11.893,15.406 z"
         style="fill:#746527;fill-opacity:1;fill-rule:nonzero;stroke:none"
         id="path2807"
         inkscape:connector-curvature="0" />
    </g>
    <g
       id="g2809"
       transform="matrix(0.35277777,0,0,-0.35277777,130.28855,136.44425)"
       style="fill:#257132;fill-opacity:1;stroke:none">
      <path
         d="m 0,0 c 2.433,0.54 4.054,2.702 1.892,3.784 0.541,2.703 0.811,7.838 -2.973,7.838 -2.432,2.433 -5.136,5.946 -8.649,2.973 -4.595,-1.081 -6.486,-3.783 -3.514,-4.865 1.892,-1.351 -2.162,-4.054 2.433,-5.946 3.784,0.541 5.135,0 4.865,-1.351 -0.27,-1.352 2.433,-4.055 3.244,-2.703 C -1.892,1.081 0,0 0,0"
         style="fill:#257132;fill-opacity:1;fill-rule:nonzero;stroke:none"
         id="path2811"
         inkscape:connector-curvature="0" />
    </g>
    <g
       id="g2813"
       transform="matrix(0.35277777,0,0,-0.35277777,63.210082,137.44536)"
       style="fill:#746527;fill-opacity:1">
      <path
         d="M 0,0 C 0,0 7.298,8.919 13.379,12.163 9.73,9.325 0,-1.622 -0.811,-5.676 Z"
         style="fill:#746527;fill-opacity:1;fill-rule:nonzero;stroke:none"
         id="path2815"
         inkscape:connector-curvature="0" />
    </g>
    <g
       id="g2817"
       transform="matrix(0.35277777,0,0,-0.35277777,85.270511,117.33301)">
      <path
         d="M 0,0 0.931,-1.887 3.014,-2.189 1.507,-3.658 1.863,-5.732 0,-4.753 l -1.862,-0.979 0.355,2.074 -1.507,1.469 2.083,0.302 z"
         style="fill:#fff8bf;fill-opacity:1;fill-rule:nonzero;stroke:none"
         id="path2819"
         inkscape:connector-curvature="0" />
    </g>
    <g
       id="g2821"
       transform="matrix(0.35277777,0,0,-0.35277777,95.239763,109.07208)">
      <path
         d="M 0,0 0.839,-1.701 2.716,-1.973 1.358,-3.297 1.678,-5.165 0,-4.283 l -1.679,-0.882 0.321,1.868 -1.358,1.324 1.877,0.272 z"
         style="fill:#fff8bf;fill-opacity:1;fill-rule:nonzero;stroke:none"
         id="path2823"
         inkscape:connector-curvature="0" />
    </g>
    <g
       id="g2825"
       transform="matrix(0.35277777,0,0,-0.35277777,79.858688,123.46263)">
      <path
         d="m 0,0 1.112,-2.253 2.486,-0.361 -1.8,-1.754 0.425,-2.476 -2.223,1.17 -2.223,-1.17 0.424,2.476 -1.799,1.754 2.486,0.361 z"
         style="fill:#fff8bf;fill-opacity:1;fill-rule:nonzero;stroke:none"
         id="path2827"
         inkscape:connector-curvature="0" />
    </g>
    <g
       id="g2829"
       transform="matrix(0.35277777,0,0,-0.35277777,87.894012,111.12899)">
      <path
         d="M 0,0 1.34,-2.716 4.338,-3.151 2.169,-5.265 2.68,-8.25 0,-6.841 -2.681,-8.25 l 0.512,2.985 -2.168,2.114 2.997,0.435 z"
         style="fill:#fff8bf;fill-opacity:1;fill-rule:nonzero;stroke:none"
         id="path2831"
         inkscape:connector-curvature="0" />
    </g>
    <g
       id="g2833"
       transform="matrix(0.35277777,0,0,-0.35277777,91.742218,116.19562)">
      <path
         d="M 0,0 0.888,-1.8 2.875,-2.089 1.438,-3.49 1.776,-5.468 0,-4.534 l -1.776,-0.934 0.338,1.978 -1.437,1.401 1.987,0.289 z"
         style="fill:#fff8bf;fill-opacity:1;fill-rule:nonzero;stroke:none"
         id="path2835"
         inkscape:connector-curvature="0" />
    </g>
    <g
       id="g2837"
       transform="matrix(0.35277777,0,0,-0.35277777,104.8223,157.34086)">
      <path
         d="M 0,0 5.541,-4.151 V -5.048 L 1.082,-5.273 Z"
         style="fill:#71a0a5;fill-opacity:1;fill-rule:nonzero;stroke:none"
         id="path2839"
         inkscape:connector-curvature="0" />
    </g>
    <g
       id="g2841"
       transform="matrix(0.35277777,0,0,-0.35277777,69.427014,162.21255)">
      <path
         d="m 0,0 10.722,-25.026 23.662,-17.204 13.558,-6.453 25.023,-15.352 10.228,-9.739 10.845,7.273 35.735,22.364 19.718,16.363 c 0,0 13.804,17.764 14.297,25.037 C 164.28,4.536 115.476,4.954 76.532,4.954 37.588,4.954 -5.422,6.818 0,0"
         style="fill:#722e1e;fill-opacity:1;fill-rule:nonzero;stroke:none"
         id="path2843"
         inkscape:connector-curvature="0" />
    </g>
    <g
       id="g2845"
       transform="matrix(0.35277777,0,0,-0.35277777,97.426669,176.37206)">
      <path
         d="m 0,0 -4.437,31.788 -0.493,7.124 -12.324,1.097 3.944,-15.346 z"
         style="fill:#662617;fill-opacity:1;fill-rule:nonzero;stroke:none"
         id="path2847"
         inkscape:connector-curvature="0" />
    </g>
    <g
       id="g2849"
       transform="matrix(0.35277777,0,0,-0.35277777,98.817811,187.58623)">
      <path
         d="m 0,0 25.634,18.086 9.859,28.5 L 24.648,76.729 6.141,55.341 Z"
         style="fill:#5c2313;fill-opacity:1;fill-rule:nonzero;stroke:none"
         id="path2851"
         inkscape:connector-curvature="0" />
    </g>
    <g
       id="g2853"
       transform="matrix(0.35277777,0,0,-0.35277777,113.42592,177.91896)">
      <path
         d="m 0,0 7.394,21.375 0.494,10.413 7.394,-9.317 0.493,-8.221 8.873,8.221 C 24.648,22.471 19.719,10.961 0,0"
         style="fill:#5c2313;fill-opacity:1;fill-rule:nonzero;stroke:none"
         id="path2855"
         inkscape:connector-curvature="0" />
    </g>
    <g
       id="g2857"
       transform="matrix(0.35277777,0,0,-0.35277777,96.383081,180.819)">
      <path
         d="m 0,0 2.958,12.605 -6.902,12.606 -6.901,15.346 -0.493,-19.182 -6.901,2.739 7.394,-15.893 z"
         style="fill:#5c2313;fill-opacity:1;fill-rule:nonzero;stroke:none"
         id="path2859"
         inkscape:connector-curvature="0" />
    </g>
    <g
       id="g2861"
       transform="matrix(0.35277777,0,0,-0.35277777,73.775247,165.54499)">
      <path
         d="M 0,0 7.395,-10.413 21.198,-24.114 13.803,11.51 0,12.058 Z"
         style="fill:#5c2313;fill-opacity:1;fill-rule:nonzero;stroke:none"
         id="path2863"
         inkscape:connector-curvature="0" />
    </g>
    <g
       id="g2865"
       transform="matrix(0.35277777,0,0,-0.35277777,86.29653,163.80481)">
      <path
         d="M 0,0 2.465,-30.692 9.367,4.385 Z"
         style="fill:#5c2313;fill-opacity:1;fill-rule:nonzero;stroke:none"
         id="path2867"
         inkscape:connector-curvature="0" />
    </g>
    <g
       id="g2869"
       transform="matrix(0.35277777,0,0,-0.35277777,82.470549,162.45127)">
      <path
         d="M 0,0 V -18.634 L -3.943,-6.029 Z"
         style="fill:#5c2313;fill-opacity:1;fill-rule:nonzero;stroke:none"
         id="path2871"
         inkscape:connector-curvature="0" />
    </g>
    <g
       id="g2873"
       transform="matrix(0.35277777,0,0,-0.35277777,113.9476,165.93143)">
      <path
         d="M 0,0 -3.451,-18.634 4.93,5.481 Z"
         style="fill:#5c2313;fill-opacity:1;fill-rule:nonzero;stroke:none"
         id="path2875"
         inkscape:connector-curvature="0" />
    </g>
    <g
       id="g2877"
       transform="matrix(0.35277777,0,0,-0.35277777,84.209708,178.11203)">
      <path
         d="m 0,0 -2.958,11.509 c 0,0 11.831,-12.057 12.817,-13.701 0.986,-1.645 4.929,8.221 4.929,8.221 l 16.762,-21.375 -0.489,-3.62 z"
         style="fill:#5c2313;fill-opacity:1;fill-rule:nonzero;stroke:none"
         id="path2879"
         inkscape:connector-curvature="0" />
    </g>
    <g
       id="g2881"
       transform="matrix(0.35277777,0,0,-0.35277777,73.775247,167.86461)">
      <path
         d="M 0,0 9.367,-10.962 0.986,-7.125 Z"
         style="fill:#662617;fill-opacity:1;fill-rule:nonzero;stroke:none"
         id="path2883"
         inkscape:connector-curvature="0" />
    </g>
    <g
       id="g2885"
       transform="matrix(0.35277777,0,0,-0.35277777,119.51271,161.48424)">
      <path
         d="m 0,0 c 0,0 5.423,-15.346 2.465,-24.115 6.902,6.577 15.281,14.249 16.761,19.73 C 8.381,-1.096 0,0 0,0"
         style="fill:#5c2313;fill-opacity:1;fill-rule:nonzero;stroke:none"
         id="path2887"
         inkscape:connector-curvature="0" />
    </g>
    <g
       id="g2889"
       transform="matrix(0.35277777,0,0,-0.35277777,70.352209,163.75055)">
      <path
         d="m 0,0 c -2.07,1.689 -3.237,5.755 -0.72,6.576 2.519,0.822 24.462,2.467 35.614,3.7 11.151,1.233 35.252,2.055 48.922,1.644 13.67,-0.411 59.715,-0.822 69.068,-4.933 9.353,-4.11 9.353,-4.521 7.194,-5.754 -2.159,-1.233 0.672,-1.52 -0.719,-4.522 -0.564,-1.216 -0.835,-3.243 -1.08,-2.466 -0.507,1.604 -3.218,4.946 -3.218,4.946 0,0 -2.897,0.398 -3.976,0.809 -1.079,0.411 -2.878,-0.822 -2.878,-0.822 l -2.159,1.644 -7.194,-0.411 c 0,0 -2.158,-2.467 -3.238,-1.644 -1.079,0.822 1.08,1.233 -1.079,0.822 -2.158,-0.411 -11.512,-11.921 -12.23,-10.688 -0.72,1.234 -0.36,3.7 -2.16,6.577 -1.797,2.878 -3.596,4.111 -6.115,4.933 C 111.515,1.233 102.162,1.233 99.644,0 97.127,-1.233 97.127,-3.289 96.407,-4.522 95.687,-5.755 92.808,-9.044 92.808,-9.044 l -5.754,-5.343 c -1.08,2.877 -2.158,6.988 -2.158,6.988 0,0 -0.72,-2.878 -2.16,-2.878 -1.438,0 -2.158,3.289 -3.237,4.111 -1.079,0.822 -3.956,4.11 -6.115,3.288 -2.159,-0.822 -7.913,2.056 -8.993,1.645 -1.08,-0.411 -2.309,-3.473 -3.597,-3.289 -2.878,0.411 -3.956,2.466 -3.956,2.466 0,0 -3.599,0.412 -5.398,0 -1.797,-0.411 -3.237,-4.932 -5.035,-4.522 -1.798,0.412 -2.158,2.878 -3.958,4.111 -1.798,1.234 -7.193,1.234 -7.913,0 -0.719,-1.233 -2.518,-3.699 -2.518,-3.699 -1.278,2.19 -1.08,3.699 -3.238,4.522 C 26.62,-0.822 22.303,0.822 21.224,0.822 20.145,0.822 14.03,0 12.951,0 11.871,0 10.072,-2.467 10.072,-2.467 8.274,-1.644 7.195,0.822 6.116,0.822 5.036,0.822 2.518,-2.056 0,0"
         style="fill:#5c2313;fill-opacity:1;fill-rule:nonzero;stroke:none"
         id="path2891"
         inkscape:connector-curvature="0" />
    </g>
    <g
       id="g2893"
       transform="matrix(0.35277777,0,0,-0.35277777,69.419888,162.98781)"
       style="fill:#379f49;fill-opacity:1">
      <path
         d="m 0,0 c -2.127,1.689 -3.327,5.755 -0.739,6.576 2.588,0.822 25.141,2.467 36.603,3.7 11.461,1.233 36.232,2.055 50.282,1.644 14.05,-0.411 61.373,-0.822 70.986,-4.932 9.613,-4.111 7.365,-3.217 7.395,-5.755 0.019,-1.549 -1.109,-1.233 -0.739,-4.522 0.369,-3.289 -0.74,-4.11 -1.11,-2.466 -0.37,1.644 -3.308,4.946 -3.308,4.946 0,0 -2.977,0.398 -4.086,0.809 -1.109,0.411 -2.958,-0.823 -2.958,-0.823 l -2.219,1.645 -7.393,-0.411 c 0,0 -2.219,-2.467 -3.329,-1.644 -1.109,0.822 1.11,1.233 -1.109,0.822 -2.217,-0.412 -11.83,-11.92 -12.57,-10.688 -0.74,1.234 -0.37,3.7 -2.219,6.577 -1.848,2.878 -3.697,4.111 -6.285,4.933 C 114.614,1.233 105.001,1.233 102.413,0 99.826,-1.233 99.826,-3.289 99.086,-4.522 98.347,-5.755 95.388,-9.044 95.388,-9.044 l -5.915,-5.343 c -1.109,2.877 -2.218,6.988 -2.218,6.988 0,0 -0.74,-2.877 -2.219,-2.877 -1.478,0 -2.218,3.288 -3.327,4.11 -1.11,0.822 -4.067,4.11 -6.286,3.288 -2.218,-0.822 -8.133,2.055 -9.242,1.645 -1.11,-0.411 -2.374,-3.473 -3.698,-3.289 -2.958,0.411 -4.066,2.466 -4.066,2.466 0,0 -3.698,0.412 -5.547,0 -1.848,-0.411 -3.327,-4.932 -5.175,-4.522 -1.849,0.412 -2.218,2.878 -4.068,4.111 -1.848,1.234 -7.393,1.234 -8.133,0 -0.74,-1.233 -2.589,-3.699 -2.589,-3.699 -1.312,2.19 -1.109,3.699 -3.328,4.522 C 27.36,-0.823 22.923,0.822 21.814,0.822 20.705,0.822 14.42,0 13.311,0 12.201,0 10.352,-2.467 10.352,-2.467 8.503,-1.644 7.395,0.822 6.286,0.822 5.176,0.822 2.588,-2.056 0,0"
         style="fill:#379f49;fill-opacity:1;fill-rule:nonzero;stroke:none"
         id="path2895"
         inkscape:connector-curvature="0" />
    </g>
    <g
       id="g2897"
       transform="matrix(0.35277777,0,0,-0.35277777,82.947892,109.98458)"
       style="fill:#257132;fill-opacity:1;stroke:none">
      <path
         d="m 0,0 c 0,0 -8.108,4.865 -13.11,-0.946 -12.093,3.628 -18.922,-1.913 -19.934,-9.336 -4.457,1.617 -6.688,-4.487 -6.688,-8.367 0,-4.054 -1.621,-8.92 -5.675,-10.541 -3.137,-1.255 -3.836,-5.42 -2.119,-9.495 -1.261,-3.028 -2.01,-6.092 -2.342,-8.75 -1.622,-9.73 -1.602,-7.728 0,-9.73 0.542,-0.678 1.06,-1.078 1.557,-1.28 -0.718,-2.188 -0.441,-4.226 1.686,-5.207 0,0 -0.406,-2.838 1.621,-3.243 0.812,-2.027 1.217,-3.649 2.839,-2.433 1.622,1.217 2.432,0 5.27,1.217 2.838,1.216 3.649,6.081 1.622,6.486 0,2.028 2.027,4.055 -1.216,5.271 -1.371,0.514 -1.654,1.896 -1.863,3.199 1.163,0.859 2.226,1.994 3.132,3.224 0.872,-0.526 1.844,-0.88 3.19,-0.207 3.243,1.622 1.622,4.865 3.784,5.947 2.163,1.081 2.163,1.081 5.947,3.243 3.783,2.162 5.405,2.703 3.783,5.946 -1.622,3.244 1.081,2.162 4.866,3.784 3.509,1.504 7.479,6.727 4.154,9.633 0.18,0.277 0.358,0.554 0.533,0.83 3.493,0.504 3.069,-3.661 4.502,-1.273 1.622,2.702 2.162,1.621 2.162,7.027 0,0.822 0.038,1.569 0.079,2.245 C 1.097,-10.297 4.054,-4.054 0,0"
         style="fill:#257132;fill-opacity:1;fill-rule:nonzero;stroke:none"
         id="path2899"
         inkscape:connector-curvature="0" />
    </g>
    <g
       id="g2901"
       transform="matrix(0.35277777,0,0,-0.35277777,108.13256,112.95472)">
      <path
         d="m 0,0 c -7.069,0 -12.799,-5.73 -12.799,-12.799 0,-7.069 5.73,-12.799 12.799,-12.799 7.069,0 12.799,5.73 12.799,12.799 C 12.799,-5.73 7.069,0 0,0"
         style="fill:#fbe8b5;fill-opacity:1;fill-rule:nonzero;stroke:none"
         id="path2903"
         inkscape:connector-curvature="0" />
    </g>
    <g
       id="g2905"
       transform="matrix(0.35277777,0,0,-0.35277777,106.36687,115.15771)">
      <path
         d="m 0,0 c 0.151,-0.386 -0.071,-0.421 -0.293,-0.455 -0.222,-0.034 -0.526,-0.128 -0.934,0.013 0,0 -0.503,-0.42 -0.679,-0.607 -0.175,-0.187 0.023,-0.724 -0.013,-0.934 -0.035,-0.21 -0.63,0.106 -0.735,0.34 -0.105,0.234 0.059,0.782 0.258,1.109 0.115,0.19 -0.067,0.477 -0.293,0.792 L -2.932,0.133 c -0.361,0.421 -0.221,0.829 -0.221,0.829 -0.2,0.413 0.633,1.191 1.16,1.822 0.201,0.241 0.614,0.186 0.969,0.126 0.21,-0.035 -0.69,-0.676 -0.796,-0.875 -0.105,-0.198 -0.328,-0.665 0.198,-0.537 0.526,0.127 0.913,1.143 1.157,0.886 0.246,-0.258 0,0 -0.011,-0.502 C -0.489,1.379 -0.01,1.659 0.341,1.6 0.691,1.541 1.076,1.26 1.076,1.26 L -0.128,0.37 C -0.089,0.246 -0.046,0.117 0,0"
         style="fill:#e5cf94;fill-opacity:1;fill-rule:nonzero;stroke:none"
         id="path2907"
         inkscape:connector-curvature="0" />
    </g>
    <g
       id="g2909"
       transform="matrix(0.35277777,0,0,-0.35277777,107.97497,116.10506)">
      <path
         d="m 0,0 c -0.374,0.046 -0.654,-0.563 -0.325,-0.984 0.329,-0.42 0.702,-0.231 1.31,-0.042 0.608,0.189 0.749,-0.091 1.264,-0.184 0.515,-0.092 1.217,-0.09 1.45,0.145 0.233,0.235 0.325,0.75 0.557,1.218 C 4.489,0.622 5.378,0.484 5.329,1.045 5.281,1.606 5.047,1.84 4.578,2.072 4.11,2.305 3.643,1.835 2.66,2.159 1.676,2.484 0.793,0.751 0.793,0.751 0.793,0.751 0.374,-0.046 0,0"
         style="fill:#e5cf94;fill-opacity:1;fill-rule:nonzero;stroke:none"
         id="path2911"
         inkscape:connector-curvature="0" />
    </g>
    <g
       id="g2913"
       transform="matrix(0.35277777,0,0,-0.35277777,104.20533,116.82727)">
      <path
         d="M 0,0 C -0.215,0.54 -0.324,0.971 -0.647,0.863 -0.97,0.756 -1.078,0.432 -1.078,0 c 0,-0.431 0.323,-0.97 0.323,-1.402 0,-0.431 0.647,-0.539 1.187,-0.647 0.539,-0.108 0.862,-0.539 0.755,-0.862 -0.108,-0.324 0.646,-1.187 1.402,-0.863 0.755,0.323 0.323,1.725 0.431,2.049 0.108,0.323 0.754,1.402 0.971,1.725 0.215,0.324 0,1.51 -1.079,1.618 C 1.833,1.726 1.726,1.403 1.402,1.186 1.079,0.971 0.216,-0.215 0.863,-0.323 0.863,-0.323 0.216,-0.539 0,0"
         style="fill:#e5cf94;fill-opacity:1;fill-rule:nonzero;stroke:none"
         id="path2915"
         inkscape:connector-curvature="0" />
    </g>
    <g
       id="g2917"
       transform="matrix(0.35277777,0,0,-0.35277777,111.00223,117.0057)">
      <path
         d="M 0,0 C -0.426,0.284 0.142,0.781 0.569,0.355 0.995,-0.071 1.421,0.142 1.706,0.213 1.99,0.284 1.848,-0.498 1.635,-0.853 1.421,-1.208 1.35,-1.989 1.137,-1.989 c -0.213,0 -0.497,0.426 -1.066,0.497 -0.568,0.071 -0.57,0.911 -0.213,0.852 C 0.285,-0.71 0.427,-0.284 0,0"
         style="fill:#e5cf94;fill-opacity:1;fill-rule:nonzero;stroke:none"
         id="path2919"
         inkscape:connector-curvature="0" />
    </g>
    <g
       id="g2921"
       transform="matrix(0.35277777,0,0,-0.35277777,110.24929,114.22447)">
      <path
         d="m 0,0 c -0.772,0.11 0.221,-0.662 0.552,-1.435 0.331,-0.772 0.11,-1.214 1.876,-0.994 0.329,0.042 0.883,-0.22 0.773,0.332 C 3.09,-1.545 1.771,0.007 0.994,0.552 -0.11,1.324 0.773,-0.111 0,0"
         style="fill:#e5cf94;fill-opacity:1;fill-rule:nonzero;stroke:none"
         id="path2923"
         inkscape:connector-curvature="0" />
    </g>
    <g
       id="g2925"
       transform="matrix(0.35277777,0,0,-0.35277777,104.448,118.58526)">
      <path
         d="m 0,0 c 0.331,-0.221 0.441,-0.773 0.441,-0.773 0,0 0.663,0.441 1.435,1.325 0.488,0.557 0.441,-1.325 0.662,-1.656 0.221,-0.331 1.214,-1.104 1.656,-1.214 0.441,-0.11 0.662,-0.221 0.662,-0.772 0,-0.552 -0.883,-1.546 -0.552,-1.987 0.331,-0.441 0.883,-1.325 -0.221,-1.104 -1.104,0.221 -2.207,1.876 -2.869,2.317 -0.663,0.442 -1.766,1.75 -1.766,3.201 0,0.552 0.22,0.883 0.552,0.663"
         style="fill:#e5cf94;fill-opacity:1;fill-rule:nonzero;stroke:none"
         id="path2927"
         inkscape:connector-curvature="0" />
    </g>
    <g
       id="g2929"
       transform="matrix(0.35277777,0,0,-0.35277777,110.588,120.15495)">
      <path
         d="m 0,0 c 0.257,-0.695 -0.742,-0.697 -0.778,-1.025 -0.036,-0.329 0.026,-0.78 -0.339,-1.074 -0.365,-0.293 -0.218,-0.975 0.477,-0.718 0.694,0.257 1.071,0.66 1.546,0.942 0.475,0.281 0.558,1.049 0.716,1.476 C 1.78,0.027 2.608,0.492 3.338,1.079 4.068,1.666 3.687,3.261 3.189,2.761 2.69,2.26 1.874,1.905 0.934,2.452 -0.005,2.999 0.87,3.902 0.054,3.547 -0.761,3.192 -1.091,3.228 -1.699,2.739 -2.308,2.25 -1.572,-0.161 -0.963,0.327 -0.598,0.621 -0.257,0.694 0,0"
         style="fill:#e5cf94;fill-opacity:1;fill-rule:nonzero;stroke:none"
         id="path2931"
         inkscape:connector-curvature="0" />
    </g>
    <g
       id="g2933"
       transform="matrix(0.35277777,0,0,-0.35277777,109.12005,117.61188)">
      <path
         d="M 0,0 C 0.552,0.221 0.441,0.993 0.994,1.324 1.545,1.655 2.207,1.214 2.428,0.441 2.649,-0.331 2.097,-1.546 2.318,-2.097 2.539,-2.649 2.76,-3.422 1.877,-3.091 0.994,-2.759 0.994,-2.207 0,-2.318 c -0.993,-0.11 -1.766,0.662 -1.766,0.662 0,0 -0.36,1.331 0.662,2.207 C -0.331,1.214 -0.552,-0.221 0,0"
         style="fill:#e5cf94;fill-opacity:1;fill-rule:nonzero;stroke:none"
         id="path2935"
         inkscape:connector-curvature="0" />
    </g>
    <g
       id="g2937"
       transform="matrix(0.35277777,0,0,-0.35277777,107.05673,113.67929)">
      <path
         d="m 0,0 c 0.551,0 2.096,0.331 2.428,0.331 0.331,0 0.441,-0.552 -0.111,-0.993 -0.551,-0.442 -0.441,-0.331 -1.103,-0.883 -0.663,-0.552 0.662,-0.773 1.324,-0.552 0.662,0.22 1.656,0.993 1.656,0.993 0,0 1.103,0.111 1.103,-0.773 0,-0.882 0.552,-1.214 1.104,-0.993 0.552,0.221 0.993,1.435 0.993,1.435 0,0 1.214,0.331 0.331,1.324 C 6.843,0.883 3.751,1.545 1.876,1.214 0,0.883 -0.552,0 0,0"
         style="fill:#e5cf94;fill-opacity:1;fill-rule:nonzero;stroke:none"
         id="path2939"
         inkscape:connector-curvature="0" />
    </g>
    <g
       id="g2941"
       transform="matrix(0.35277777,0,0,-0.35277777,106.97072,120.59832)">
      <path
         d="m 0,0 c 0.599,-0.5 0.99,-1.128 0.99,-1.128 0,0 0.833,0.053 1.058,0.539 0.226,0.487 0.37,-0.409 0.921,-0.524 0.549,-0.115 1.448,0.075 1.847,0.555 0.4,0.48 1.019,0.979 1.019,0.979 0,0 0.3,-0.859 1,-1.238 0.7,-0.379 0.15,-0.429 0.73,-0.709 C 8.144,-1.805 6.666,-2.605 5.796,-2.796 4.928,-2.986 2.639,-3.417 1.58,-2.737 0.521,-2.058 0.197,-1.44 -0.819,-0.74 -1.529,-0.25 -0.599,0.5 0,0"
         style="fill:#e5cf94;fill-opacity:1;fill-rule:nonzero;stroke:none"
         id="path2943"
         inkscape:connector-curvature="0" />
    </g>
    <g
       id="g2945"
       transform="matrix(0.35277777,0,0,-0.35277777,105.91129,117.12607)">
      <path
         d="M 0,0 C -0.689,-0.316 -0.05,-1.748 0.16,-1.96 0.369,-2.172 1.613,-2.674 1.613,-2.674 L 1.368,-4.059 c 0,0 1.31,-1.627 1.51,-1.629 0.201,-0.001 1.211,-1.158 1.278,-1.35 0.068,-0.193 1.094,-0.263 1.568,-0.095 0.475,0.168 0.876,0.165 1.201,0.568 0.325,0.403 -0.428,0.642 -0.428,0.642 0,0 -0.824,0.069 -1.025,0.07 -0.2,0.002 -0.559,0.452 -0.559,0.452 0,0 -0.049,0.703 0.481,1.468 0.531,0.764 0.293,0.68 0.285,0.893 -0.009,0.214 -0.145,0.598 -0.396,0.365 -0.251,-0.233 -0.515,0.323 -0.701,0.473 -0.187,0.151 -0.077,0.406 0.07,0.746 0.147,0.34 -0.226,0.64 -0.724,0.537 C 3.431,-1.022 2.306,-0.482 2.102,0.094 1.898,0.67 4.384,1.189 2.696,2.756 2.35,3.076 1.639,3.103 0.99,2.296 0.99,2.296 0.689,0.315 0,0"
         style="fill:#e5cf94;fill-opacity:1;fill-rule:nonzero;stroke:none"
         id="path2947"
         inkscape:connector-curvature="0" />
    </g>
    <g
       id="g2949"
       transform="matrix(0.35277777,0,0,-0.35277777,107.48493,115.19786)">
      <path
         d="M 0,0 C -0.441,-0.11 -0.358,-1.461 0.111,-0.993 0.442,-0.662 0.442,0.11 0,0"
         style="fill:#e5cf94;fill-opacity:1;fill-rule:nonzero;stroke:none"
         id="path2951"
         inkscape:connector-curvature="0" />
    </g>
    <path
       style="opacity:1;vector-effect:none;fill:none;fill-opacity:1;stroke:none;stroke-width:0.26458332;stroke-linecap:butt;stroke-linejoin:miter;stroke-miterlimit:4;stroke-dasharray:none;stroke-dashoffset:0;stroke-opacity:1"
       d="m 83.553752,145.49377 c 5.156123,-0.4917 10.572467,-0.75371 16.159087,-0.75371 9.315921,0 18.158351,0.72858 26.110231,2.03584"
       id="path10362"
       inkscape:connector-curvature="0"
       sodipodi:nodetypes="csc" />
    <g
       id="g10874">
      <g
         transform="matrix(0.91278296,0,0,0.91278296,-35.679234,-16.599575)"
         id="g10236">
        <g
           id="g7830"
           transform="matrix(0.35277777,0,0,-0.35277777,172.16854,211.17955)">
          <path
             d="m 0,0 c 24.411,-2.835 38.939,-6.371 42.799,-7.595 l -13.63,-13.686 c 0,0 6.112,-21.136 5.312,-20.961 -8.102,1.768 -22.033,6.068 -40.238,7.995 z"
             style="fill:#eda629;fill-opacity:1;fill-rule:nonzero;stroke:none"
             id="path7832"
             inkscape:connector-curvature="0" />
        </g>
        <g
           id="g7834"
           transform="matrix(0.35277777,0,0,-0.35277777,177.7836,220.30348)">
          <path
             d="m 0,0 -21.674,-8.384 4.771,32.234 z"
             style="fill:#f29600;fill-opacity:1;fill-rule:nonzero;stroke:none"
             id="path7836"
             inkscape:connector-curvature="0" />
        </g>
        <g
           id="g7838"
           transform="matrix(0.35277777,0,0,-0.35277777,121.44696,211.17955)">
          <path
             d="m 0,0 c -24.411,-2.835 -38.939,-6.371 -42.799,-7.595 l 13.63,-13.686 c 0,0 -6.112,-21.136 -5.312,-20.961 8.102,1.768 22.033,6.068 40.238,7.995 z"
             style="fill:#f7b52c;fill-opacity:1;fill-rule:nonzero;stroke:none"
             id="path7840"
             inkscape:connector-curvature="0" />
        </g>
        <g
           id="g7842"
           transform="matrix(0.35277777,0,0,-0.35277777,115.8318,220.30348)">
          <path
             d="M 0,0 21.674,-8.384 16.903,23.85 Z"
             style="fill:#f29600;fill-opacity:1;fill-rule:nonzero;stroke:none"
             id="path7844"
             inkscape:connector-curvature="0" />
        </g>
        <g
           id="g7878"
           transform="matrix(0.35277777,0,0,-0.35277777,114.0187,207.80583)">
          <path
             d="m 0,0 5.139,-35.426 c 14.902,3.541 44.655,8.663 87.806,8.663 l 6.307,19.18 -6.307,17.556 C 44.078,9.973 12.391,3.404 0,0"
             style="fill:#ffbd48;fill-opacity:1;fill-rule:nonzero;stroke:none"
             id="path7880"
             inkscape:connector-curvature="0" />
        </g>
        <g
           id="g7882"
           transform="matrix(0.35277777,0,0,-0.35277777,179.5967,207.80583)">
          <path
             d="m 0,0 -5.139,-35.426 c -14.902,3.541 -44.655,8.663 -87.806,8.663 V 9.973 C -44.077,9.973 -12.391,3.404 0,0"
             style="fill:#f7b52c;fill-opacity:1;fill-rule:nonzero;stroke:none"
             id="path7884"
             inkscape:connector-curvature="0" />
        </g>
      </g>
      <path
         id="path10826"
         transform="matrix(0.26458333,0,0,0.26458333,61.393795,107.3199)"
         d="m 82.25,242.13086 c -0.348712,-0.004 -0.702038,0.0204 -1.054688,0.0723 -1.244961,0.18067 -2.489554,0.70109 -3.566406,1.45704 -3.060011,2.14832 -5.995522,5.85434 -8.683594,11.74609 -2.69393,5.90464 -3.823248,12.54457 -8.048828,17.47266 -0.185572,0.21639 -0.219375,0.47792 -0.152343,0.70703 a 0.6855685,0.6855685 0 0 0 0.83789,0.77148 c 9.273239,-1.35602 18.872379,-2.48477 28.736328,-3.37304 -0.01983,0.0222 -0.04323,0.0417 -0.0625,0.0645 -0.110614,0.14969 -0.2209,0.30755 -0.330078,0.47461 -0.09318,0.14831 -0.185602,0.30516 -0.277343,0.4707 -0.09174,0.16572 -0.172733,0.34782 -0.244141,0.54688 0.09405,0.50169 0.316856,0.87113 0.669922,1.10546 0.371951,0.25031 0.764947,0.42858 1.177734,0.53516 0.466568,0.11969 0.989217,0.16475 1.566406,0.13477 0.994485,-0.082 1.853275,-0.31952 2.576172,-0.71289 0.722898,-0.39333 1.331851,-0.88333 1.828125,-1.46875 0.477775,-0.54582 0.858332,-1.15184 1.160156,-1.80469 7.121698,-0.53778 14.365618,-0.95286 21.726568,-1.23242 -0.11559,0.51879 -0.22567,0.99269 -0.34961,1.57812 -0.2089,0.90195 -0.44674,1.96394 -0.71289,3.1836 -0.24867,1.21894 -0.5437,2.57108 -0.88672,4.05664 0.0777,0.18953 0.17012,0.33476 0.27929,0.43554 0.10991,0.11818 0.21175,0.21883 0.30274,0.30274 0.1085,0.0832 0.22435,0.15739 0.34961,0.22265 0.3205,0.12725 0.61943,0.14975 0.89648,0.0684 0.29453,-0.082 0.47706,-0.34238 0.54688,-0.7832 0.26034,-1.79759 0.50243,-3.39395 0.72656,-4.78711 0.24162,-1.39386 0.44878,-2.58425 0.61914,-3.57227 0.0524,-0.29627 0.0958,-0.50703 0.14648,-0.78515 6.94663,-0.24137 13.98634,-0.36719 21.10938,-0.36719 3.5116,0 7.00011,0.0363 10.4707,0.0957 -0.0431,0.17299 -0.10158,0.41334 -0.13867,0.56055 -0.28425,1.08006 -0.45648,1.74242 -0.51367,1.98633 -0.0756,0.2787 -0.0701,0.46354 0.0156,0.55273 0.10293,0.10533 0.36508,0.1618 0.78516,0.17188 0.19255,0.004 0.40232,-0.0183 0.63086,-0.0664 0.19333,-0.0312 0.41348,-0.0873 0.66016,-0.16992 0.24642,-0.0653 0.51211,-0.16453 0.79492,-0.29883 0.0413,-0.31435 0.0904,-0.6648 0.15039,-1.04883 0.0602,-0.384 0.12091,-0.78407 0.18164,-1.20312 0.0257,-0.13767 0.0524,-0.28231 0.0781,-0.42188 8.15368,0.1752 16.19077,0.50356 24.07617,0.99414 -0.14832,0.45112 -0.28345,0.84973 -0.44335,1.35157 -0.29778,0.87665 -0.6409,1.90868 -1.02735,3.0957 -0.36896,1.18808 -0.79768,2.50328 -1.28711,3.94727 0.0585,0.19638 0.13586,0.35177 0.23438,0.46289 0.0975,0.1285 0.18739,0.23735 0.26953,0.33007 0.0995,0.0935 0.20995,0.17876 0.32812,0.25586 0.30625,0.15849 0.60103,0.21137 0.88477,0.15821 0.30128,-0.0522 0.50771,-0.29294 0.62109,-0.72461 0.43828,-1.76267 0.8393,-3.32558 1.20118,-4.68946 0.37938,-1.36282 0.70268,-2.52799 0.9707,-3.49414 0.0612,-0.21686 0.10875,-0.36738 0.16797,-0.57421 12.19139,0.79929 24.03261,1.96087 35.41797,3.46093 a 0.6855685,0.6855685 0 1 0 0.17578,-1.35937 c -2.42777,-0.31987 -4.88616,-0.61499 -7.35352,-0.9043 0.25533,-0.0486 0.51407,-0.10794 0.77734,-0.19336 0.8222,-0.25912 1.63013,-0.62583 2.42383,-1.09961 0.81308,-0.48922 1.59016,-1.05319 2.33203,-1.6914 0.74387,-0.65563 1.42067,-1.33678 2.0293,-2.04297 h -0.002 c 0.14412,-0.17762 0.22511,-0.33553 0.24023,-0.47461 0.0179,-0.15622 -0.0146,-0.26589 -0.0957,-0.32813 -0.0617,-0.0761 -0.16352,-0.10553 -0.30664,-0.0879 -0.12369,0.004 -0.255,0.0679 -0.39258,0.19336 -0.39526,0.378 -0.89568,0.82498 -1.5,1.33789 -0.58693,0.51485 -1.22279,1.00638 -1.91016,1.47461 -0.66796,0.45279 -1.34618,0.83288 -2.0332,1.14258 -0.68503,0.29228 -1.32264,0.40491 -1.91406,0.33789 -0.27833,-0.0312 -0.55381,-0.0979 -0.82422,-0.19922 -0.25111,-0.11638 -0.47118,-0.27291 -0.66016,-0.4707 -0.18706,-0.21501 -0.33192,-0.47758 -0.4375,-0.78906 -0.10582,-0.31151 -0.14332,-0.68621 -0.11132,-1.12305 0.28263,-0.16171 0.61083,-0.33673 0.98437,-0.52344 0.37548,-0.20392 0.76937,-0.41316 1.18164,-0.63086 0.37554,-0.20407 0.77127,-0.43322 1.1875,-0.68555 0.43361,-0.25033 0.84508,-0.53746 1.23438,-0.86328 0.38931,-0.32584 0.73056,-0.70231 1.02539,-1.12695 0.31216,-0.42268 0.52528,-0.90028 0.63867,-1.43359 0.0902,-0.48313 0.006,-0.90744 -0.25195,-1.27149 -0.25822,-0.36387 -0.71792,-0.58311 -1.37891,-0.6582 -0.69579,-0.0789 -1.41504,0.06 -2.16016,0.41601 -0.72771,0.35793 -1.40748,0.8357 -2.03906,1.4336 -0.6142,0.59983 -1.15939,1.27837 -1.63281,2.03516 -0.32006,0.52253 -0.56127,1.03444 -0.73047,1.53906 -0.4469,0.51335 -0.91669,1.01216 -1.41797,1.49218 -0.538,0.53345 -1.08709,0.98789 -1.64648,1.36133 -0.55935,0.3734 -1.05613,0.54145 -1.49219,0.50391 -0.55809,-0.0481 -0.70459,-0.49996 -0.4375,-1.35547 l 1.19531,-3.45508 c 0.14514,-0.46188 0.25537,-0.94446 0.33399,-1.44726 0.096,-0.50129 0.11194,-0.97487 0.0449,-1.41993 -0.0495,-0.44356 -0.19404,-0.81553 -0.43164,-1.11718 -0.2201,-0.30017 -0.56423,-0.47115 -1.03516,-0.51172 -0.40116,-0.0345 -0.81083,0.0264 -1.22851,0.18359 -0.41772,0.15723 -0.83094,0.36745 -1.24024,0.63086 -0.39184,0.26492 -0.78015,0.57415 -1.16211,0.92774 -0.36296,0.33768 -0.69906,0.67733 -1.00976,1.01953 0.0889,-0.41411 0.14113,-0.81404 0.15625,-1.19922 0.0171,-0.40267 -0.0231,-0.74752 -0.1211,-1.03711 -0.079,-0.30551 -0.21589,-0.55554 -0.41015,-0.74805 -0.17681,-0.19074 -0.41443,-0.29852 -0.71094,-0.32422 -0.38372,-0.0333 -0.78302,0.0203 -1.19922,0.16016 -0.39874,0.1413 -0.80359,0.34404 -1.21289,0.60742 -0.4093,0.26341 -0.82148,0.56933 -1.23828,0.91992 -0.39789,0.33469 -0.78094,0.6979 -1.14844,1.08789 0.18628,-0.52865 0.32619,-0.93009 0.41992,-1.20312 0.27465,-0.94277 0.13236,-1.4382 -0.42578,-1.48633 -0.12213,-0.0106 -0.27227,0.004 -0.45117,0.041 -0.14249,0.0229 -0.32968,0.0592 -0.5625,0.10937 -0.23274,0.0504 -0.50397,0.13221 -0.8125,0.2461 0.0239,0.12522 0.0203,0.28242 -0.0137,0.47265 -0.0151,0.17429 -0.0502,0.35595 -0.10157,0.54492 -0.0529,0.20627 -0.11373,0.42035 -0.18554,0.64258 l -2.23828,6.6875 c -0.12044,0.37629 -0.16274,0.66114 -0.12696,0.85742 0.0274,0.15041 0.0794,0.24907 0.14453,0.32032 -1.25043,-0.091 -2.49383,-0.18824 -3.75195,-0.27149 0.0953,-0.31982 0.20358,-0.71268 0.29297,-1.00195 0.27218,-1.03602 0.54703,-1.96574 0.82422,-2.79102 0.2947,-0.82421 0.56626,-1.55342 0.81445,-2.1875 0.24945,-0.65156 0.4662,-1.19955 0.65039,-1.64453 0.18419,-0.44497 0.31252,-0.8154 0.38282,-1.10937 0.1217,-0.57149 0.12806,-0.99232 0.0215,-1.26172 -0.0892,-0.26847 -0.36815,-0.4331 -0.83789,-0.4961 -0.19102,-0.0282 -0.38455,-0.0232 -0.58008,0.0176 -0.17693,0.0247 -0.38191,0.0826 -0.61523,0.17383 -0.21417,0.0746 -0.44103,0.19311 -0.67774,0.35352 0.2618,0.31372 0.36334,0.65267 0.30664,1.01757 -0.0569,0.36491 -0.16541,0.86657 -0.32617,1.50586 -0.10719,0.32681 -0.26913,0.69556 -0.48633,1.10352 -0.19976,0.40899 -0.43634,0.82382 -0.70703,1.24609 -0.2532,0.42334 -0.53223,0.8454 -0.83789,1.26563 -0.30458,0.40274 -0.61476,0.76186 -0.93164,1.07617 -0.29939,0.31541 -0.59461,0.56871 -0.88672,0.76172 -0.29122,0.17713 -0.55032,0.25926 -0.77734,0.24414 -0.47174,-0.0281 -0.76596,-0.25585 -0.88086,-0.68359 -0.11389,-0.44521 -0.0693,-1.05697 0.13476,-1.83399 0.028,-0.17371 0.12529,-0.45796 0.28907,-0.85156 0.16488,-0.41106 0.34889,-0.85509 0.55273,-1.33399 0.20384,-0.47889 0.39759,-0.94174 0.58203,-1.38671 0.18558,-0.46247 0.32273,-0.8399 0.41016,-1.13282 0.1731,-0.55088 0.22315,-0.9691 0.15234,-1.2539 -0.0532,-0.28377 -0.31359,-0.47425 -0.78125,-0.57227 -0.19122,-0.0302 -0.38291,-0.0408 -0.57617,-0.0332 -0.17686,0.0244 -0.38002,0.0646 -0.61133,0.12109 -0.21284,0.0398 -0.44714,0.13057 -0.70117,0.27344 0.22602,0.32915 0.27171,0.72582 0.13867,1.19141 -0.1156,0.46662 -0.29768,1.02616 -0.54687,1.67773 -0.0607,0.13667 -0.15262,0.36756 -0.27735,0.69336 -0.10582,0.30934 -0.2245,0.6629 -0.35351,1.05859 -0.0367,0.11278 -0.0681,0.23782 -0.10352,0.35352 -0.0975,0.10365 -0.18565,0.19751 -0.28906,0.30664 -0.25532,0.2527 -0.51824,0.50584 -0.79102,0.75781 -0.2727,0.252 -0.51743,0.4604 -0.73437,0.62695 -0.95695,0.71552 -1.67576,1.14267 -2.1543,1.28126 -0.46055,0.12182 -0.76401,0.04 -0.91015,-0.2461 -0.11364,-0.21478 -0.12001,-0.45992 -0.0215,-0.73633 0.0986,-0.27641 0.23485,-0.61367 0.4082,-1.00976 0.25023,-0.56822 0.46186,-1.06701 0.63672,-1.49805 0.19218,-0.43039 0.34787,-0.81839 0.4668,-1.16406 0.11969,-0.36319 0.21114,-0.693 0.27539,-0.98828 0.0804,-0.2946 0.12803,-0.58147 0.14063,-0.86133 0.0358,-0.45412 0.0153,-0.83196 -0.0606,-1.13281 -0.0748,-0.31852 -0.19717,-0.56833 -0.36524,-0.75 -0.14992,-0.19855 -0.33604,-0.3369 -0.56054,-0.41602 -0.20642,-0.0955 -0.43282,-0.14812 -0.67774,-0.1582 -0.47231,-0.0189 -0.92149,0.0685 -1.34961,0.26172 -0.42749,0.17574 -0.84095,0.41327 -1.23828,0.71289 -0.37911,0.28278 -0.73305,0.60023 -1.0625,0.95507 -0.32935,0.35485 -0.61408,0.70409 -0.85547,1.04493 0.44523,-1.50657 0.92017,-2.91517 1.42774,-4.22657 0.50824,-1.32885 0.97488,-2.69532 1.39844,-4.09765 0.1028,-0.38136 0.19614,-0.73683 0.27929,-1.06641 0.0438,-0.27852 0.0714,-0.5482 0.084,-0.81054 0.028,-0.26162 -0.008,-0.43954 -0.10938,-0.53126 -0.0317,-0.0887 -0.10877,-0.14333 -0.23047,-0.16601 -0.12087,-0.0403 -0.25248,-0.0633 -0.39258,-0.0684 -0.15748,-0.007 -0.33162,0.002 -0.52539,0.0293 -0.19378,0.0272 -0.38751,0.0645 -0.58203,0.10937 -0.15894,0.0287 -0.32702,0.0657 -0.5039,0.11133 -0.15957,0.0464 -0.31171,0.10952 -0.45508,0.19141 0.0436,0.247 0.0595,0.51903 0.0469,0.8164 -0.0118,0.29735 -0.0418,0.58674 -0.0879,0.86524 -0.0476,0.31347 -0.10441,0.63456 -0.16992,0.96484 -0.12372,0.46813 -0.34927,1.30813 -0.67773,2.52148 -0.28584,1.02237 -0.694,2.50423 -1.22657,4.44532 -0.53256,1.94111 -1.25827,4.51388 -2.17382,7.71875 0.0448,0.19427 0.11796,0.34767 0.21875,0.45703 0.0738,0.0932 0.14989,0.15597 0.22461,0.2207 -2.18291,-0.0716 -4.38678,-0.1178 -6.5879,-0.16601 0.053,-0.25188 0.10766,-0.51048 0.1543,-0.75 0.19417,-0.9592 0.38921,-1.9355 0.58399,-2.92969 0.1955,-1.02919 0.45444,-2.17939 0.77734,-3.45117 0.34074,-1.28897 0.6906,-2.57857 1.04883,-3.86719 0.37611,-1.30578 0.74185,-2.54095 1.09765,-3.70703 0.35626,-1.1836 0.65699,-2.17596 0.90039,-2.97656 l 1.41797,0.0273 c 0.42009,0.009 0.90113,0.0265 1.44336,0.0547 0.56008,0.0111 1.13765,0.0313 1.73243,0.0605 0.10607,-0.0504 0.19431,-0.1092 0.26562,-0.17773 0.0892,-0.0859 0.16067,-0.17334 0.21484,-0.25977 0.0736,-0.0862 0.11908,-0.18059 0.13672,-0.28515 0.0217,-0.10482 0.041,-0.20989 0.0586,-0.31446 0.037,-0.20931 0.0301,-0.38428 -0.0195,-0.52539 -0.55871,-0.0811 -1.12624,-0.14504 -1.70312,-0.1914 -0.55907,-0.0635 -1.06516,-0.11802 -1.51953,-0.16211 -0.54188,-0.0459 -1.06698,-0.0819 -1.57422,-0.10938 -0.0695,-0.0181 -0.15665,-0.0292 -0.26172,-0.0312 -0.0872,-0.0194 -0.20895,-0.0125 -0.36719,0.0195 -0.13994,-0.003 -0.27982,-0.005 -0.41992,-0.008 -0.13984,-0.0204 -0.28008,-0.0309 -0.41992,-0.0332 -0.64761,-0.0126 -1.32228,5.1e-4 -2.02344,0.0391 -0.61329,0.0229 -1.30662,0.0606 -2.07812,0.11524 -0.75402,0.0552 -1.53389,0.14556 -2.3418,0.26953 -0.15824,0.0317 -0.29135,0.0981 -0.39844,0.20117 -0.0892,0.0859 -0.16937,0.19931 -0.24218,0.33789 -0.0728,0.13863 -0.13768,0.28689 -0.19336,0.44336 -0.0378,0.1568 -0.0658,0.29576 -0.0859,0.41797 -0.0204,0.13971 -0.0329,0.28783 -0.0352,0.44531 -0.003,0.14012 0.0202,0.27107 0.0703,0.39453 0.0501,0.12372 0.12861,0.21315 0.23242,0.26758 0.10398,0.0532 0.26125,0.0482 0.47265,-0.0176 h 0.002 l 0.8457,-0.19336 c 0.36931,-0.0804 0.77361,-0.15941 1.21289,-0.23828 0.45715,-0.096 0.93989,-0.18436 1.44922,-0.26172 0.5093,-0.0773 1.02624,-0.14536 1.55273,-0.20508 l -1.90234,7.26368 c -0.43659,1.70728 -0.82653,3.2229 -1.16797,4.54687 -0.34096,1.30646 -0.63538,2.45606 -0.88281,3.44922 -0.22706,0.89659 -0.42205,1.63509 -0.59961,2.28125 -3.58372,-0.0633 -7.18315,-0.10352 -10.81055,-0.10352 h -0.002 c -0.97915,0 -1.94384,0.0207 -2.91992,0.0254 0.25008,-0.11575 0.52732,-0.28629 0.83789,-0.52539 0.5918,-0.44223 1.19283,-0.97239 1.80078,-1.58984 0.60781,-0.63496 1.17928,-1.28758 1.7168,-1.95703 0.53738,-0.68692 0.94441,-1.27526 1.2207,-1.76758 0.11981,-0.2112 0.17193,-0.39551 0.1543,-0.55273 -10e-4,-0.15748 -0.0546,-0.27251 -0.16016,-0.3418 -0.0881,-0.069 -0.21199,-0.0754 -0.36914,-0.0215 -0.13962,0.0537 -0.27731,0.16762 -0.41602,0.34374 -0.22499,0.33437 -0.5727,0.78381 -1.04101,1.34766 -0.46845,0.54634 -0.98114,1.0936 -1.53711,1.64063 -0.5386,0.52936 -1.0775,0.98761 -1.61719,1.37695 -0.52219,0.38959 -0.95848,0.58557 -1.30859,0.58789 -0.12254,10e-4 -0.23623,-0.0323 -0.3418,-0.10156 -0.10573,-0.0867 -0.20187,-0.23398 -0.29102,-0.44336 -0.0889,-0.17439 -0.11836,-0.42885 -0.0859,-0.76172 0.0324,-0.33288 0.0911,-0.68443 0.17578,-1.05273 0.10205,-0.38595 0.21247,-0.77016 0.33203,-1.15626 0.11941,-0.40357 0.22155,-0.76431 0.30664,-1.08007 0.0851,-0.3158 0.2135,-0.71943 0.38477,-1.21094 0.17113,-0.509 0.3344,-1.00071 0.48828,-1.47461 0.15388,-0.47388 0.28244,-0.88541 0.38476,-1.23633 0.1023,-0.35066 0.14459,-0.53509 0.12696,-0.55273 -0.0351,-0.0156 -0.16708,-0.0137 -0.39454,0.004 -0.21007,0.002 -0.4468,0.0296 -0.70898,0.084 -0.26232,0.0373 -0.51523,0.0903 -0.75977,0.16211 -0.24454,0.0718 -0.40939,0.16175 -0.49609,0.26758 -0.27702,0.35231 -0.52823,0.88675 -0.75,1.60546 -0.0183,0.0644 -0.033,0.1341 -0.0508,0.19922 -0.12736,0.11103 -0.21722,0.20765 -0.37305,0.33008 -0.34413,0.27041 -0.72453,0.54055 -1.13867,0.8125 -0.39703,0.25409 -0.81171,0.50093 -1.24414,0.73828 -0.43243,0.23738 -0.84709,0.43892 -1.24609,0.60547 0.0144,-0.14057 0.0279,-0.30724 0.041,-0.5 0.0129,-0.21059 0.017,-0.38555 0.0137,-0.52539 -0.0154,-0.68256 -0.14077,-1.25718 -0.3789,-1.72461 -0.23854,-0.48494 -0.52758,-0.88187 -0.86719,-1.18945 -0.32211,-0.30793 -0.6601,-0.53588 -1.01367,-0.68555 -0.33606,-0.14992 -0.61777,-0.23154 -0.84571,-0.24414 -0.0529,-0.0174 -0.10726,-0.0337 -0.16015,-0.0488 -0.0354,-0.0163 -0.0784,-0.0246 -0.13086,-0.0234 -0.31503,0.007 -0.63819,0.0593 -0.96875,0.1543 -0.33096,0.0774 -0.64351,0.19705 -0.9375,0.36133 -0.27688,0.14637 -0.52563,0.33579 -0.74805,0.56836 -0.20491,0.23226 -0.35676,0.49896 -0.45508,0.79883 -0.28966,0.35671 -0.54364,0.7467 -0.76171,1.17187 -0.20059,0.42477 -0.36748,0.85026 -0.49805,1.27344 -0.13057,0.42321 -0.22616,0.83613 -0.28711,1.24023 -0.0783,0.40451 -0.11278,0.77295 -0.10547,1.10547 0.0106,0.47257 0.0486,0.98011 0.11328,1.52149 0.0472,0.54175 0.17224,1.03756 0.375,1.48828 0.22025,0.45032 0.53413,0.81894 0.94336,1.10742 0.0408,0.0291 0.0894,0.05 0.13281,0.0762 -1.66397,0.0433 -3.33683,0.0741 -4.99023,0.13086 0.0504,-0.2598 0.10772,-0.58854 0.15625,-0.82812 0.16756,-1.05799 0.3475,-2.01252 0.54102,-2.86133 0.21101,-0.84949 0.40801,-1.60214 0.59179,-2.25781 0.1831,-0.67319 0.34336,-1.24002 0.48242,-1.70118 0.13909,-0.46112 0.22907,-0.84116 0.26953,-1.14062 0.0642,-0.58076 0.0295,-1.00035 -0.10351,-1.25781 -0.11554,-0.25895 -0.40912,-0.39504 -0.88281,-0.41016 -0.1931,-0.01 -0.38586,0.0159 -0.57618,0.0762 -0.17349,0.0421 -0.37058,0.12024 -0.59374,0.23438 -0.2064,0.0958 -0.42031,0.23573 -0.64063,0.41992 0.29187,0.28606 0.42836,0.61367 0.4082,0.98242 -0.0201,0.36873 -0.0794,0.87911 -0.17578,1.53125 -0.074,0.33588 -0.19757,0.71697 -0.37305,1.14453 -0.15799,0.42689 -0.35089,0.86336 -0.57812,1.31055 -0.20975,0.44646 -0.44676,0.89517 -0.70898,1.34375 -0.26294,0.43109 -0.53636,0.81774 -0.82032,1.16211 -0.26646,0.34361 -0.53523,0.62643 -0.80664,0.84766 -0.2721,0.20283 -0.52064,0.31023 -0.74804,0.32031 -0.47229,0.0191 -0.78844,-0.17959 -0.94532,-0.59375 -0.1576,-0.43165 -0.17255,-1.04439 -0.0469,-1.83789 0.0104,-0.17565 0.0774,-0.46707 0.20117,-0.875 0.12302,-0.42548 0.26283,-0.88598 0.41797,-1.38282 0.15517,-0.49683 0.30234,-0.97637 0.44141,-1.4375 0.13835,-0.47863 0.23499,-0.86777 0.29296,-1.16796 0.1174,-0.5654 0.12805,-0.98539 0.0293,-1.26172 -0.0813,-0.27707 -0.36083,-0.44129 -0.83594,-0.49219 -0.1931,-0.0101 -0.38445,-0.004 -0.57617,0.0215 -0.1735,0.0421 -0.37308,0.10253 -0.59765,0.18164 -0.20779,0.061 -0.43139,0.17645 -0.66993,0.34375 0.25762,0.30499 0.34371,0.69538 0.25782,1.17188 -0.0684,0.47582 -0.19388,1.04947 -0.37696,1.72266 -0.0468,0.14206 -0.11549,0.38217 -0.20703,0.71875 -0.0747,0.31836 -0.15737,0.68131 -0.24609,1.08789 -0.0382,0.17505 -0.0669,0.36546 -0.10157,0.54687 -0.26557,0.38825 -0.55307,0.79139 -0.86523,1.21484 -0.30808,0.42172 -0.60861,0.81535 -0.90234,1.1836 -0.29478,0.35069 -0.57573,0.64867 -0.8418,0.89258 -0.2671,0.22425 -0.48734,0.34287 -0.66211,0.35547 -0.20971,0.0123 -0.37834,-0.0214 -0.50586,-0.10157 -0.11109,-0.0988 -0.19798,-0.22495 -0.25976,-0.3789 -0.0618,-0.15426 -0.10688,-0.31858 -0.13477,-0.49219 -0.0113,-0.1923 -0.012,-0.36716 -0.004,-0.52539 0.0369,-0.26522 0.0674,-0.48718 0.0918,-0.66406 0.0246,-0.17699 0.0427,-0.32796 0.0527,-0.45118 0.0267,-0.14178 0.0446,-0.27302 0.0547,-0.39648 0.0266,-0.14176 0.0525,-0.29363 0.0781,-0.45312 0.12686,-0.81427 0.22807,-1.47721 0.30273,-1.99024 0.0747,-0.51303 0.12934,-0.92051 0.16406,-1.2207 0.0348,-0.30022 0.0493,-0.50261 0.043,-0.60742 -0.007,-0.12246 -0.0214,-0.20036 -0.041,-0.23438 -0.036,-0.0176 -0.1061,-0.0212 -0.21094,-0.0137 -0.0874,0.005 -0.21887,0.0209 -0.39258,0.0488 -0.15623,0.0267 -0.35416,0.0736 -0.5957,0.14062 0.33366,-0.58106 0.447,-1.0345 0.33984,-1.36133 -0.0907,-0.34527 -0.26447,-0.59951 -0.51953,-0.75976 -0.30853,-0.17436 -0.7007,-0.29015 -1.17773,-0.34961 -0.40402,-0.011 -0.9032,0.15877 -1.4961,0.50976 -0.59289,0.351 -1.18376,0.85881 -1.77539,1.5254 -0.59267,0.64909 -1.13532,1.42793 -1.625,2.33398 -0.47218,0.90499 -0.79735,1.89795 -0.97851,2.97852 -0.14539,0.79783 -0.17467,1.48308 -0.0879,2.05664 0.0857,0.55609 0.23512,1.01166 0.44921,1.36718 0.19107,0.30322 0.41779,0.51579 0.66993,0.66016 -1.659,0.10898 -3.31532,0.21934 -4.960941,0.3418 0.09434,-0.27116 0.186695,-0.54241 0.259766,-0.81446 0.205619,-0.70201 0.36155,-1.37459 0.466797,-2.01562 0.105222,-0.64103 0.193499,-1.17423 0.263672,-1.60156 0.266096,-1.67313 0.492576,-3.07915 0.679686,-4.21875 0.1871,-1.13966 0.34504,-2.08344 0.47656,-2.83204 0.12289,-0.85326 0.23365,-1.54908 0.33008,-2.08398 0.0993,-0.50003 0.21923,-1.07094 0.35938,-1.71484 0.11243,-0.55381 0.24114,-1.21493 0.38867,-1.98243 0.16497,-0.7689 0.35775,-1.62703 0.57812,-2.57617 -0.0944,-0.0794 -0.22096,-0.13162 -0.38086,-0.15429 -0.14246,-0.0217 -0.28478,-0.0354 -0.42578,-0.043 -0.17591,-0.003 -0.35041,0.011 -0.52343,0.043 -0.19047,0.0333 -0.37828,0.0921 -0.56446,0.17773 -0.15269,0.0653 -0.32111,0.15085 -0.50586,0.25391 -0.16872,0.0842 -0.32714,0.20107 -0.472653,0.35351 -0.103811,0.6585 -0.211589,1.37017 -0.324219,2.13477 -0.114091,0.74716 -0.214432,1.45039 -0.300781,2.10742 -0.112605,0.7646 -0.207399,1.52731 -0.285156,2.28906 -0.203306,1.3693 -0.487108,2.61331 -0.851563,3.73242 -0.348447,1.10022 -0.752756,2.05636 -1.21289,2.86719 -0.461569,0.79335 -0.954727,1.42196 -1.478516,1.88672 -0.525228,0.44729 -1.056798,0.69368 -1.597656,0.73828 -0.680434,0.0561 -1.211731,-0.1021 -1.59375,-0.47461 -0.364574,-0.37397 -0.561132,-1.04391 -0.587891,-2.00781 0.0051,-0.79085 0.104851,-1.80893 0.300781,-3.05469 0.157967,-1.06696 0.414765,-2.43091 0.769532,-4.09375 0.372215,-1.66428 0.90993,-3.67623 1.611328,-6.03515 -0.093,-0.061 -0.210561,-0.096 -0.351563,-0.10352 -0.142463,-0.0252 -0.284263,-0.0302 -0.423828,-0.0176 -0.174468,0.0144 -0.33855,0.0359 -0.494141,0.0664 -0.207937,0.0348 -0.406159,0.0863 -0.59375,0.15429 -0.1716,0.0491 -0.366321,0.12635 -0.585937,0.23243 -0.203623,0.0869 -0.40567,0.21021 -0.603516,0.36718 -0.494909,2.30673 -0.876074,4.26984 -1.146484,5.89063 -0.252961,1.61933 -0.433437,2.96081 -0.539063,4.02344 -0.126185,1.24001 -0.192226,2.25407 -0.197265,3.04492 0.01775,1.28081 0.320995,2.27532 0.90625,2.98242 0.602698,0.70551 1.487295,1.01032 2.65625,0.91406 0.785118,-0.0647 1.480858,-0.26281 2.085937,-0.59375 0.622531,-0.33234 1.151338,-0.72602 1.587891,-1.18359 0.454002,-0.45899 0.836374,-0.9396 1.146484,-1.43945 0.310105,-0.49983 0.562121,-0.95893 0.75586,-1.37891 -0.244332,1.72402 -0.538679,3.1619 -0.882813,4.31445 -0.232884,0.77998 -0.483354,1.44422 -0.75,2.00977 -9.223892,0.72014 -18.24174,1.63919 -26.988281,2.76562 4.89369,-2.06288 8.905864,-5.1481 11.935547,-8.48437 3.443138,-3.79155 5.826716,-9.28701 5.982422,-12.97266 0.155716,-3.68572 -0.913718,-6.18877 -2.673828,-7.3789 -0.872428,-0.58995 -1.883551,-0.86166 -2.929688,-0.87305 z m 0.363281,0.61523 c 0.755053,0.0315 1.492453,0.25255 2.177735,0.73047 1.381058,0.96269 2.555447,3.35699 2.28125,6.7168 -0.274205,3.35977 -1.986698,7.68098 -6.28125,12.41016 -3.763318,4.14413 -9.139875,7.72033 -15.923828,9.36718 4.659118,-3.37243 7.591918,-8.07957 9.943359,-12.7539 2.810483,-5.58698 5.424234,-10.93032 8.054687,-13.72071 0.655098,-0.69498 0.420695,-0.91364 -0.304687,-0.24414 -3.235249,2.98628 -5.470535,8.28575 -8.525391,13.62305 -2.64003,4.6125 -5.671744,9.15684 -10.318359,12.41797 2.641051,-5.00799 4.384428,-10.56257 6.34375,-15.44727 2.332339,-5.81457 5.243456,-9.60025 7.996094,-11.48242 1.165209,-0.79672 2.489241,-1.43811 3.796875,-1.58789 0.254245,-0.0292 0.508081,-0.0398 0.759765,-0.0293 z m 58.730469,7.14453 c -0.19229,0.0365 -0.41873,0.16089 -0.67969,0.37305 -0.26109,0.1946 -0.47764,0.4413 -0.65039,0.74024 -0.17295,0.28145 -0.24867,0.58745 -0.22851,0.91992 0.0199,0.31496 0.21419,0.61143 0.58398,0.88867 0.12337,0.10431 0.28233,0.1381 0.47461,0.10156 0.19227,-0.0363 0.37457,-0.10826 0.54883,-0.21484 0.19162,-0.12382 0.35741,-0.27284 0.49609,-0.44922 0.15607,-0.19376 0.25953,-0.38707 0.31055,-0.58008 v -0.002 c 0.0511,-0.17537 0.066,-0.37599 0.0469,-0.60352 -0.002,-0.22773 -0.038,-0.42915 -0.10937,-0.60351 -0.0715,-0.1919 -0.17749,-0.3393 -0.31836,-0.44336 -0.1235,-0.12145 -0.28233,-0.16349 -0.47461,-0.12696 z m -10.46875,8.1836 c 0.21003,-0.005 0.38692,0.0879 0.53125,0.27734 0.16146,0.17149 0.28863,0.40559 0.38281,0.70117 0.11132,0.27765 0.18761,0.5902 0.23047,0.93946 0.0429,0.34925 0.051,0.69011 0.0234,1.02343 0.003,0.13995 -0.0182,0.30819 -0.0664,0.50196 -0.0311,0.17572 -0.0717,0.37668 -0.11914,0.60547 -0.0871,0.0214 -0.17263,0.041 -0.25976,0.0586 -0.0875,0.003 -0.17617,0.006 -0.26368,0.008 -0.54255,0.0123 -0.97244,-0.0566 -1.29101,-0.20703 -0.30147,-0.16834 -0.52441,-0.37334 -0.66992,-0.61523 -0.14551,-0.24187 -0.23955,-0.51185 -0.28125,-0.8086 -0.0421,-0.31425 -0.066,-0.61058 -0.0723,-0.89062 -0.004,-0.17497 0.0174,-0.34126 0.0664,-0.5 v -0.002 c 0.25505,-0.33847 0.53062,-0.59959 0.82422,-0.78125 0.3107,-0.19931 0.6323,-0.30299 0.96484,-0.31055 z m -22.61523,0.74023 c 0.0668,-7.1e-4 0.12538,0.0183 0.17578,0.0547 0.0567,0.0668 0.0964,0.16005 0.12109,0.28125 0.0237,0.10386 0.0254,0.253 0.002,0.44727 -0.007,0.17577 -0.0722,0.40736 -0.19531,0.69531 0.1377,-0.0431 0.27528,-0.0776 0.41406,-0.10352 0.13876,-0.0257 0.25065,-0.0593 0.33594,-0.0996 0.10275,-0.0411 0.19685,-0.073 0.2832,-0.0957 0.0689,-0.0216 0.0855,0.11777 0.0508,0.41797 -0.0183,0.28167 -0.0578,0.64383 -0.11915,1.08594 -0.0614,0.44208 -0.13821,0.90369 -0.23242,1.38281 -0.0942,0.47912 -0.17564,0.89528 -0.24218,1.25 -0.0123,0.0884 -0.0826,0.23303 -0.21094,0.43359 -0.11089,0.19959 -0.26478,0.41858 -0.46094,0.65821 -0.1787,0.23841 -0.39295,0.47175 -0.64258,0.69726 -0.23216,0.22425 -0.47471,0.4129 -0.72851,0.56836 -0.23738,0.13682 -0.4771,0.22191 -0.72071,0.25391 -0.24466,0.0146 -0.46821,-0.0691 -0.67187,-0.25 -0.11109,-0.0986 -0.19525,-0.31263 -0.25,-0.64258 -0.0558,-0.34741 -0.0703,-0.74953 -0.0449,-1.20703 0.0428,-0.45851 0.12681,-0.94481 0.2539,-1.46094 0.12605,-0.53364 0.30791,-1.03589 0.54297,-1.50586 0.56352,-1.13842 1.06774,-1.92348 1.51563,-2.35351 0.34823,-0.33629 0.62376,-0.50567 0.82422,-0.50782 z m 61.49218,0.27735 c 0.4023,0.016 0.62167,0.22645 0.65821,0.63086 0.037,0.38692 -0.0255,0.85595 -0.1875,1.41015 -0.14463,0.55489 -0.34204,1.13507 -0.59375,1.73828 -0.2335,0.58641 -0.42071,1.09487 -0.56055,1.52735 -0.22012,0.69203 -0.34848,1.27448 -0.38477,1.74609 -0.0181,0.4548 0.12297,0.88985 0.42188,1.30469 0.12203,0.17191 0.24467,0.30333 0.36914,0.41406 -1.60883,-0.07 -3.22037,-0.13604 -4.83984,-0.19336 0.14081,-0.49784 0.28339,-1.06102 0.42968,-1.69531 0.16638,-0.65918 0.32217,-1.26543 0.4668,-1.82031 0.16625,-0.65918 0.33294,-1.32727 0.5,-2.00391 0.24199,-0.35832 0.51939,-0.72464 0.83203,-1.09766 0.31264,-0.37303 0.63233,-0.70145 0.95899,-0.98632 0.34484,-0.30171 0.67748,-0.54275 1,-0.72266 0.34,-0.18066 0.64982,-0.26455 0.92968,-0.25195 z m -32.26953,1.4707 c -0.0404,0.20754 -0.0856,0.4094 -0.12109,0.62305 -0.13395,0.78881 -0.22299,1.56917 -0.26953,2.33984 -0.0466,0.75313 -0.0422,1.34792 0.0137,1.78516 0.0198,0.29747 0.10981,0.58638 0.26953,0.86523 0.1596,0.26129 0.35284,0.49475 0.58203,0.70313 0.24418,0.18888 0.50536,0.33485 0.7832,0.4375 -2.723,0.0196 -5.43913,0.0481 -8.13671,0.10351 0.48923,-0.23651 0.92457,-0.5524 1.29882,-0.96094 0.41061,-0.42948 0.75842,-0.93724 1.04297,-1.52148 0.28455,-0.58424 0.5079,-1.2099 0.66797,-1.87891 v -0.002 c 0.52112,-0.18681 1.06703,-0.46118 1.63672,-0.82422 0.56969,-0.36298 1.09438,-0.73274 1.57617,-1.11133 0.25547,-0.20072 0.43982,-0.37351 0.65625,-0.55859 z m 56.49219,0.32812 c 0.20941,0.0179 0.36109,0.0933 0.45508,0.22461 0.11162,0.13262 0.15372,0.36393 0.125,0.69532 -0.0406,0.4709 -0.15824,1.02295 -0.35352,1.65625 -0.17633,0.61734 -0.37933,1.24274 -0.60937,1.87304 -0.22846,0.61287 -0.46256,1.18099 -0.70118,1.70508 -0.2212,0.52571 -0.37608,0.90642 -0.46679,1.14453 -0.18343,0.49358 -0.229,0.80623 -0.13477,0.9375 0.0761,0.12218 0.26153,0.18652 0.51172,0.2168 -1.81219,-0.15261 -3.63748,-0.29156 -5.4668,-0.42773 l 1.18555,-0.4043 c 0.0454,-0.11901 0.0838,-0.24669 0.11328,-0.38477 0.0292,-0.13795 0.0657,-0.26558 0.11133,-0.38476 0.0469,-0.13647 0.0938,-0.27359 0.14063,-0.41016 l -0.004,0.0527 c 0.43737,-1.40309 0.913,-2.53091 1.42578,-3.38282 0.53173,-0.8678 1.04586,-1.53525 1.54297,-2.00195 0.49711,-0.46687 0.93703,-0.77145 1.31836,-0.91406 0.38133,-0.14438 0.64966,-0.21043 0.80664,-0.19532 z m 17.85156,0.42579 h 0.002 c 0.19127,0.0217 0.32934,0.11684 0.41602,0.28515 0.0874,0.15101 0.0958,0.39025 0.0234,0.7168 -0.0703,0.30916 -0.27803,0.66507 -0.62305,1.06641 -0.34504,0.40131 -0.92327,0.84671 -1.73633,1.33593 -0.26522,0.16368 -0.52971,0.31845 -0.79297,0.46485 -0.26124,0.129 -0.5059,0.25979 -0.73242,0.39257 0.2046,-0.71674 0.46093,-1.34013 0.76758,-1.86914 0.30861,-0.54641 0.62357,-0.99458 0.94531,-1.3457 0.32368,-0.36858 0.63552,-0.64122 0.9375,-0.81836 0.31922,-0.17411 0.58409,-0.25119 0.79297,-0.22851 z m -12.13281,0.20117 c 0.29647,0.0256 0.49466,0.16523 0.5957,0.41992 0.10104,0.25474 0.0794,0.60441 -0.0644,1.04883 -0.11873,0.35878 -0.2591,0.76814 -0.42188,1.22851 -0.16264,0.46038 -0.32639,0.93833 -0.49218,1.4336 -0.16409,0.47783 -0.3095,0.94871 -0.4375,1.41211 -0.11037,0.46488 -0.1831,0.8798 -0.21485,1.24609 h 0.002 c -0.0315,0.36626 0.002,0.67693 0.10351,0.93164 0.10268,0.23713 0.24418,0.43362 0.42383,0.58984 0.0468,0.0374 0.0963,0.0651 0.14453,0.0977 -2.09106,-0.20101 -4.20299,-0.38354 -6.31836,-0.5625 0.11045,-0.008 0.22798,-0.0198 0.36524,-0.0371 0.30102,-0.027 0.62427,-0.11217 0.9707,-0.25781 0.39705,-1.54716 0.8655,-2.80683 1.40625,-3.7793 0.55972,-0.98839 1.10094,-1.76011 1.62305,-2.3125 0.541,-0.56849 1.02309,-0.95663 1.44531,-1.16601 0.43961,-0.20863 0.72955,-0.30557 0.86914,-0.29297 z m -71.86328,0.22461 c 0.27629,0.60666 0.65708,1.10613 1.13867,1.49804 0.4987,0.3742 1.07907,0.55418 1.74414,0.53907 0.14004,-0.003 0.26219,-0.006 0.36719,-0.008 0.12213,-0.0204 0.24508,-0.0404 0.36719,-0.0605 -0.11504,0.33529 -0.2559,0.66343 -0.42383,0.98242 -0.15085,0.3011 -0.32871,0.57647 -0.53321,0.82617 -0.2049,0.23214 -0.43632,0.42827 -0.69531,0.5918 -0.25938,0.14538 -0.54825,0.22291 -0.86328,0.23047 -0.28003,0.006 -0.50738,-0.0592 -0.68555,-0.19532 -0.17854,-0.15349 -0.32345,-0.3431 -0.43359,-0.56836 -0.11051,-0.24267 -0.18681,-0.51185 -0.22852,-0.80859 -0.0421,-0.31423 -0.0672,-0.62832 -0.0742,-0.94336 v -0.002 c -0.007,-0.31504 0.0199,-0.64645 0.082,-0.99805 0.0621,-0.35162 0.14152,-0.71409 0.23828,-1.08398 z m 47.43359,3.21679 c -0.0121,0.0832 -0.0422,0.18168 -0.0508,0.26172 -0.10769,0.92306 0.0132,1.6836 0.36328,2.28321 0.1714,0.28003 0.41197,0.50897 0.70703,0.69726 -1.71699,-0.0947 -3.43016,-0.19134 -5.16015,-0.27148 0.1207,-0.0501 0.23057,-0.083 0.36133,-0.15039 0.48272,-0.24363 0.98457,-0.55529 1.50781,-0.9375 0.52324,-0.38219 1.03903,-0.79119 1.54687,-1.22657 0.25846,-0.21385 0.48292,-0.43748 0.72461,-0.65625 z m -60.73437,0.48438 c 0.0163,0.83097 0.20551,1.51303 0.58203,2.03125 0.13398,0.17658 0.30239,0.31986 0.48828,0.44922 -1.13673,0.0519 -2.28287,0.0922 -3.41406,0.15039 0.086,-0.0451 0.18653,-0.0814 0.26172,-0.13281 0.25171,-0.19039 0.5585,-0.50692 0.91796,-0.94922 0.37591,-0.46083 0.74936,-0.95561 1.1211,-1.48633 0.015,-0.0212 0.028,-0.0413 0.043,-0.0625 z m 6.26562,0.25 c -0.0734,0.35339 -0.14611,0.71509 -0.21875,1.08594 -0.0479,0.30257 -0.10574,0.61569 -0.16601,0.93164 -0.42553,0.016 -0.84474,0.0398 -1.26954,0.0566 0.0428,-0.033 0.0891,-0.0585 0.13086,-0.0937 0.30498,-0.25756 0.58111,-0.55744 0.83008,-0.90039 0.24899,-0.34293 0.4808,-0.70356 0.69336,-1.08008 z m -11.73633,0.10742 c 0.0106,0.4729 0.0598,0.86345 0.14844,1.17383 0.10611,0.30916 0.20975,0.55888 0.30859,0.74609 0.11179,0.2087 0.2455,0.36428 0.39844,0.47657 -1.1999,0.0664 -2.38477,0.14924 -3.57812,0.22265 0.0123,-0.005 0.0248,-0.008 0.0371,-0.0137 0.44394,-0.20183 0.90766,-0.50126 1.39257,-0.89844 0.48388,-0.41464 0.91521,-0.98302 1.29297,-1.70703 z m 72.35157,0.5 c -0.1081,0.34429 -0.21682,0.69684 -0.32618,1.0586 -0.0907,0.34534 -0.19142,0.69877 -0.30078,1.06054 -0.003,0.01 -0.008,0.0233 -0.0117,0.0332 -0.50157,-0.0315 -1.01091,-0.0537 -1.51367,-0.084 0.1497,-0.0739 0.29808,-0.15498 0.43946,-0.25195 0.32914,-0.22589 0.63408,-0.49608 0.91601,-0.8125 0.28203,-0.3164 0.54793,-0.65047 0.79688,-1.00391 z m 24.42382,1.04297 c 0.001,0.30576 0.0252,0.59568 0.084,0.86133 0.15708,0.63445 0.39686,1.16378 0.71875,1.58789 0.32189,0.42411 0.6903,0.74746 1.10547,0.9707 0.039,0.022 0.0747,0.0324 0.11328,0.0527 -1.98847,-0.22306 -3.99337,-0.43382 -6.00586,-0.63672 0.29018,-0.0805 0.58132,-0.18661 0.86914,-0.33789 0.71783,-0.37735 1.40014,-0.86287 2.04883,-1.45703 0.37198,-0.33098 0.7247,-0.68004 1.0664,-1.04102 z m -109.763668,3.17187 c -0.261054,0.34374 -0.531732,0.61892 -0.8125,0.80665 -0.448057,0.31795 -0.880099,0.49282 -1.298828,0.52734 -0.314048,0.026 -0.607135,-0.0108 -0.878906,-0.11133 -0.271773,-0.10061 -0.520909,-0.23749 -0.746094,-0.41211 -0.199109,-0.13973 -0.36756,-0.29849 -0.513672,-0.4707 1.406268,-0.12279 2.833115,-0.22698 4.25,-0.33985 z"
         style="font-style:normal;font-variant:normal;font-weight:normal;font-stretch:normal;font-size:7.76111126px;line-height:1.25;font-family:Satisfy;-inkscape-font-specification:'Satisfy, Normal';font-variant-ligatures:normal;font-variant-caps:normal;font-variant-numeric:normal;font-feature-settings:normal;text-align:start;letter-spacing:0px;word-spacing:0px;writing-mode:lr-tb;text-anchor:start;fill:#ffffff;fill-opacity:1;stroke:none;stroke-width:0.91668957"
         inkscape:connector-curvature="0" />
    </g>
    <g
       id="g11031">
      <path
         d="m 75.03418,141.29404 q -0.771702,0.71658 -2.687175,1.91547 -0.137804,0.0965 -0.04134,0.16537 0.124023,0.0551 0.316949,0 1.309136,-0.39963 2.411567,-1.14377 1.10243,-0.66146 1.83279,-1.59853 0.04134,0.11025 0.05512,0.30317 0.0689,0.79926 0.01378,2.02572 -0.02756,1.17133 -0.151584,1.80523 -0.01378,0.31695 -0.0689,0.49609 -0.02756,0.17915 0.01378,0.38585 0.110243,0.55122 0.37207,0.95085 0.192925,0.2756 0.289388,0.35829 0.192925,0.0138 0.261827,-0.19293 0.192925,-0.48231 0.124024,-0.93706 -0.05512,-1.81901 -0.05512,-3.33486 0.02756,-1.18511 0.08268,-1.62608 0.04134,-0.19293 -0.0689,-0.27561 -0.275607,-0.24805 -0.523654,-0.37207 0.702799,-0.89572 1.405599,-2.25998 0.289388,-0.52366 0.633897,-0.97841 0.151585,-0.15158 0.0689,-0.31695 -0.0689,-0.19292 -0.551215,-0.52365 -0.34451,-0.24805 -0.509874,-0.23427 -0.220486,0.0276 -0.220486,0.30317 -0.01378,1.00597 -0.537435,2.0395 -0.385851,0.81304 -1.07487,1.63986 -0.592556,0.7717 -1.391818,1.4056 z"
         style="font-style:normal;font-variant:normal;font-weight:normal;font-stretch:normal;font-size:14.11111069px;line-height:1.25;font-family:'Arphic PKaisho Medium JIS2004';-inkscape-font-specification:'Arphic PKaisho Medium JIS2004, Normal';font-variant-ligatures:normal;font-variant-caps:normal;font-variant-numeric:normal;font-feature-settings:normal;text-align:start;letter-spacing:0px;word-spacing:0px;writing-mode:lr-tb;text-anchor:start;fill:#f8f5ec;fill-opacity:1;stroke:none;stroke-width:0.26458332"
         id="path11016"
         inkscape:connector-curvature="0" />
      <path
         d="m 83.605577,143.55402 q 1.116211,-0.9784 2.549371,-3.10058 -0.01378,0.71658 -0.04134,1.57096 -0.09646,3.5829 -0.248047,3.66558 -0.09646,0.13781 -0.399631,0.0551 -0.482313,-0.15158 -1.336697,-0.62011 -0.05512,-0.0413 -0.09646,0 -0.01378,0.0276 0.04134,0.0965 0.785482,0.67524 1.405599,1.03353 0.537435,0.26182 0.813043,0.50987 0.110243,0.22049 0.303168,0.20671 0.124024,-0.0276 0.206706,-0.19293 0.110243,-0.2067 0.151584,-0.48231 0.02756,-0.39963 -0.02756,-1.00597 -0.01378,-4.01009 0.01378,-6.10471 1.309136,-0.11024 2.962782,0.0965 0.482313,0.0551 0.606337,-0.0138 0.110243,-0.11024 0.08268,-0.28938 -0.01378,-0.19293 -0.413412,-0.52366 -0.440972,-0.44097 -0.826823,-0.19292 -0.179144,0.11024 -0.799262,0.11024 -0.840603,-0.0276 -1.612304,0.0276 0.02756,-1.44694 0.08268,-1.55718 0.110243,-0.24805 0.110243,-0.35829 0,-0.11025 -0.234266,-0.38585 -0.275608,-0.35829 -0.537435,-0.4272 -0.261828,-0.0827 -0.413412,-0.0827 -0.303168,0 -0.303168,0.13781 0.02756,0.0689 0.110243,0.23426 0.289388,0.38585 0.385851,1.83279 0.02756,0.30317 0.01378,0.66146 -0.110243,-0.0276 -0.234267,0.0138 -1.502061,0.17915 -2.673394,0.48232 -0.799262,0.15158 -1.254014,0.15158 -0.385851,0.0138 -0.606337,-0.0551 -0.179145,-0.0689 -0.220486,0.0551 -0.01378,0.1378 0.261827,0.42719 0.482313,0.46853 0.909505,0.57878 0.275608,0.0551 0.689019,-0.0551 1.736328,-0.565 2.976563,-0.74414 -0.179145,0.22048 -0.372071,0.56499 -0.799262,1.25402 -2.067057,2.65961 -1.019748,1.17134 -2.411567,2.28755 -0.09646,0.0689 -0.08268,0.1378 0.02756,0.0551 0.220486,-0.0138 1.309137,-0.52365 2.315104,-1.39182 z"
         style="font-style:normal;font-variant:normal;font-weight:normal;font-stretch:normal;font-size:14.11111069px;line-height:1.25;font-family:'Arphic PKaisho Medium JIS2004';-inkscape-font-specification:'Arphic PKaisho Medium JIS2004, Normal';font-variant-ligatures:normal;font-variant-caps:normal;font-variant-numeric:normal;font-feature-settings:normal;text-align:start;letter-spacing:0px;word-spacing:0px;writing-mode:lr-tb;text-anchor:start;fill:#f8f5ec;fill-opacity:1;stroke:none;stroke-width:0.26458332"
         id="path11018"
         inkscape:connector-curvature="0" />
      <path
         d="m 94.5646,140.94721 c 0,0.24835 -0.05644,0.53057 -0.180623,0.8128 -0.451555,1.00471 -1.456266,2.55129 -2.054577,3.28506 -0.237067,0.3048 -0.474134,0.44027 -0.677334,0.44027 -0.293511,0 -0.530578,-0.27093 -0.643466,-0.75636 -0.04516,-0.19191 -0.06773,-0.42897 -0.06773,-0.68862 0,-0.85795 0.3048,-2.00942 1.4224,-2.85609 0.699911,-0.53057 1.343378,-0.82409 1.952978,-0.97084 0.158044,0.15804 0.248356,0.42898 0.248356,0.73378 z m 4.809066,2.37066 c 0,-0.57573 -0.135466,-1.18533 -0.440266,-1.79493 -0.733778,-1.47884 -2.223912,-1.94169 -3.522134,-1.94169 -0.338666,0 -0.677333,0.0339 -0.970844,0.0903 -1.433689,0.25965 -2.506134,0.95956 -3.330222,2.05458 -0.508,0.67733 -0.801512,1.64818 -0.801512,2.49484 0,0.51929 0.112889,0.99343 0.349956,1.33209 0.282222,0.39511 0.620889,0.57574 0.959556,0.57574 0.417688,0 0.835377,-0.25965 1.185333,-0.66605 0.620889,-0.73378 1.444978,-1.89653 2.156178,-3.61244 0.112889,-0.25965 0.158044,-0.508 0.158044,-0.7112 0,-0.46285 -0.2032,-0.79022 -0.361244,-0.99342 0.169333,-0.0226 0.349955,-0.0339 0.519289,-0.0339 0.338666,0 0.677333,0.0339 1.016,0.0903 1.332088,0.22578 2.393244,1.38853 2.393244,2.65289 v 0.32738 c 0,1.10631 -0.3048,1.91911 -1.106311,2.60773 -0.880533,0.75636 -1.738489,1.10631 -2.381956,1.24178 -0.180622,0.0339 -0.270933,0.14675 -0.270933,0.25964 0,0.12418 0.09031,0.22578 0.248356,0.22578 0.02258,0 0.04515,0 0.06773,-0.0113 0.835378,-0.13547 1.761067,-0.45155 2.731911,-1.26435 0.835378,-0.69992 1.399822,-1.73849 1.399822,-2.92383 z"
         style="font-style:normal;font-variant:normal;font-weight:normal;font-stretch:normal;font-size:11.28888893px;line-height:1.25;font-family:HarenosoraMincho;-inkscape-font-specification:'HarenosoraMincho, Normal';font-variant-ligatures:normal;font-variant-caps:normal;font-variant-numeric:normal;font-feature-settings:normal;text-align:start;letter-spacing:0px;word-spacing:0px;writing-mode:lr-tb;text-anchor:start;fill:#f8f5ec;fill-opacity:1;stroke:none;stroke-width:0.26458332"
         id="path11013"
         inkscape:connector-curvature="0" />
      <path
         d="m 100.94129,135.89653 q 0.48232,1.14377 0.7028,3.00412 0.0413,0.55122 0.33073,0.93707 0.31695,0.38585 0.39963,0.12402 0.0689,-0.15158 0.0827,-0.35829 0.0689,0 0.15159,0 1.44694,-0.2756 4.45106,-0.35829 0.28939,0.39963 0.53744,0.53744 0.19292,0.1378 0.44097,-0.23427 0.23427,-0.37207 0.7028,-2.41157 v 0 q 0.16536,-0.53743 0.56499,-0.95084 0.23427,-0.23427 0.0413,-0.45475 -0.26183,-0.31695 -0.99219,-0.77171 -0.34451,-0.16536 -0.60634,-0.0689 -0.59256,0.11025 -1.4745,0.20671 -1.08865,0.0965 -2.46669,0.26183 -1.25401,0.1378 -2.25998,0.22048 -0.1378,-0.0689 -0.34451,-0.0965 -0.22049,-0.0689 -0.27561,0.0276 -0.11024,0.0965 0.0138,0.38585 z m 5.87045,-0.27561 q 0.64767,-0.0689 0.8406,0.19293 0.2067,0.22048 0.16536,0.45475 -0.30317,1.95681 -0.46853,2.2462 -0.0551,0.13781 -0.17914,0.22049 -0.0138,-0.0276 -0.0413,-0.0413 -0.22048,-0.15159 -0.63389,-0.0551 -2.24621,0.35829 -4.03766,0.49609 -0.0138,-0.19293 -0.0276,-0.38585 -0.0689,-0.53744 -0.12402,-0.95085 0.19293,0.0138 0.44097,0.0138 2.38401,-0.23426 4.10656,-0.34451 0.37207,-0.0276 0.24804,-0.22048 -0.1378,-0.24805 -0.50987,-0.35829 -0.34451,-0.0827 -1.00597,0.0138 -1.79145,0.26183 -3.34863,0.45475 -0.0965,-0.89572 -0.11024,-1.19889 0,-0.0276 0.0551,-0.0138 1.69498,-0.33073 4.63021,-0.52366 z m 1.21267,9.977 q -0.0551,-1.57096 -0.0965,-3.15571 -0.0138,-0.64768 0.1378,-1.11621 0.19293,-0.37207 -0.0413,-0.53743 -0.13781,-0.19293 -0.7717,-0.50988 -0.30317,-0.16536 -0.96463,0.0689 -0.7717,0.19293 -1.65365,0.31695 -0.88194,0.13781 -2.03949,0.20671 -0.11024,-0.11024 -0.30317,-0.16537 -0.1378,-0.0689 -0.30317,-0.0138 -0.0965,0.0689 -0.0276,0.26183 0.0276,0.0965 0.0689,0.23427 0.15159,0.26182 0.15159,0.7717 0.0689,0.81304 -0.0276,2.2462 -0.0138,0.59256 -0.19293,1.29536 -0.11024,0.46853 -0.0276,0.82682 0.12402,0.38585 0.33073,0.6339 0.15158,0.19292 0.30317,0.0138 0.19292,-0.23427 0.19292,-0.55122 0.15159,0.0276 0.37207,0.0276 1.88792,-0.16536 3.33486,-0.23426 0.33072,0.52365 0.60633,1.08865 0.19293,0.35829 0.37207,0.39963 0.19293,0 0.34451,-0.39963 0.28939,-0.77171 0.23427,-1.70877 z m -2.0395,-1.17133 q 0.35829,-0.0413 0.24805,-0.23427 -0.1378,-0.24805 -0.53744,-0.33073 -0.34451,-0.0827 -1.00596,0.0413 -0.97841,0.19293 -1.83279,0.37207 0.0276,-0.74414 0.0413,-1.25401 0.12402,0.0138 0.31695,0.0138 1.52962,-0.19293 2.65961,-0.26183 0.37207,-0.0413 0.24805,-0.23427 -0.13781,-0.24804 -0.53744,-0.33072 -0.34451,-0.0827 -1.00597,0.0551 -0.88194,0.17914 -1.66742,0.35829 0.0413,-0.89573 0.0689,-0.99219 0.0276,-0.19293 0.0138,-0.27561 0.19292,0.0138 0.42719,-0.0276 1.22646,-0.28939 2.7423,-0.34451 0.48231,-0.0276 0.60633,0.16537 0.15159,0.15158 0.16537,0.99218 0,1.17134 -0.0138,2.27377 0.0276,0.96462 -0.0689,1.25401 -0.0551,-0.0413 -0.15159,-0.0689 -0.34451,-0.11024 -1.00597,0.0138 -1.5434,0.19292 -2.8801,0.37207 0.0276,-0.23427 0.0138,-0.46853 0,-0.44098 0.0138,-0.81305 0.11024,0 0.28938,0 1.63987,-0.19292 2.85254,-0.2756 z"
         style="font-style:normal;font-variant:normal;font-weight:normal;font-stretch:normal;font-size:14.11111069px;line-height:1.25;font-family:'Arphic PKaisho Medium JIS2004';-inkscape-font-specification:'Arphic PKaisho Medium JIS2004, Normal';font-variant-ligatures:normal;font-variant-caps:normal;font-variant-numeric:normal;font-feature-settings:normal;text-align:start;letter-spacing:0px;word-spacing:0px;writing-mode:lr-tb;text-anchor:start;fill:#f8f5ec;fill-opacity:1;stroke:none;stroke-width:0.26458332"
         id="path11010"
         inkscape:connector-curvature="0" />
      <path
         d="m 112.77667,141.22954 q -0.0138,-3.04547 0.11024,-3.78961 0.60634,-0.11024 1.21268,-0.34451 0.24804,-0.15158 0.38585,0.0138 0.11024,0.0965 -0.0551,0.35829 -0.26183,0.55122 -0.50988,1.11621 -0.22048,0.35829 0,0.67524 0.48232,0.68902 0.60634,1.08865 0.0827,0.22049 -0.0276,0.34451 -0.0965,0.13781 -0.41341,0.0827 -0.38585,-0.11025 -0.81305,-0.11025 -0.35829,-0.0276 0.0413,0.20671 0.7717,0.44097 1.4745,0.99219 0.2067,0.17914 0.38585,0 0.2067,-0.15159 0.28938,-0.4961 0.11025,-0.33073 -0.1378,-0.89572 -0.0138,-0.0689 -0.0551,-0.11025 0.0276,0 0.0138,0 0.12402,-0.0276 0.41341,-0.2067 0.48231,-0.28939 0.92329,-0.66146 0.56499,-0.49609 1.11621,-1.2678 0.39963,-0.56499 0.92328,-1.50206 1.15756,1.41938 2.41157,2.7423 0.33073,0.34451 0.89573,0.38585 1.03352,0.0551 2.10839,-0.11024 0.27561,-0.0276 0.30317,-0.0965 0.0276,-0.11024 -0.19292,-0.19292 -0.67524,-0.27561 -1.46072,-0.52366 -0.88195,-0.33072 -1.55719,-0.7717 -0.81304,-0.49609 -1.63986,-1.17133 -0.42719,-0.39963 -0.67524,-0.60634 0.0689,-0.15158 0.15158,-0.2756 0.11025,-0.19293 0.17915,-0.26183 0.11024,-0.11024 0.0689,-0.24805 -0.0276,-0.15158 -0.24805,-0.30317 -0.23426,-0.19292 -0.52365,-0.23426 -0.31695,-0.0827 -0.48231,-0.0276 -0.13781,0.0276 -0.0827,0.22048 0.0689,0.22049 0.0413,0.55122 -0.15158,0.75792 -0.46853,1.37804 -0.31695,0.71658 -0.75792,1.29535 -0.39963,0.59256 -1.48828,1.77767 -0.0138,0 -0.0138,0.0138 -0.22049,-0.52365 -0.60634,-0.92328 -0.22048,-0.27561 -0.24805,-0.39964 -0.0551,-0.2067 0.12403,-0.42719 0.78548,-1.10243 1.17133,-1.32291 0.31695,-0.19293 0.16537,-0.39963 -0.17915,-0.28939 -0.75793,-0.60634 -0.30316,-0.15159 -0.52365,0.0276 -0.52365,0.38585 -1.00597,0.56499 -0.38585,0.11025 -0.92328,0.20671 -0.31695,-0.28939 -0.75792,-0.39963 -0.15159,-0.0413 -0.24805,0.0965 -0.0551,0.0965 0.0689,0.27561 0.20671,0.46853 0.28939,0.9095 0.12402,0.35829 0.12402,1.01975 0.11024,2.25999 0,3.55534 -0.0551,1.22646 -0.44097,2.43913 -0.11024,0.42719 -0.0413,0.73036 0.16536,0.55121 0.34451,0.74414 0.19292,0.22049 0.33073,0 0.23426,-0.23427 0.28939,-0.71658 0.2067,-0.95085 0.2067,-1.94303 -0.0138,-1.2678 -0.0138,-2.46669 z m 5.98069,2.37022 q 0.95084,-0.12402 2.30132,-0.16536 0.15158,-0.0276 0.17914,-0.1378 0,-0.11025 -0.24804,-0.28939 v -0.0138 q 0.31695,-0.78548 0.50987,-1.01975 0.16537,-0.23427 0.33073,-0.33073 0.24805,-0.24805 0.0551,-0.49609 -0.22048,-0.20671 -0.93706,-0.57878 -0.23427,-0.12402 -0.55122,-0.0138 -0.71658,0.22049 -1.37804,0.37207 0.0413,-0.27561 0.12403,-0.50987 0.0689,-0.16537 -0.0551,-0.26183 -0.13781,-0.12403 -0.37207,-0.22049 0.48231,-0.11024 0.96462,-0.2067 0.35829,-0.0827 0.39963,-0.13781 0.12403,-0.11024 0.0551,-0.22048 -0.0965,-0.15159 -0.48231,-0.24805 -0.39963,-0.0689 -0.81304,0.0965 -0.38585,0.13781 -0.81304,0.23427 -0.46854,0.0965 -1.01975,0.15158 -0.46854,0.0689 -0.12403,0.30317 0.20671,0.11024 0.50988,0.17915 0.23426,0.0138 0.46853,0.0138 0.35829,0.34451 0.35829,0.74414 0,0.0965 0,0.22048 -0.97841,0.11025 -2.05328,0.17915 -0.0965,-0.0689 -0.2067,-0.0551 -0.15159,-0.0413 -0.20671,0.0276 -0.0965,0.0689 0.0276,0.30317 0.35829,0.71658 0.55122,1.86035 0.0276,0.34451 0.23427,0.57877 0.24804,0.30317 0.31694,0.0965 0.0414,-0.12403 0.0551,-0.28939 0.15158,0.0276 0.33072,0.0138 0.33073,-0.0689 0.79927,-0.11024 -0.11025,0.50987 -0.34451,0.95084 -0.26183,0.50988 -0.74414,0.95085 -0.46854,0.44097 -1.50206,1.04731 -0.15159,0.0689 -0.20671,0.12402 -0.0551,0.0689 0.1378,0.11024 0.19293,0.0138 0.81305,-0.22048 0.48231,-0.16537 1.12999,-0.60634 0.49609,-0.35829 0.79926,-0.79926 0.35829,-0.53744 0.55121,-1.3367 0.0276,-0.15158 0.0551,-0.28939 z m -0.565,-0.62011 q -0.0138,0.0965 -0.0276,0.22048 -0.64768,0.0551 -1.25401,0.12403 0,-0.0276 0,-0.0276 -0.17915,-1.30914 -0.19293,-1.61231 0.15158,0 0.31695,-0.0413 0.60634,-0.11024 1.21267,-0.16537 0.0276,0.85439 -0.0551,1.50207 z m 0.7717,-1.15756 q 0,-0.24804 0.0138,-0.45475 0.4961,-0.0827 1.00597,-0.15158 0.39963,-0.0689 0.52365,0.0827 0.11025,0.0965 0.0827,0.33073 -0.11025,0.67524 -0.27561,1.21267 -0.0551,-0.0276 -0.12402,0 -0.68902,0.11025 -1.3367,0.26183 0.11024,-0.64768 0.11024,-1.28158 z m 0.23427,2.48047 q 1.01975,0.88195 2.23242,2.19108 0.24805,0.30317 0.46853,0.37207 0.15159,0.0138 0.24805,-0.1378 0.19293,-0.20671 -0.0138,-0.85438 -0.0689,-0.35829 -0.33073,-0.59256 -0.34451,-0.33073 -1.17133,-0.74414 -0.92329,-0.48231 -1.41938,-0.7028 -0.13781,-0.0827 -0.16537,0.11024 -0.0138,0.19293 0.15159,0.35829 z"
         style="font-style:normal;font-variant:normal;font-weight:normal;font-stretch:normal;font-size:14.11111069px;line-height:1.25;font-family:'Arphic PKaisho Medium JIS2004';-inkscape-font-specification:'Arphic PKaisho Medium JIS2004, Normal';font-variant-ligatures:normal;font-variant-caps:normal;font-variant-numeric:normal;font-feature-settings:normal;text-align:start;letter-spacing:0px;word-spacing:0px;writing-mode:lr-tb;text-anchor:start;fill:#f8f5ec;fill-opacity:1;stroke:none;stroke-width:0.26458332"
         id="path11007"
         inkscape:connector-curvature="0" />
    </g>
  </g>
</svg>
