<?xml version="1.0" encoding="UTF-8" standalone="no"?>
<svg
   id="svg26"
   version="1.1"
   width="240.00003"
   height="55"
   sodipodi:docname="satsuki-thyme-fg-green.svg"
   inkscape:version="1.3.2 (091e20e, 2023-11-25, custom)"
   inkscape:export-filename="satsuki-thyme-fw-white-bg-green-3000x480.png"
   inkscape:export-xdpi="480"
   inkscape:export-ydpi="480"
   xmlns:inkscape="http://www.inkscape.org/namespaces/inkscape"
   xmlns:sodipodi="http://sodipodi.sourceforge.net/DTD/sodipodi-0.dtd"
   xmlns="http://www.w3.org/2000/svg"
   xmlns:svg="http://www.w3.org/2000/svg"
   xmlns:rdf="http://www.w3.org/1999/02/22-rdf-syntax-ns#"
   xmlns:cc="http://creativecommons.org/ns#"
   xmlns:dc="http://purl.org/dc/elements/1.1/">
  <sodipodi:namedview
     pagecolor="#ffffff"
     bordercolor="#666666"
     borderopacity="1"
     objecttolerance="10"
     gridtolerance="10"
     guidetolerance="10"
     inkscape:pageopacity="0"
     inkscape:pageshadow="2"
     inkscape:window-width="1600"
     inkscape:window-height="829"
     id="namedview21"
     showgrid="false"
     inkscape:zoom="1.3627071"
     inkscape:cx="92.096093"
     inkscape:cy="181.62377"
     inkscape:window-x="-8"
     inkscape:window-y="-8"
     inkscape:window-maximized="1"
     inkscape:current-layer="svg26"
     inkscape:showpageshadow="2"
     inkscape:pagecheckerboard="true"
     inkscape:deskcolor="#d1d1d1" />
  <metadata
     id="metadata32">
    <rdf:RDF>
      <cc:Work
         rdf:about="">
        <dc:format>image/svg+xml</dc:format>
        <dc:type
           rdf:resource="http://purl.org/dc/dcmitype/StillImage" />
      </cc:Work>
    </rdf:RDF>
  </metadata>
  <defs
     id="defs30" />
  <path
     d="m 41.741507,0.00115608 c -2.14946,0.0295 -4.37517,0.62393 -6.36963,1.66167002 -5.66752,2.9489 -11.47627,8.5660699 -17.35793,17.9394579 -5.89447,9.39381 -9.30493,20.3865 -17.57353995,27.7809 -0.8871,0.79331 -0.34679,2.2578 0.84327995,2.25782 15.21415,3e-4 27.87456,-6.09854 36.83183,-13.66113 6.68702,-5.64582 11.96353,-14.4166 13.05836,-20.62439 1.09483,-6.2077979 -0.15223,-10.6885279 -2.86516,-13.1013079 -1.79294,-1.59457002 -4.13114,-2.28649002 -6.56721,-2.25302002 z m 0.98604,1.11646002 c 1.74896,0.032 3.41351,0.5655 4.8176,1.85034 2.12219,1.94196 3.56965,6.26077 2.34759,11.8898199 -1.22206,5.629048 -5.09626,12.564008 -13.43684,19.605928 -7.30883,6.17082 -17.2214,11.01693 -29.08351,12.27674 8.65214,-4.66174 14.67996,-11.97625 19.71693,-19.36358 6.02026,-8.82946 11.65172,-17.289008 16.73642,-21.4222279 1.26632,-1.02937 0.91766,-1.45347 -0.46207,-0.48286 -6.1533,4.3287 -11.13146,12.8016879 -17.50936,21.1531679 -5.5118,7.21737 -11.67387,14.23162 -20.27973,18.70759 5.60272,-7.88699 9.80921,-16.90226 14.22941,-24.73416 5.26171,-9.322928 11.04657,-15.0797679 16.13343,-17.6470879 2.15332,-1.08678 4.54148,-1.87479 6.79013,-1.83367 z"
     style="fill:#62a433;stroke-width:0.13928;stroke:none;fill-opacity:1"
     id="path2" />
  <path
     d="m 1.062367,48.435414 a 1.0321897,0.60240285 0 1 0 0,1.20461 H 238.94924 a 1.0321897,0.60240285 0 1 0 0,-1.20461 z"
     style="fill:#62a433;stroke-width:0.13928;stroke:none;fill-opacity:1"
     id="path24"
     inkscape:connector-curvature="0" />
  <path
     d="m 60.229557,29.143694 v 6.52326 h -0.51463 q -0.25036,-1.87769 -0.90407,-2.99041 -0.63981,-1.11271 -1.83598,-1.76642 -1.19616,-0.65372 -2.47578,-0.65372 -1.44652,0 -2.39233,0.89017 -0.9458,0.87626 -0.9458,2.00288 0,0.86235 0.59808,1.5717 0.86235,1.04317 4.10312,2.78178 2.64269,1.4187 3.6024,2.18369 0.97363,0.75108 1.48825,1.78034 0.52854,1.02926 0.52854,2.15588 0,2.14197 -1.66906,3.69976 -1.65516,1.54389 -4.27003,1.54389 -0.82063,0 -1.54389,-0.12518 -0.43117,-0.0696 -1.79424,-0.50072 -1.34917,-0.44509 -1.7108,-0.44509 -0.34772,0 -0.55635,0.20864 -0.19473,0.20863 -0.29209,0.86235 h -0.51463 v -6.46763 h 0.51463 q 0.36163,2.03069 0.97362,3.04604 0.61199,1.00144 1.86379,1.66907 1.26571,0.66762 2.76787,0.66762 1.73861,0 2.74005,-0.91798 1.01535,-0.91799 1.01535,-2.16979 0,-0.69544 -0.38945,-1.4048 -0.37554,-0.70935 -1.18225,-1.32134 -0.54245,-0.41727 -2.9626,-1.76643 -2.42014,-1.36307 -3.4494,-2.16978 -1.01535,-0.80672 -1.54389,-1.78034 -0.52853,-0.97362 -0.52853,-2.14197 0,-2.0307 1.55779,-3.49113 1.5578,-1.47434 3.96403,-1.47434 1.50216,0 3.18514,0.73717 0.7789,0.34772 1.0988,0.34772 0.36163,0 0.58417,-0.20863 0.23646,-0.22255 0.37554,-0.87626 z m 10.89066,17.45565 q -1.96115,1.51607 -2.46187,1.75252 -0.75108,0.34772 -1.59952,0.34772 -1.32135,0 -2.1837,-0.90408 -0.84844,-0.90407 -0.84844,-2.37842 0,-0.93189 0.41726,-1.61343 0.57027,-0.9458 1.97507,-1.78033 1.4187,-0.83454 4.7012,-2.0307 v -0.50072 q 0,-1.90552 -0.61199,-2.61487 -0.59808,-0.70936 -1.75252,-0.70936 -0.87626,0 -1.39089,0.47291 -0.52854,0.4729 -0.52854,1.08489 l 0.0278,0.80672 q 0,0.6398 -0.33381,0.98753 -0.31991,0.34772 -0.84844,0.34772 -0.51463,0 -0.84845,-0.36163 -0.3199,-0.36163 -0.3199,-0.98753 0,-1.19617 1.22398,-2.19761 1.22398,-1.00144 3.4355,-1.00144 1.69688,0 2.78177,0.57027 0.82063,0.43117 1.21008,1.34916 0.25036,0.59808 0.25036,2.44796 v 4.32567 q 0,1.82206 0.0695,2.23933 0.0696,0.40335 0.22254,0.54244 0.16691,0.13909 0.37554,0.13909 0.22255,0 0.38945,-0.0974 0.29209,-0.18082 1.12662,-1.01535 v 0.7789 q -1.55779,2.08633 -2.9765,2.08633 -0.68154,0 -1.08489,-0.4729 -0.40336,-0.4729 -0.41727,-1.61343 z m 0,-0.90408 v -4.8542 q -2.10024,0.83453 -2.71223,1.18226 -1.0988,0.61199 -1.57171,1.27961 -0.4729,0.66763 -0.4729,1.46044 0,1.00144 0.59808,1.66906 0.59809,0.65372 1.37698,0.65372 1.05708,0 2.78178,-1.39089 z m 9.12423,-14.18706 v 4.18657 h 2.9765 v 0.97362 h -2.9765 v 8.26188 q 0,1.23789 0.34772,1.66907 0.36163,0.43117 0.91799,0.43117 0.45899,0 0.89017,-0.27817 0.43117,-0.29209 0.66762,-0.84844 h 0.54245 q -0.48681,1.36307 -1.37698,2.05851 -0.89017,0.68154 -1.83597,0.68154 -0.63981,0 -1.2518,-0.34773 -0.61199,-0.36163 -0.90408,-1.01535 -0.29209,-0.66762 -0.29209,-2.0446 v -8.56788 h -2.01678 v -0.45899 q 0.76498,-0.30599 1.55779,-1.02926 0.80672,-0.73717 1.43262,-1.73861 0.3199,-0.52853 0.89016,-1.93333 z m 12.44845,3.81103 v 4.33958 h -0.45899 q -0.52854,-2.04461 -1.36307,-2.78178 -0.82063,-0.73717 -2.10024,-0.73717 -0.97362,0 -1.57171,0.51463 -0.59808,0.51462 -0.59808,1.14052 0,0.7789 0.44509,1.33526 0.43117,0.57026 1.75251,1.21007 l 2.0307,0.98753 q 2.82351,1.37698 2.82351,3.63022 0,1.73861 -1.32135,2.8096 -1.30743,1.05707 -2.93477,1.05707 -1.16835,0 -2.67051,-0.41727 -0.45899,-0.13908 -0.75108,-0.13908 -0.3199,0 -0.50072,0.36163 h -0.45899 v -4.54821 h 0.45899 q 0.38945,1.94725 1.48825,2.93478 1.0988,0.98753 2.46187,0.98753 0.95972,0 1.5578,-0.55636 0.61199,-0.57026 0.61199,-1.36307 0,-0.95971 -0.68153,-1.61343 -0.66763,-0.65372 -2.68442,-1.65516 -2.01679,-1.00144 -2.64269,-1.80815 -0.6259,-0.79281 -0.6259,-2.00288 0,-1.57171 1.07099,-2.62878 1.08489,-1.05708 2.79568,-1.05708 0.75108,0 1.82207,0.31991 0.70935,0.20863 0.9458,0.20863 0.22254,0 0.34772,-0.0974 0.12518,-0.0974 0.29209,-0.43118 z m 14.020163,0.37554 v 7.71943 q 0,2.21152 0.0974,2.71224 0.11128,0.48681 0.33382,0.68153 0.23645,0.19473 0.54244,0.19473 0.43118,0 0.97363,-0.23645 l 0.19472,0.48681 -3.81103,1.5717 h -0.6259 v -2.69832 q -1.64125,1.78033 -2.5036,2.23933 -0.86235,0.45899 -1.82207,0.45899 -1.070983,0 -1.863793,-0.61199 -0.7789,-0.6259 -1.08489,-1.59952 -0.306,-0.97362 -0.306,-2.75396 v -5.68874 q 0,-0.90407 -0.19472,-1.2518 -0.19473,-0.34772 -0.58417,-0.52853 -0.37554,-0.19473 -1.37698,-0.18082 v -0.51463 h 4.46475 v 8.52615 q 0,1.78034 0.61199,2.33669 0.625903,0.55636 1.502163,0.55636 0.59808,0 1.34916,-0.37554 0.76499,-0.37554 1.80816,-1.43262 v -7.21871 q 0,-1.08489 -0.40336,-1.46043 -0.38945,-0.38945 -1.64125,-0.41727 v -0.51463 z m 6.84317,-7.03789 v 12.67099 l 3.24077,-2.94868 q 1.02926,-0.94581 1.19617,-1.19617 0.11127,-0.1669 0.11127,-0.33381 0,-0.27818 -0.23645,-0.4729 -0.22254,-0.20864 -0.75108,-0.23645 v -0.44509 h 5.53574 v 0.44509 q -1.14053,0.0278 -1.90552,0.34772 -0.75108,0.3199 -1.65516,1.14053 l -3.26859,3.01823 3.26859,4.13094 q 1.36307,1.71079 1.83597,2.16978 0.66763,0.65372 1.16835,0.84844 0.34772,0.13909 1.21007,0.13909 v 0.50072 h -6.18945 v -0.50072 q 0.52854,-0.0139 0.70935,-0.153 0.19473,-0.15299 0.19473,-0.41726 0,-0.31991 -0.55636,-1.02926 l -3.9084,-4.99329 v 4.2283 q 0,1.23789 0.16691,1.62734 0.18082,0.38945 0.50072,0.55636 0.3199,0.1669 1.39089,0.18081 v 0.50072 h -6.48154 v -0.50072 q 0.97362,0 1.46043,-0.23645 0.29209,-0.153 0.44509,-0.4729 0.20863,-0.45899 0.20863,-1.58561 v -11.60001 q 0,-2.21152 -0.0974,-2.69833 -0.0974,-0.50072 -0.31991,-0.68153 -0.22254,-0.19473 -0.58417,-0.19473 -0.29209,0 -0.87626,0.23645 l -0.23645,-0.48681 3.78321,-1.55779 z m 13.71416,0 q 0.58418,0 0.98754,0.41726 0.41726,0.40336 0.41726,0.98753 0,0.58418 -0.41726,1.00144 -0.40336,0.41727 -0.98754,0.41727 -0.58417,0 -1.00144,-0.41727 -0.41726,-0.41726 -0.41726,-1.00144 0,-0.58417 0.40336,-0.98753 0.41726,-0.41726 1.01534,-0.41726 z m 1.15444,6.66235 v 10.23694 q 0,1.19617 0.16691,1.59952 0.18081,0.38945 0.51463,0.58418 0.34772,0.19472 1.2518,0.19472 v 0.50072 h -6.18946 v -0.50072 q 0.9319,0 1.2518,-0.18081 0.31991,-0.18082 0.50072,-0.59809 0.19473,-0.41726 0.19473,-1.59952 v -4.90983 q 0,-2.07243 -0.12518,-2.68442 -0.0974,-0.44508 -0.306,-0.61199 -0.20863,-0.18082 -0.57026,-0.18082 -0.38945,0 -0.94581,0.20864 l -0.19472,-0.50072 3.83885,-1.5578 z"
     id="text4533"
     style="font-size:28.4854px;line-height:1.25;font-family:'Times New Roman';-inkscape-font-specification:'Times New Roman, Normal';letter-spacing:0px;word-spacing:0px;fill:#62a433;stroke:none;fill-opacity:1"
     aria-label="Satsuki" />
  <path
     style="font-size:28.4854px;line-height:1.25;font-family:'Times New Roman';-inkscape-font-specification:'Times New Roman, Normal';letter-spacing:0px;word-spacing:0px;baseline-shift:baseline;fill:#62a433;stroke:none;fill-opacity:1"
     d="m 154.45199,29.574864 0.20863,4.42303 h -0.52853 q -0.153,-1.16835 -0.41727,-1.66907 -0.43118,-0.80671 -1.15444,-1.18225 -0.70935,-0.38945 -1.8777,-0.38945 h -2.65659 v 14.4096 q 0,1.73861 0.37554,2.16979 0.52853,0.58417 1.62734,0.58417 h 0.65371 v 0.51463 h -7.99761 v -0.51463 h 0.66763 q 1.19616,0 1.69688,-0.72326 0.306,-0.44508 0.306,-2.0307 v -14.4096 h -2.26715 q -1.32134,0 -1.8777,0.19472 -0.72326,0.26427 -1.23789,1.01535 -0.51463,0.75108 -0.61199,2.0307 h -0.52854 l 0.22254,-4.42303 z m 5.54965,-0.91798 v 9.31895 q 1.54388,-1.69688 2.44796,-2.16979 0.90408,-0.48681 1.80816,-0.48681 1.08489,0 1.86379,0.59808 0.77889,0.59809 1.15443,1.8777 0.26427,0.89017 0.26427,3.25468 v 4.50648 q 0,1.21008 0.19473,1.65516 0.13909,0.33381 0.4729,0.52854 0.33381,0.19472 1.22398,0.19472 v 0.50072 h -6.259 v -0.50072 h 0.29209 q 0.89017,0 1.23789,-0.26427 0.34772,-0.27817 0.48681,-0.80671 0.0417,-0.22254 0.0417,-1.30744 v -4.50648 q 0,-2.08633 -0.22254,-2.74005 -0.20864,-0.65371 -0.68154,-0.97362 -0.4729,-0.33381 -1.14053,-0.33381 -0.68153,0 -1.4187,0.36163 -0.73718,0.36163 -1.76643,1.46043 v 6.7319 q 0,1.30744 0.13909,1.62734 0.15299,0.31991 0.54244,0.54245 0.40336,0.20863 1.37698,0.20863 v 0.50072 h -6.31463 v -0.50072 q 0.84844,0 1.33525,-0.26427 0.27818,-0.13909 0.44508,-0.52853 0.16691,-0.38945 0.16691,-1.58562 v -11.53046 q 0,-2.1837 -0.11127,-2.68442 -0.0974,-0.50072 -0.3199,-0.68153 -0.20864,-0.18082 -0.57027,-0.18082 -0.29208,0 -0.9458,0.22254 l -0.19473,-0.48681 3.81104,-1.55779 z m 9.77794,7.03789 h 5.9391 v 0.51463 h -0.29209 q -0.6259,0 -0.9458,0.27818 -0.306,0.26427 -0.306,0.66763 0,0.54244 0.45899,1.50216 l 3.10169,6.4259 2.85132,-7.0379 q 0.23645,-0.57026 0.23645,-1.12662 0,-0.25036 -0.0974,-0.37554 -0.11127,-0.15299 -0.34773,-0.23645 -0.23645,-0.0974 -0.83453,-0.0974 v -0.51463 h 4.14485 v 0.51463 q -0.51463,0.0556 -0.79281,0.22254 -0.27818,0.16691 -0.61199,0.6259 -0.12518,0.19473 -0.4729,1.07099 l -5.18802,12.71272 q -0.75107,1.84988 -1.97506,2.79569 -1.21007,0.9458 -2.33669,0.9458 -0.82062,0 -1.34916,-0.4729 -0.52854,-0.4729 -0.52854,-1.0849 0,-0.58417 0.37554,-0.9458 0.38945,-0.34772 1.05708,-0.34772 0.45899,0 1.2518,0.30599 0.55635,0.20864 0.69544,0.20864 0.41727,0 0.90408,-0.43118 0.50072,-0.43117 1.00144,-1.66906 l 0.90407,-2.21152 -4.57602,-9.61104 q -0.20863,-0.43117 -0.66763,-1.07098 -0.34772,-0.48681 -0.57026,-0.65372 -0.3199,-0.22254 -1.02926,-0.38945 z m 18.74918,2.3367 q 1.39089,-1.39089 1.64125,-1.59953 0.6259,-0.52853 1.34916,-0.82062 0.72326,-0.29209 1.43262,-0.29209 1.19616,0 2.05851,0.69545 0.86235,0.69544 1.15444,2.01679 1.43261,-1.66907 2.42015,-2.1837 0.98753,-0.52854 2.03069,-0.52854 1.01535,0 1.79425,0.52854 0.79281,0.51463 1.2518,1.69688 0.30599,0.80672 0.30599,2.53142 v 5.4801 q 0,1.19617 0.18082,1.64125 0.13909,0.306 0.51463,0.52854 0.37554,0.20863 1.22398,0.20863 v 0.50072 h -6.28682 v -0.50072 h 0.26427 q 0.82063,0 1.27962,-0.3199 0.3199,-0.22254 0.45899,-0.70936 0.0556,-0.23645 0.0556,-1.34916 v -5.4801 q 0,-1.55779 -0.37554,-2.1976 -0.54245,-0.89017 -1.73861,-0.89017 -0.73717,0 -1.48825,0.37554 -0.73717,0.36163 -1.79425,1.36307 l -0.0278,0.153 0.0278,0.59808 v 6.07818 q 0,1.30744 0.13909,1.62734 0.153,0.31991 0.55636,0.54245 0.40335,0.20863 1.37698,0.20863 v 0.50072 h -6.43982 v -0.50072 q 1.05708,0 1.44653,-0.25036 0.40335,-0.25036 0.55635,-0.75108 0.0695,-0.23645 0.0695,-1.37698 v -5.4801 q 0,-1.55779 -0.459,-2.23933 -0.61199,-0.89017 -1.71079,-0.89017 -0.75108,0 -1.48825,0.40336 -1.15444,0.61199 -1.78034,1.37698 v 6.82926 q 0,1.2518 0.16691,1.62734 0.18081,0.37554 0.51463,0.57027 0.34772,0.18081 1.39088,0.18081 v 0.50072 h -6.30072 v -0.50072 q 0.87626,0 1.22398,-0.18081 0.34772,-0.19473 0.52854,-0.59809 0.18081,-0.41726 0.18081,-1.59952 v -4.86811 q 0,-2.10024 -0.12518,-2.71223 -0.0974,-0.45899 -0.30599,-0.6259 -0.20863,-0.18082 -0.57027,-0.18082 -0.38944,0 -0.93189,0.20864 l -0.20863,-0.50072 3.83885,-1.5578 h 0.59808 z m 20.51561,2.46187 q -0.0139,2.83741 1.37698,4.45084 1.39089,1.61343 3.26859,1.61343 1.2518,0 2.16979,-0.68153 0.93189,-0.69545 1.55779,-2.36451 l 0.43118,0.27817 q -0.29209,1.90552 -1.69689,3.47723 -1.40479,1.55779 -3.51894,1.55779 -2.29497,0 -3.93622,-1.78034 -1.62734,-1.79424 -1.62734,-4.81247 0,-3.26859 1.66907,-5.09065 1.68297,-1.83598 4.21439,-1.83598 2.14197,0 3.51895,1.41871 1.37698,1.4048 1.37698,3.76931 z m 0,-0.80672 h 5.89737 q -0.0695,-1.22398 -0.29209,-1.7247 -0.34772,-0.7789 -1.04316,-1.22398 -0.68154,-0.44509 -1.43262,-0.44509 -1.15444,0 -2.07242,0.90408 -0.90408,0.89017 -1.05708,2.48969 z"
     id="text4537"
     aria-label="Thyme" />
</svg>
