<?xml version="1.0" encoding="UTF-8" standalone="no"?>
<svg
   id="svg26"
   version="1.1"
   width="130"
   height="130"
   sodipodi:docname="satsuki-thyme-square-fg-green-bg-trn.svg"
   inkscape:version="1.3.1 (91b66b0783, 2023-11-16)"
   inkscape:export-filename="\\illya.c\sviel\picture\icon\satsuki-thyme\satsuki-thyme-fw-white-bg-green-2000x667.png"
   inkscape:export-xdpi="640"
   inkscape:export-ydpi="640"
   xmlns:inkscape="http://www.inkscape.org/namespaces/inkscape"
   xmlns:sodipodi="http://sodipodi.sourceforge.net/DTD/sodipodi-0.dtd"
   xmlns="http://www.w3.org/2000/svg"
   xmlns:svg="http://www.w3.org/2000/svg"
   xmlns:rdf="http://www.w3.org/1999/02/22-rdf-syntax-ns#"
   xmlns:cc="http://creativecommons.org/ns#"
   xmlns:dc="http://purl.org/dc/elements/1.1/">
  <sodipodi:namedview
     pagecolor="#ffffff"
     bordercolor="#666666"
     borderopacity="1"
     objecttolerance="10"
     gridtolerance="10"
     guidetolerance="10"
     inkscape:pageopacity="0"
     inkscape:pageshadow="2"
     inkscape:window-width="1600"
     inkscape:window-height="829"
     id="namedview21"
     showgrid="false"
     inkscape:zoom="1.4775703"
     inkscape:cx="36.546483"
     inkscape:cy="68.017066"
     inkscape:window-x="-8"
     inkscape:window-y="-8"
     inkscape:window-maximized="1"
     inkscape:current-layer="layer1"
     fit-margin-top="0"
     fit-margin-left="0"
     fit-margin-right="0"
     fit-margin-bottom="0"
     inkscape:snap-page="true"
     inkscape:showpageshadow="2"
     inkscape:pagecheckerboard="0"
     inkscape:deskcolor="#d1d1d1" />
  <metadata
     id="metadata32">
    <rdf:RDF>
      <cc:Work
         rdf:about="">
        <dc:format>image/svg+xml</dc:format>
        <dc:type
           rdf:resource="http://purl.org/dc/dcmitype/StillImage" />
      </cc:Work>
    </rdf:RDF>
  </metadata>
  <defs
     id="defs30" />
  <g
     transform="translate(85.027405,-587.90387)"
     id="layer1">
    <g
       id="g854"
       transform="matrix(0.13928012,0,0,0.13928012,-143.35891,502.57696)">
      <g
         id="g2">
        <path
           d="m 553.62851,1022.4275 a 3.1137272,7.5213421 0 1 0 0,15.0403 h 717.61499 a 3.1137272,7.5213421 0 1 0 0,-15.0403 z"
           style="fill:#62a433;fill-opacity:1;stroke-width:0.999996"
           id="path24"
           inkscape:connector-curvature="0" />
        <g
           aria-label="Satsuki"
           style="font-style:normal;font-variant:normal;font-weight:normal;font-stretch:normal;font-size:292.235px;line-height:1.25;font-family:Gabriola;-inkscape-font-specification:'Gabriola, Normal';font-variant-ligatures:normal;font-variant-caps:normal;font-variant-numeric:normal;font-feature-settings:normal;text-align:start;letter-spacing:0px;word-spacing:0px;writing-mode:lr-tb;text-anchor:start;fill:#62a433;fill-opacity:1;stroke:none;stroke-width:7.17978"
           id="text4533"
           transform="translate(187.07831,672.99599)">
          <path
             d="m 408.81927,307.4606 q -0.21404,1.71232 -0.28538,3.28194 -0.0713,1.56962 -0.0713,3.13925 0,8.1335 2.1404,13.84122 2.21174,5.63638 6.20714,9.2037 4.06676,3.56733 9.70313,5.2083 5.70772,1.56962 12.77103,1.56962 7.0633,0 13.41314,-1.92635 6.34985,-1.99771 11.13006,-5.92177 4.85157,-3.92405 7.70543,-9.70312 2.85386,-5.85042 2.85386,-13.48449 0,-4.85157 -1.35559,-8.84697 -1.28423,-4.06676 -3.63867,-7.42004 -2.28309,-3.42463 -5.49368,-6.2785 -3.13925,-2.85386 -6.92061,-5.35098 -3.71002,-2.56848 -7.84812,-4.85157 -4.1381,-2.35443 -8.41889,-4.70887 -4.49483,-2.42578 -8.98966,-4.99426 -4.42349,-2.56847 -8.49024,-5.49368 -4.06675,-2.9252 -7.56273,-6.27849 -3.49598,-3.42463 -6.06445,-7.56273 -2.49713,-4.1381 -3.99541,-9.13236 -1.42693,-4.99425 -1.42693,-11.05871 0,-7.56273 1.92636,-14.05526 1.92635,-6.56388 5.35099,-11.98622 3.49598,-5.49368 8.27619,-9.77447 4.85157,-4.28079 10.55929,-7.206 5.77907,-2.99655 12.2716,-4.49483 6.56388,-1.56962 13.41314,-1.56962 3.13925,0 6.70658,0.42807 3.56732,0.35674 7.13465,1.14155 3.56733,0.78481 6.77792,1.92635 3.28194,1.0702 5.77907,2.49713 2.49713,1.42693 3.9954,3.13925 1.49828,1.71232 1.49828,3.63867 0,2.06905 -0.0713,5.2083 -0.0713,3.0679 -0.21404,7.0633 -0.0713,3.92406 -0.28538,8.63293 -0.21404,4.63753 -0.49943,9.84582 l -7.206,-0.35673 q 0.21404,-2.56847 0.21404,-4.92291 0,-7.0633 -2.14039,-12.41429 -2.06905,-5.42234 -5.92176,-8.98967 -3.78137,-3.63867 -9.20371,-5.42233 -5.35098,-1.85501 -11.91486,-1.85501 -6.56388,0 -12.27161,2.21174 -5.63637,2.1404 -9.77447,6.06446 -4.1381,3.85271 -6.49253,9.2037 -2.35444,5.35099 -2.35444,11.77217 0,5.2083 1.35559,9.48909 1.35558,4.20944 3.71001,7.77677 2.42579,3.56733 5.70773,6.49253 3.28194,2.92521 7.13465,5.56503 3.85271,2.56848 8.1335,4.92291 4.28079,2.35444 8.63293,4.70887 4.49483,2.35444 8.91832,4.85157 4.49483,2.49713 8.56158,5.35099 4.06675,2.78251 7.49138,6.1358 3.49598,3.28194 5.99311,7.34869 2.56848,3.9954 3.99541,8.84697 1.49827,4.85156 1.49827,10.77332 0,9.77448 -2.71116,17.33721 -2.63983,7.56273 -7.13466,13.1991 -4.49483,5.56503 -10.34524,9.41774 -5.77907,3.85272 -12.05756,6.20715 -6.2785,2.35444 -12.55699,3.35329 -6.2785,1.0702 -11.62948,1.0702 -7.06331,0 -13.27046,-0.99886 -6.20714,-0.9275 -10.91602,-2.49712 -4.63752,-1.56963 -7.34869,-3.56733 -2.63982,-2.06905 -2.63982,-4.20944 0,-4.78022 0.28539,-13.69854 0.35673,-8.91831 1.0702,-21.18991 z"
             style="font-style:normal;font-variant:normal;font-weight:normal;font-stretch:normal;font-size:292.235px;font-family:Gabriola;-inkscape-font-specification:'Gabriola, Normal';font-variant-ligatures:normal;font-variant-caps:normal;font-variant-numeric:normal;font-feature-settings:normal;text-align:start;letter-spacing:0px;writing-mode:lr-tb;text-anchor:start;fill:#62a433;fill-opacity:1;stroke-width:7.17978"
             id="path822" />
          <path
             d="m 565.35354,276.06813 q 0,-5.63638 -1.85501,-9.77447 -1.85501,-4.1381 -4.85156,-6.77792 -2.99655,-2.63982 -6.77792,-3.92406 -3.78137,-1.28424 -7.56273,-1.28424 -5.0656,0 -8.56158,1.0702 -3.49598,1.0702 -5.70773,2.92521 -2.14039,1.85501 -3.13924,4.42348 -0.92751,2.49713 -0.92751,5.42234 0,3.42463 1.21289,6.92061 1.28424,3.42463 3.71002,6.70657 l -0.28538,0.78481 q -4.06676,1.99771 -8.20485,1.99771 -2.42579,0 -4.56618,-0.71347 -2.06905,-0.78481 -3.63867,-2.21174 -1.49828,-1.42693 -2.42579,-3.49598 -0.85615,-2.06905 -0.85615,-4.63753 0,-4.20944 1.9977,-7.91946 2.06905,-3.71002 5.42233,-6.77792 3.35329,-3.0679 7.77678,-5.49368 4.42348,-2.42578 9.13235,-4.06675 4.70887,-1.71232 9.41774,-2.56848 4.78022,-0.9275 8.84697,-0.9275 7.49138,0 12.77103,1.9977 5.35099,1.9977 8.63293,5.85042 3.35328,3.78136 4.85156,9.2037 1.56962,5.42233 1.56962,12.2716 0,4.70887 -0.42808,10.34524 -0.35673,5.63638 -0.85615,11.84353 -0.49943,6.1358 -0.92751,12.69968 -0.35673,6.56388 -0.35673,13.05641 0,10.2739 3.78136,15.4822 3.85272,5.13695 10.05986,5.13695 5.49369,0 12.2716,-4.06676 l 2.06905,3.0679 q -4.78021,4.78022 -10.41659,7.27735 -5.63637,2.49713 -11.84352,2.49713 -4.63752,0 -8.56158,-1.56963 -3.92406,-1.56962 -6.77792,-4.63752 -2.85386,-3.13925 -4.42349,-7.84812 -1.56962,-4.70887 -1.56962,-10.91602 0,-1.855 0.0714,-3.71001 0.14269,-1.85501 0.49942,-3.92406 h -0.42808 q -3.0679,6.1358 -7.13465,12.12891 -3.9954,5.92176 -8.84697,10.63063 -4.78022,4.63752 -10.2739,7.49138 -5.42233,2.92521 -11.41544,2.92521 -4.92291,0 -8.98966,-1.71232 -4.06675,-1.71231 -6.99196,-4.70887 -2.85386,-2.99655 -4.49483,-7.0633 -1.56963,-4.1381 -1.56963,-8.98966 0,-6.2785 2.28309,-11.41545 2.35444,-5.13695 6.42119,-9.2037 4.1381,-4.06675 9.84582,-6.99196 5.70772,-2.99655 12.41429,-4.92291 6.70658,-1.9977 14.19796,-2.92521 7.49139,-0.99885 15.26816,-0.99885 0.49942,-4.49483 0.78481,-8.70427 0.35673,-4.20945 0.35673,-9.27505 z m -43.80676,49.01506 q 0,2.78251 0.57077,5.35099 0.64212,2.49713 1.92636,4.42348 1.35558,1.92636 3.35328,3.0679 2.06905,1.0702 4.92291,1.0702 3.2106,0 6.63523,-1.49828 3.42463,-1.49827 6.70657,-4.13809 3.35329,-2.63983 6.34984,-6.2785 3.0679,-3.71002 5.49368,-8.06215 2.42579,-4.35214 3.99541,-9.13236 1.64097,-4.85156 2.1404,-9.91717 -5.27965,0.1427 -10.48794,0.71347 -5.2083,0.49943 -9.91717,1.64097 -4.63752,1.14154 -8.63293,2.99655 -3.9954,1.85501 -6.92061,4.63753 -2.85386,2.71117 -4.49483,6.49253 -1.64097,3.71002 -1.64097,8.63293 z"
             style="font-style:normal;font-variant:normal;font-weight:normal;font-stretch:normal;font-size:292.235px;font-family:Gabriola;-inkscape-font-specification:'Gabriola, Normal';font-variant-ligatures:normal;font-variant-caps:normal;font-variant-numeric:normal;font-feature-settings:normal;text-align:start;letter-spacing:0px;writing-mode:lr-tb;text-anchor:start;fill:#62a433;fill-opacity:1;stroke-width:7.17978"
             id="path824" />
          <path
             d="m 646.97397,195.16117 q -2.99655,13.55584 -5.0656,28.03919 -1.9977,14.41199 -3.42463,28.46726 3.35328,0.14269 6.49253,0.21404 3.21059,0.0713 5.92176,0.14269 2.78252,0.0713 4.99426,0.0713 2.28309,0 3.78136,0 6.49254,0 10.63063,-0.78481 0.35674,1.21289 0.57078,2.21174 0.21404,0.99885 0.21404,1.85501 0,3.13925 -2.63982,4.06675 -2.56848,0.9275 -7.49139,0.9275 -4.70887,0 -10.55928,-0.57077 -5.77907,-0.57077 -12.69969,-1.0702 -0.78481,7.63408 -1.35558,14.91143 -0.49943,7.206 -0.85616,13.62718 -0.28538,6.42119 -0.42808,11.91487 -0.14269,5.49368 -0.14269,9.56044 0,7.63407 0.78481,13.62718 0.78481,5.99311 2.78252,10.20255 1.9977,4.1381 5.49368,6.34984 3.49598,2.21175 8.84697,2.21175 3.85271,0 8.56158,-1.35559 4.78022,-1.35558 10.84467,-4.35213 1.92636,1.92635 2.21174,4.70887 -4.42348,2.9252 -8.91831,5.35098 -4.49483,2.35444 -8.84697,4.06676 -4.35214,1.71231 -8.41889,2.63982 -4.06675,0.9275 -7.70542,0.9275 -4.78022,0 -8.77563,-1.78366 -3.92406,-1.71232 -6.84926,-6.1358 -2.85386,-4.49483 -4.49483,-12.05756 -1.56963,-7.56273 -1.56963,-19.12087 0,-6.49253 0.21404,-13.3418 0.21404,-6.92061 0.57077,-13.98392 0.35674,-7.0633 0.92751,-14.12661 0.57077,-7.06331 1.28424,-13.91257 -5.63638,0.0713 -10.48794,0.49942 -4.78022,0.35674 -8.20485,1.21289 -0.21404,-0.42807 -0.21404,-0.99885 0,-1.49827 1.42693,-2.78251 1.49828,-1.35558 4.06675,-2.42578 2.63982,-1.0702 6.27849,-1.78367 3.63868,-0.71346 7.99081,-0.99885 1.64097,-14.91142 3.49598,-28.18187 1.85501,-13.27046 3.71002,-23.68705 0.35674,-1.85501 1.28424,-3.0679 0.99885,-1.21289 2.28309,-1.92635 1.28424,-0.71347 2.78251,-0.99886 1.49828,-0.28538 2.92521,-0.28538 2.35444,0 4.20945,0.49942 1.92635,0.49943 3.56732,1.42693 z"
             style="font-style:normal;font-variant:normal;font-weight:normal;font-stretch:normal;font-size:292.235px;font-family:Gabriola;-inkscape-font-specification:'Gabriola, Normal';font-variant-ligatures:normal;font-variant-caps:normal;font-variant-numeric:normal;font-feature-settings:normal;text-align:start;letter-spacing:0px;writing-mode:lr-tb;text-anchor:start;fill:#62a433;fill-opacity:1;stroke-width:7.17978"
             id="path826" />
          <path
             d="m 691.42286,323.65626 q 0.49943,5.42233 2.85386,9.34639 2.42579,3.92406 5.92176,6.42119 3.49598,2.49713 7.70543,3.71002 4.28079,1.21289 8.49024,1.21289 3.92405,0 7.56273,-1.0702 3.63867,-1.0702 6.42118,-3.0679 2.78252,-1.9977 4.42349,-4.92291 1.71231,-2.92521 1.71231,-6.56388 0,-3.78136 -1.78366,-6.63522 -1.78366,-2.85387 -4.78022,-5.2083 -2.99655,-2.35444 -6.99196,-4.35214 -3.92405,-1.9977 -8.20484,-4.06675 -3.78137,-1.78366 -7.63408,-3.56733 -3.78137,-1.85501 -7.34869,-3.9954 -3.56733,-2.1404 -6.70658,-4.63752 -3.0679,-2.49713 -5.42233,-5.49369 -2.28309,-3.0679 -3.63868,-6.77792 -1.28423,-3.78136 -1.28423,-8.34754 0,-4.92291 1.71231,-9.06101 1.71232,-4.1381 4.63753,-7.42004 2.99655,-3.35328 6.84926,-5.85041 3.92406,-2.49713 8.34755,-4.1381 4.42348,-1.71232 9.061,-2.49713 4.70888,-0.85616 9.13236,-0.85616 5.70772,0 10.77332,1.28424 5.13695,1.21289 8.91832,3.63867 3.85271,2.35444 6.06445,5.77907 2.28309,3.42464 2.28309,7.70543 0,1.64097 -0.57077,3.56732 -0.57077,1.92636 -1.92636,3.63868 -1.35558,1.64097 -3.56732,2.78251 -2.21174,1.14154 -5.42234,1.21289 -2.99655,0 -6.27849,-0.9275 l -0.21404,-0.71347 q 0.99885,-2.28309 1.42693,-4.20944 0.42808,-1.92636 0.42808,-3.56733 -0.0714,-3.28194 -1.71232,-5.49368 -1.56962,-2.28309 -3.9954,-3.71002 -2.42579,-1.42693 -5.42234,-2.06905 -2.92521,-0.64212 -5.77907,-0.64212 -5.0656,0 -9.06101,1.35558 -3.9954,1.35559 -6.77791,3.63868 -2.71117,2.21174 -4.20945,5.0656 -1.42693,2.85386 -1.42693,5.92176 0,3.92406 2.06905,7.06331 2.06905,3.0679 5.49368,5.70772 3.42463,2.56847 7.84812,4.85156 4.49483,2.28309 9.34639,4.56618 5.42234,2.56847 10.77333,5.35099 5.35099,2.71117 9.56043,6.20715 4.20945,3.49598 6.77792,8.06215 2.63982,4.49483 2.63982,10.63063 0,7.3487 -3.28194,13.05642 -3.21059,5.70772 -8.63293,9.63178 -5.42233,3.92406 -12.48564,5.92176 -6.99196,2.06905 -14.55469,2.06905 -3.78136,0 -7.84812,-0.57077 -3.9954,-0.57078 -7.77677,-1.71232 -3.78136,-1.14154 -7.206,-2.78251 -3.35328,-1.71232 -5.92176,-3.85272 -2.49712,-2.21174 -3.9954,-4.85156 -1.42693,-2.71117 -1.42693,-5.92176 0,-2.78252 1.14154,-4.70887 1.21289,-1.92636 3.13925,-3.13925 1.92636,-1.21289 4.28079,-1.78366 2.42578,-0.64212 4.92291,-0.71347 z"
             style="font-style:normal;font-variant:normal;font-weight:normal;font-stretch:normal;font-size:292.235px;font-family:Gabriola;-inkscape-font-specification:'Gabriola, Normal';font-variant-ligatures:normal;font-variant-caps:normal;font-variant-numeric:normal;font-feature-settings:normal;text-align:start;letter-spacing:0px;writing-mode:lr-tb;text-anchor:start;fill:#62a433;fill-opacity:1;stroke-width:7.17978"
             id="path828" />
          <path
             d="m 794.80396,260.08651 q 0,4.85156 -0.35673,10.41659 -0.28538,5.49368 -0.78481,11.2014 -0.42808,5.70773 -0.99885,11.41545 -0.49943,5.63637 -0.99885,10.70198 -0.42808,5.0656 -0.78481,9.34639 -0.28539,4.20945 -0.28539,7.06331 0,8.49023 3.21059,12.41429 3.2106,3.92406 8.56159,3.92406 6.06445,0 12.41429,-6.49253 6.34984,-6.56388 12.12891,-19.12087 5.77907,-12.55699 9.84582,-28.18188 4.06675,-15.69623 5.2083,-33.81825 l 15.12546,-1.85501 1.14154,0.0713 q -0.64212,6.77792 -1.21289,14.412 -0.49942,7.56273 -0.9275,15.1968 -0.42808,7.56274 -0.64212,14.84008 -0.21404,7.27735 -0.21404,13.41315 0,11.62948 1.35558,19.04952 1.35559,7.34869 3.49598,11.62948 2.1404,4.20945 4.85156,5.85042 2.78252,1.56962 5.56503,1.56962 1.64097,0 3.2106,-0.42808 1.64097,-0.42808 3.0679,-0.99885 1.42693,-0.64212 2.56847,-1.35558 1.21289,-0.71347 2.06905,-1.28424 l 2.35444,3.28194 q -2.06905,2.14039 -4.70887,4.06675 -2.63983,1.85501 -5.56503,3.21059 -2.92521,1.42693 -6.1358,2.21175 -3.2106,0.78481 -6.49254,0.78481 -4.1381,0 -8.06215,-1.64097 -3.85272,-1.64097 -6.84927,-5.49369 -2.99655,-3.85271 -4.85156,-10.27389 -1.78367,-6.42119 -1.78367,-15.98163 0,-3.0679 0.1427,-6.20714 0.14269,-3.13925 0.42808,-6.63523 0.28538,-3.49598 0.71346,-7.49138 0.49943,-4.06676 1.14155,-8.91832 l -0.78482,-0.14269 q -4.85156,17.90798 -10.55928,30.03688 -5.63638,12.12891 -11.62948,19.54895 -5.92177,7.42004 -11.91487,10.55929 -5.99311,3.21059 -11.41545,3.21059 -4.06675,0 -7.84811,-1.42693 -3.71002,-1.35559 -6.63523,-4.49483 -2.92521,-3.2106 -4.70887,-8.41889 -1.71232,-5.2083 -1.71232,-12.84238 0,-4.99425 0.57077,-11.55813 0.57078,-6.63523 1.2129,-14.05527 0.71346,-7.49138 1.28423,-15.41085 0.57077,-7.99081 0.57077,-15.76758 0,-3.13924 -0.21403,-5.42233 -0.21404,-2.28309 -0.92751,-3.78137 -0.71346,-1.49827 -2.1404,-2.21174 -1.35558,-0.71347 -3.78136,-0.71347 -2.42578,0 -6.34984,0.71347 -3.85271,0.71347 -8.1335,1.92636 l -1.0702,-5.13695 q 5.85041,-2.06905 10.84467,-3.56733 5.0656,-1.56962 8.98966,-2.56847 3.99541,-0.99886 6.70657,-1.49828 2.78252,-0.49943 4.06676,-0.49943 2.56847,0 4.20944,0.92751 1.64097,0.9275 2.63982,2.71117 0.99885,1.78366 1.35559,4.28079 0.42807,2.49713 0.42807,5.70772 z"
             style="font-style:normal;font-variant:normal;font-weight:normal;font-stretch:normal;font-size:292.235px;font-family:Gabriola;-inkscape-font-specification:'Gabriola, Normal';font-variant-ligatures:normal;font-variant-caps:normal;font-variant-numeric:normal;font-feature-settings:normal;text-align:start;letter-spacing:0px;writing-mode:lr-tb;text-anchor:start;fill:#62a433;fill-opacity:1;stroke-width:7.17978"
             id="path830" />
          <path
             d="m 926.79502,303.46519 q 8.56158,-2.85386 15.62489,-6.49253 7.0633,-3.63867 12.12891,-7.77677 5.13695,-4.1381 7.91946,-8.70428 2.78251,-4.56617 2.78251,-9.34639 0,-1.9977 -0.78481,-3.63867 -0.71346,-1.71232 -1.9977,-2.85386 -1.21289,-1.21289 -2.92521,-1.85501 -1.64097,-0.64212 -3.56732,-0.64212 -4.49483,0 -9.3464,2.78251 -4.78021,2.78252 -9.56043,8.06216 -4.70887,5.27964 -9.2037,12.91372 -4.49483,7.63408 -8.34755,17.3372 -3.85271,9.70313 -6.92061,21.33261 -3.0679,11.62949 -4.92291,24.82859 l -14.412,1.85501 -1.14154,-0.0713 q 0.42808,-8.41889 0.9275,-18.5501 0.57078,-10.20255 1.14155,-21.61799 0.64212,-11.41545 1.28424,-23.7584 0.71346,-12.41429 1.35558,-25.25667 0.71347,-12.84237 1.42693,-25.89878 0.71347,-13.05642 1.35558,-25.7561 0.71347,-12.77102 1.35559,-24.97128 0.64212,-12.20025 1.21289,-23.33031 0.0713,-1.71232 0.99885,-2.92521 0.92751,-1.28424 2.35444,-1.9977 1.49827,-0.78481 3.35328,-1.14155 1.85501,-0.35673 3.85271,-0.35673 4.2808,0 8.98967,2.28309 -1.64097,14.62604 -2.92521,26.82629 -1.28424,12.20026 -2.35444,22.6882 -0.99885,10.41659 -1.85501,19.54894 -0.85615,9.06101 -1.56962,17.40855 -0.64212,8.2762 -1.28424,16.26701 -0.57077,7.91946 -1.14154,16.12431 -0.57077,8.20485 -1.21289,16.98048 -0.57077,8.77562 -1.28424,18.83548 l 0.42808,0.0713 q 2.56847,-8.49024 6.06445,-16.76644 3.49598,-8.27619 7.70543,-15.69623 4.20944,-7.49139 9.06101,-13.76988 4.85156,-6.34984 10.1312,-10.91602 5.27965,-4.56618 10.91602,-7.13465 5.63638,-2.63982 11.41544,-2.63982 3.63868,0 6.70658,1.21289 3.0679,1.14154 5.27964,3.35329 2.28309,2.14039 3.49598,5.20829 1.28424,3.0679 1.28424,6.84927 0,5.92176 -2.56848,11.48679 -2.56847,5.56503 -7.27734,10.70198 -4.70887,5.13695 -11.3441,9.77447 -6.56388,4.56618 -14.62604,8.49024 4.78022,8.77562 8.56159,15.05411 3.85271,6.20715 6.92061,10.48794 3.13924,4.20944 5.63637,6.70657 2.49713,2.49713 4.56618,3.78137 2.1404,1.28424 3.99541,1.71231 1.85501,0.35674 3.71001,0.35674 3.71002,0 7.70543,-1.14155 3.9954,-1.14154 8.06216,-2.99655 l 1.35558,3.71002 q -2.56847,2.06905 -6.49253,4.20944 -3.92406,2.1404 -8.34755,3.92406 -4.35213,1.78366 -8.70427,2.85386 -4.28079,1.14155 -7.56273,1.14155 -3.85272,0 -7.70543,-2.85386 -3.78136,-2.78252 -8.20485,-8.70428 -4.35214,-5.92176 -9.63178,-14.98277 -5.27964,-9.13235 -12.12891,-21.76069 z"
             style="font-style:normal;font-variant:normal;font-weight:normal;font-stretch:normal;font-size:292.235px;font-family:Gabriola;-inkscape-font-specification:'Gabriola, Normal';font-variant-ligatures:normal;font-variant-caps:normal;font-variant-numeric:normal;font-feature-settings:normal;text-align:start;letter-spacing:0px;writing-mode:lr-tb;text-anchor:start;fill:#62a433;fill-opacity:1;stroke-width:7.17978"
             id="path832" />
          <path
             d="m 1022.4707,216.77917 q -2.4971,0 -4.4235,-0.99885 -1.9263,-1.0702 -3.2819,-2.71117 -1.3556,-1.71232 -2.0691,-3.85271 -0.7134,-2.21174 -0.7134,-4.49483 0,-3.2106 1.0702,-5.63638 1.0701,-2.49713 2.7825,-4.1381 1.7123,-1.71231 3.7813,-2.49712 2.0691,-0.85616 4.0668,-0.85616 2.4258,0 4.3521,0.9275 1.9264,0.85616 3.282,2.42578 1.4269,1.56963 2.1404,3.63868 0.7848,1.9977 0.7848,4.35214 0,2.49712 -0.8562,4.99425 -0.8561,2.42578 -2.4258,4.42349 -1.4982,1.9977 -3.71,3.21059 -2.1404,1.21289 -4.7802,1.21289 z m 6.2071,32.24863 q -1.2129,8.1335 -2.069,16.33835 -0.8562,8.1335 -1.4269,15.76758 -0.4995,7.63408 -0.7849,14.48335 -0.214,6.77792 -0.214,12.2716 0,7.42004 0.214,12.77103 0.2141,5.27964 0.7135,8.91831 0.4994,3.63867 1.2129,5.85042 0.7848,2.14039 1.855,3.35328 1.1416,1.14155 2.5685,1.49828 1.4983,0.35673 3.3533,0.35673 3.4246,0 7.3487,-0.99885 3.9954,-1.0702 8.0621,-2.92521 l 1.3556,3.71002 q -2.5685,2.06905 -6.4925,4.20945 -3.8527,2.14039 -8.1335,3.92406 -4.2808,1.78366 -8.4189,2.85386 -4.0668,1.14154 -7.0633,1.14154 -1.9977,0 -3.6387,-0.35673 -1.641,-0.28539 -2.9966,-1.56963 -1.2842,-1.28423 -2.3544,-3.78136 -0.9988,-2.49713 -1.7123,-6.77792 -0.6421,-4.28079 -0.9989,-10.70198 -0.3567,-6.42119 -0.3567,-15.55354 0,-5.35099 0.071,-12.05756 0.1427,-6.77792 0.3567,-14.48335 0.214,-7.77677 0.5708,-16.33835 0.3567,-8.63293 0.9275,-17.76528 0.1427,-1.99771 1.0702,-3.2106 0.9275,-1.28423 2.2831,-1.92635 1.3555,-0.71347 2.8538,-0.92751 1.5696,-0.28538 2.8539,-0.28538 4.7802,0 8.9896,2.21174 z"
             style="font-style:normal;font-variant:normal;font-weight:normal;font-stretch:normal;font-size:292.235px;font-family:Gabriola;-inkscape-font-specification:'Gabriola, Normal';font-variant-ligatures:normal;font-variant-caps:normal;font-variant-numeric:normal;font-feature-settings:normal;text-align:start;letter-spacing:0px;writing-mode:lr-tb;text-anchor:start;fill:#62a433;fill-opacity:1;stroke-width:7.17978"
             id="path834" />
        </g>
        <path
           d="m 622.27202,1087.9033 c -7.70552,0.105 -15.68445,2.2368 -22.83429,5.9569 -20.3175,10.5715 -41.14106,30.7084 -62.22607,64.3108 -21.13106,33.6756 -33.35717,73.0833 -62.99908,99.5913 -3.1801,2.8438 -1.24321,8.0938 3.02304,8.094 54.5409,0 99.92689,-21.8626 132.03761,-48.9735 23.97232,-20.2398 42.88793,-51.6818 46.81276,-73.9361 3.92482,-22.2542 -0.54583,-38.3171 -10.27129,-46.9665 -6.42742,-5.7163 -14.80965,-8.1968 -23.54268,-8.0769 z m 3.53494,4.0024 c 6.2697,0.1147 12.23693,2.0272 17.27037,6.6333 7.60794,6.9617 12.79682,22.444 8.41585,42.6235 -4.38098,20.1795 -18.26944,45.0406 -48.1694,70.2849 -26.20135,22.1217 -61.73664,39.4943 -104.26085,44.0107 31.01682,-16.7118 52.62584,-42.9335 70.6828,-69.4161 21.58187,-31.6525 41.76994,-61.979 59.99801,-76.7961 4.53965,-3.6902 3.28981,-5.2106 -1.65638,-1.731 -22.05886,15.5178 -39.90496,45.8925 -62.76898,75.8316 -19.75923,25.8733 -41.84944,51.0185 -72.70047,67.0644 20.08514,-28.2739 35.16495,-60.5926 51.01082,-88.6689 18.86261,-33.4217 39.60054,-54.0593 57.83637,-63.2628 7.71926,-3.8959 16.28069,-6.7209 24.34186,-6.5735 z"
           style="fill:#62a433;fill-opacity:1;stroke-width:0.999999"
           id="path2"
           inkscape:connector-curvature="0" />
        <g
           aria-label="Thyme"
           style="font-style:normal;font-variant:normal;font-weight:normal;font-stretch:normal;font-size:292.235px;line-height:1.25;font-family:Gabriola;-inkscape-font-specification:'Gabriola, Normal';font-variant-ligatures:normal;font-variant-position:normal;font-variant-caps:normal;font-variant-numeric:normal;font-variant-alternates:normal;font-feature-settings:normal;text-indent:0;text-align:start;text-decoration:none;text-decoration-line:none;text-decoration-style:solid;text-decoration-color:#000000;letter-spacing:0px;word-spacing:0px;text-transform:none;writing-mode:lr-tb;direction:ltr;text-orientation:mixed;dominant-baseline:auto;baseline-shift:baseline;text-anchor:start;white-space:normal;shape-padding:0;vector-effect:none;fill:#62a433;fill-opacity:1;stroke:none;stroke-width:7.17978;stroke-linecap:butt;stroke-linejoin:miter;stroke-miterlimit:4;stroke-dasharray:none;stroke-dashoffset:0;stroke-opacity:1"
           id="text4537"
           transform="translate(-459.55465,908.66607)">
          <path
             d="m 1134.1561,227.48115 -7.0633,-0.21404 q -0.2141,-8.63293 -0.2141,-15.3395 0,-6.92062 0.6422,-11.84353 0.6421,-4.99425 2.6398,-8.20485 2.069,-3.21059 5.9217,-4.70887 3.9241,-1.49827 10.3453,-1.49827 4.0667,0 9.3464,0.21404 5.2796,0.21404 11.13,0.42808 5.8505,0.21404 11.9863,0.42807 6.2071,0.21404 11.9862,0.21404 9.7031,0 17.1231,0 7.4201,-0.0713 13.1991,-0.14269 5.7791,-0.0713 10.1312,-0.21404 4.3522,-0.14269 7.9195,-0.42808 3.6387,-0.28538 6.7066,-0.64212 3.1392,-0.42808 6.3498,-0.99885 1.2129,3.42464 1.2129,5.63638 0,4.70887 -3.9954,7.206 -3.924,2.49712 -11.7008,2.49712 -7.3487,0 -17.3372,-0.85615 -9.9172,-0.92751 -22.4028,-1.78367 -0.2141,10.55929 -0.5708,22.5455 -0.2854,11.98622 -0.6421,24.82859 -0.3568,12.77103 -0.7848,26.18418 -0.3568,13.3418 -0.7848,26.75494 -0.4281,13.3418 -0.8562,26.46956 -0.3567,13.12776 -0.7135,25.39936 l -16.9091,2.1404 -1.2842,-0.14269 q 0.5707,-13.62719 1.0702,-26.11283 0.4994,-12.55699 0.9275,-24.61455 0.4281,-12.05756 0.7848,-24.04378 0.3567,-12.05756 0.5708,-24.75724 0.214,-12.69968 0.3567,-26.39821 0.1427,-13.76988 0.1427,-29.25208 -4.0668,-0.14269 -8.2762,-0.21404 -4.2095,-0.14269 -8.5616,-0.14269 -4.3521,0 -8.1335,0.14269 -3.7814,0.1427 -6.9206,0.99885 -3.1393,0.85616 -5.6364,2.71117 -2.4971,1.78366 -4.2094,5.13695 -1.7124,3.28194 -2.6399,8.41889 -0.8561,5.13695 -0.8561,12.55699 z"
             style="font-style:normal;font-variant:normal;font-weight:normal;font-stretch:normal;font-size:292.235px;line-height:1.25;font-family:Gabriola;-inkscape-font-specification:'Gabriola, Normal';font-variant-ligatures:normal;font-variant-position:normal;font-variant-caps:normal;font-variant-numeric:normal;font-variant-alternates:normal;font-feature-settings:normal;text-indent:0;text-align:start;text-decoration-line:none;text-decoration-style:solid;text-decoration-color:#000000;letter-spacing:0px;word-spacing:0px;text-transform:none;writing-mode:lr-tb;direction:ltr;text-orientation:mixed;dominant-baseline:auto;text-anchor:start;white-space:normal;shape-padding:0;vector-effect:none;fill:#62a433;fill-opacity:1;stroke:none;stroke-width:7.17978;stroke-linecap:butt;stroke-linejoin:miter;stroke-miterlimit:4;stroke-dasharray:none;stroke-dashoffset:0;stroke-opacity:1"
             id="path837" />
          <path
             d="m 1276.3497,311.52735 q 5.4937,-18.05067 11.6295,-30.60766 6.2071,-12.55698 12.557,-20.33376 6.4212,-7.84811 12.771,-11.34409 6.3498,-3.49598 12.1289,-3.49598 3.9954,0 7.7054,1.56962 3.71,1.49828 6.5639,4.70887 2.9252,3.2106 4.6375,8.2762 1.7124,5.0656 1.7124,12.12891 0,2.14039 -0.2854,5.85041 -0.2141,3.63867 -0.5708,8.20485 -0.3567,4.49483 -0.8562,9.48909 -0.428,4.99426 -0.7848,9.84582 -0.3567,4.85156 -0.6421,9.2037 -0.214,4.35214 -0.214,7.49138 0,5.56503 0.428,9.06101 0.4995,3.49598 1.5697,5.56503 1.0702,1.9977 2.8538,2.78252 1.7837,0.71346 4.3522,0.71346 3.71,0 7.7054,-0.99885 3.9954,-1.0702 8.0621,-2.92521 l 1.3556,3.71002 q -2.5684,2.06905 -6.4925,4.20945 -3.9241,2.14039 -8.2762,3.92406 -4.2808,1.78366 -8.5616,2.85386 -4.2808,1.14154 -7.5627,1.14154 -3.8527,0 -6.0645,-2.06905 -2.2117,-2.06905 -3.3533,-5.63637 -1.0702,-3.56733 -1.4269,-8.34755 -0.2854,-4.78021 -0.2854,-10.2739 0,-6.63522 0.4281,-13.69853 0.4994,-7.0633 0.9989,-13.55584 0.5707,-6.49253 0.9988,-11.84352 0.4994,-5.42234 0.4994,-8.70428 0,-7.91946 -3.0679,-11.84352 -3.0679,-3.9954 -8.2762,-3.9954 -4.0667,0 -8.7042,3.49598 -4.5662,3.49598 -9.1324,9.63178 -4.4948,6.06445 -8.7043,14.41199 -4.2094,8.2762 -7.5627,17.97933 -3.3533,9.63178 -5.565,20.19106 -2.2118,10.55929 -2.7825,21.11857 l -15.1968,1.85501 -1.1416,-0.0713 q 0.4281,-8.41889 0.9275,-18.5501 0.5708,-10.20255 1.1416,-21.61799 0.6421,-11.41545 1.2842,-23.7584 0.7135,-12.41429 1.3556,-25.25667 0.7134,-12.84237 1.4269,-25.89878 0.7135,-13.05642 1.3556,-25.7561 0.7135,-12.77102 1.3556,-24.97128 0.6421,-12.20025 1.2129,-23.33031 0.071,-1.71232 0.9988,-2.92521 0.9275,-1.28424 2.3545,-1.9977 1.4982,-0.78481 3.3532,-1.14155 1.855,-0.35673 3.8528,-0.35673 4.2807,0 8.9896,2.28309 -1.641,14.55469 -2.9252,26.75495 -1.2842,12.1289 -2.3544,22.5455 -0.9989,10.34524 -1.855,19.3349 -0.7849,8.98967 -1.4983,17.26586 -0.6421,8.20485 -1.2129,16.05297 -0.5708,7.84812 -1.1416,15.98162 -0.5707,8.06216 -1.2128,16.83778 -0.5708,8.70427 -1.2843,18.76413 z"
             style="font-style:normal;font-variant:normal;font-weight:normal;font-stretch:normal;font-size:292.235px;line-height:1.25;font-family:Gabriola;-inkscape-font-specification:'Gabriola, Normal';font-variant-ligatures:normal;font-variant-position:normal;font-variant-caps:normal;font-variant-numeric:normal;font-variant-alternates:normal;font-feature-settings:normal;text-indent:0;text-align:start;text-decoration-line:none;text-decoration-style:solid;text-decoration-color:#000000;letter-spacing:0px;word-spacing:0px;text-transform:none;writing-mode:lr-tb;direction:ltr;text-orientation:mixed;dominant-baseline:auto;text-anchor:start;white-space:normal;shape-padding:0;vector-effect:none;fill:#62a433;fill-opacity:1;stroke:none;stroke-width:7.17978;stroke-linecap:butt;stroke-linejoin:miter;stroke-miterlimit:4;stroke-dasharray:none;stroke-dashoffset:0;stroke-opacity:1"
             id="path839" />
          <path
             d="m 1401.7055,350.05447 q -1.855,-6.77792 -3.9954,-14.19796 -2.069,-7.42003 -4.2808,-14.91142 -2.1404,-7.49138 -4.3521,-14.76873 -2.1404,-7.27734 -4.2094,-13.84122 -1.9977,-6.56388 -3.8528,-12.12891 -1.7836,-5.63638 -3.2106,-9.70313 -1.4982,-4.20944 -2.9252,-6.84927 -1.3555,-2.71116 -2.8538,-4.20944 -1.4983,-1.49828 -3.1393,-2.06905 -1.6409,-0.57077 -3.6386,-0.57077 -2.2831,0 -4.8516,0.49942 -2.6398,0.49943 -6.2785,1.35559 l -1.0702,-5.13695 q 4.2808,-1.56962 8.3475,-2.85386 4.1381,-1.28424 7.6341,-2.21174 3.496,-0.92751 6.2072,-1.42693 2.7111,-0.49943 4.2808,-0.49943 1.855,0 3.4959,0.64212 1.7124,0.64212 3.282,2.28309 1.641,1.56962 3.1392,4.42348 1.4983,2.78252 2.9966,7.06331 0.9988,2.71116 2.3544,6.99196 1.427,4.20944 3.0679,9.63178 1.641,5.35099 3.496,11.70083 1.855,6.34984 3.71,13.27045 1.9264,6.84927 3.7814,14.05526 1.855,7.206 3.5673,14.26931 3.5673,-9.3464 7.4201,-19.4776 3.924,-10.20255 7.9194,-20.47645 4.0668,-10.2739 8.0622,-20.33376 3.9954,-10.13121 7.7054,-19.33491 0.6421,-1.56962 1.7123,-2.56847 1.1416,-0.99886 2.4971,-1.56963 1.3556,-0.64212 2.7826,-0.85616 1.4982,-0.28538 2.9252,-0.28538 2.3544,0 4.5661,0.71346 2.2118,0.64212 4.2095,1.64097 -3.2106,5.2083 -6.7066,11.62949 -3.4246,6.34984 -7.0633,13.62718 -3.6387,7.206 -7.3487,15.05412 -3.6387,7.84811 -7.2773,16.05296 -3.6387,8.13351 -7.206,16.4097 -3.496,8.20485 -6.7779,16.19566 -3.3533,8.06216 -6.3499,15.91028 -2.9965,7.91946 -5.8504,15.26815 -2.8539,7.42004 -5.6364,14.19796 -2.7111,6.84927 -5.565,12.77103 -2.7112,5.49368 -5.7791,10.20255 -3.0679,4.78022 -6.7779,8.20485 -3.71,3.49598 -8.2048,5.49368 -4.4235,1.99771 -9.8459,1.99771 -3.3533,0 -6.0644,-0.92751 -2.7112,-0.85616 -4.5662,-2.35443 -1.9264,-1.42693 -2.9252,-3.35329 -0.9989,-1.92636 -0.9989,-4.06675 0,-2.35444 1.427,-4.92291 1.3556,-2.49713 3.6386,-3.78137 2.9966,1.85501 6.0645,2.63982 3.0679,0.78482 5.4937,0.78482 5.8504,0 10.3452,-3.2106 4.5662,-3.13924 8.5616,-9.48908 3.9954,-6.34984 7.9908,-15.91028 4.0668,-9.56043 8.9897,-22.40281 l 1.4269,-3.78136 z"
             style="font-style:normal;font-variant:normal;font-weight:normal;font-stretch:normal;font-size:292.235px;line-height:1.25;font-family:Gabriola;-inkscape-font-specification:'Gabriola, Normal';font-variant-ligatures:normal;font-variant-position:normal;font-variant-caps:normal;font-variant-numeric:normal;font-variant-alternates:normal;font-feature-settings:normal;text-indent:0;text-align:start;text-decoration-line:none;text-decoration-style:solid;text-decoration-color:#000000;letter-spacing:0px;word-spacing:0px;text-transform:none;writing-mode:lr-tb;direction:ltr;text-orientation:mixed;dominant-baseline:auto;text-anchor:start;white-space:normal;shape-padding:0;vector-effect:none;fill:#62a433;fill-opacity:1;stroke:none;stroke-width:7.17978;stroke-linecap:butt;stroke-linejoin:miter;stroke-miterlimit:4;stroke-dasharray:none;stroke-dashoffset:0;stroke-opacity:1"
             id="path841" />
          <path
             d="m 1471.0543,351.19602 q 0.4995,-6.77792 0.9276,-14.84008 0.4994,-8.1335 0.8561,-16.83778 0.4281,-8.70427 0.7135,-17.69394 0.3567,-9.061 0.5707,-17.69393 0.2854,-8.63293 0.4281,-16.5524 0.2141,-7.99081 0.2854,-14.62603 0,-2.1404 0.9275,-3.49598 0.9275,-1.35559 2.2831,-2.1404 1.3556,-0.78481 2.9252,-1.0702 1.5696,-0.28538 2.8539,-0.28538 2.7111,0 4.9229,0.64212 2.2117,0.57077 4.2808,1.56962 -0.9989,5.56503 -1.7837,12.84237 -0.7848,7.27735 -1.5696,15.4822 -0.7135,8.20485 -1.4269,16.98047 -0.6422,8.77562 -1.427,17.26586 l 0.4281,0.0713 q 4.9943,-18.12202 10.6306,-30.39362 5.6364,-12.34295 11.4868,-19.90568 5.8504,-7.56273 11.7722,-10.77333 5.9218,-3.28194 11.4868,-3.28194 4.9229,0 8.3475,2.42578 3.4247,2.42579 5.5651,6.34985 2.1404,3.92405 3.1392,8.91831 0.9989,4.92291 0.9989,10.05986 0,4.49483 -0.2854,9.56043 -0.2854,4.99426 -0.7135,9.91717 -0.4281,4.85156 -0.9275,9.27505 -0.4281,4.35214 -0.7848,7.63408 l 0.4281,0.0713 q 4.9942,-18.4074 10.6306,-30.82169 5.7077,-12.48565 11.5581,-20.04838 5.9218,-7.56273 11.8436,-10.77332 5.9217,-3.28194 11.4868,-3.28194 3.5673,0 6.9206,1.49827 3.3533,1.49828 5.9217,4.85157 2.6399,3.28194 4.2095,8.49023 1.5696,5.2083 1.5696,12.55699 0,2.06905 -0.2854,5.70772 -0.214,3.56733 -0.5708,7.99081 -0.3567,4.42349 -0.8561,9.41775 -0.4281,4.92291 -0.7848,9.70312 -0.3568,4.78022 -0.6421,9.13236 -0.2141,4.28079 -0.2141,7.42003 0,5.56503 0.4281,9.06101 0.4994,3.49598 1.5696,5.56503 1.0702,1.9977 2.8539,2.78252 1.7836,0.71346 4.3521,0.71346 3.71,0 7.7054,-0.99885 3.9954,-1.0702 8.0622,-2.92521 l 1.3556,3.71002 q -2.5685,2.06905 -6.4926,4.20945 -3.924,2.14039 -8.2761,3.92406 -4.2808,1.78366 -8.5616,2.85386 -4.2808,1.14154 -7.5628,1.14154 -3.8527,0 -6.0644,-2.06905 -2.2118,-2.06905 -3.3533,-5.63637 -1.0702,-3.56733 -1.4269,-8.34755 -0.2854,-4.78021 -0.2854,-10.2739 0,-6.63522 0.4281,-13.91257 0.4994,-7.27734 1.0702,-13.84122 0.5707,-6.56388 0.9988,-11.84353 0.4994,-5.35098 0.4994,-8.06215 0,-7.77677 -2.7825,-11.62949 -2.7111,-3.92405 -7.42,-3.92405 -3.6387,0 -7.7768,3.49598 -4.0667,3.42463 -8.2048,9.48908 -4.0668,6.06446 -7.9195,14.34065 -3.7814,8.20485 -6.8493,17.83663 -3.0679,9.63178 -5.2083,20.19107 -2.069,10.48794 -2.7111,21.04722 l -14.9115,1.85501 -1.1415,-0.0713 q 0.7848,-14.98277 1.4269,-26.54091 0.7135,-11.55814 1.2129,-20.19106 0.5708,-8.63293 0.8562,-14.62604 0.3567,-5.99311 0.3567,-9.91717 0,-7.99081 -2.7825,-12.05756 -2.7112,-4.06675 -6.992,-4.06675 -3.7813,0 -7.9908,3.42463 -4.1381,3.35329 -8.2048,9.3464 -4.0668,5.9931 -7.8481,14.19795 -3.7101,8.13351 -6.778,17.62259 -2.9965,9.48909 -5.0656,19.97703 -1.9977,10.48794 -2.6398,21.04722 l -14.9114,1.85501 z"
             style="font-style:normal;font-variant:normal;font-weight:normal;font-stretch:normal;font-size:292.235px;line-height:1.25;font-family:Gabriola;-inkscape-font-specification:'Gabriola, Normal';font-variant-ligatures:normal;font-variant-position:normal;font-variant-caps:normal;font-variant-numeric:normal;font-variant-alternates:normal;font-feature-settings:normal;text-indent:0;text-align:start;text-decoration-line:none;text-decoration-style:solid;text-decoration-color:#000000;letter-spacing:0px;word-spacing:0px;text-transform:none;writing-mode:lr-tb;direction:ltr;text-orientation:mixed;dominant-baseline:auto;text-anchor:start;white-space:normal;shape-padding:0;vector-effect:none;fill:#62a433;fill-opacity:1;stroke:none;stroke-width:7.17978;stroke-linecap:butt;stroke-linejoin:miter;stroke-miterlimit:4;stroke-dasharray:none;stroke-dashoffset:0;stroke-opacity:1"
             id="path843" />
          <path
             d="m 1714.56,327.29493 q 0.4281,0.21404 1.0702,0.64212 0.7135,0.35673 1.2843,0.85616 0.5707,0.42808 0.9988,0.99885 0.4281,0.49943 0.4281,0.99885 0,0.28539 -0.2141,0.57077 -3.9954,5.56503 -8.6329,9.70313 -4.5662,4.06675 -9.5604,6.84927 -4.9229,2.71116 -10.0599,3.9954 -5.1369,1.35559 -10.1312,1.35559 -8.5616,0 -15.6962,-3.49598 -7.1347,-3.49598 -12.2716,-9.56044 -5.137,-6.06445 -8.0622,-14.19796 -2.8538,-8.20485 -2.8538,-17.55124 0,-7.63408 1.6409,-15.26816 1.7124,-7.63407 4.8516,-14.55469 3.2106,-6.92061 7.7768,-12.84237 4.5661,-5.99311 10.3452,-10.34525 5.8504,-4.42348 12.771,-6.92061 6.992,-2.49713 14.9828,-2.49713 5.2797,0 10.0599,1.42693 4.7802,1.42693 8.3475,4.1381 3.6387,2.63982 5.7791,6.56388 2.1404,3.92406 2.1404,8.91832 0,7.27734 -4.7802,12.69968 -4.7089,5.42233 -13.0565,9.2037 -8.3475,3.78137 -19.6916,6.1358 -11.2727,2.28309 -24.4005,3.42463 v 1.21289 q 0,9.13236 2.2831,16.69509 2.3544,7.56273 6.4212,12.98507 4.0667,5.35099 9.5604,8.34754 5.4937,2.99655 11.8435,2.99655 6.4212,0 13.1278,-3.13924 6.7779,-3.2106 13.6985,-10.34525 z m -13.4131,-57.29125 q 0,-3.28194 -1.1416,-6.13581 -1.0702,-2.85386 -3.0679,-4.92291 -1.9263,-2.14039 -4.6375,-3.35328 -2.7112,-1.21289 -5.8504,-1.21289 -4.6375,0 -8.4189,1.64097 -3.7814,1.64097 -6.7779,4.49483 -2.9966,2.78251 -5.2797,6.56388 -2.283,3.71002 -3.924,7.91946 -1.5696,4.20945 -2.5685,8.63293 -0.9988,4.42349 -1.4269,8.63293 10.1312,-0.71347 18.122,-2.42578 8.0621,-1.78366 13.5558,-4.49483 5.5651,-2.78252 8.4903,-6.56388 2.9252,-3.85271 2.9252,-8.77562 z"
             style="font-style:normal;font-variant:normal;font-weight:normal;font-stretch:normal;font-size:292.235px;line-height:1.25;font-family:Gabriola;-inkscape-font-specification:'Gabriola, Normal';font-variant-ligatures:normal;font-variant-position:normal;font-variant-caps:normal;font-variant-numeric:normal;font-variant-alternates:normal;font-feature-settings:normal;text-indent:0;text-align:start;text-decoration-line:none;text-decoration-style:solid;text-decoration-color:#000000;letter-spacing:0px;word-spacing:0px;text-transform:none;writing-mode:lr-tb;direction:ltr;text-orientation:mixed;dominant-baseline:auto;text-anchor:start;white-space:normal;shape-padding:0;vector-effect:none;fill:#62a433;fill-opacity:1;stroke:none;stroke-width:7.17978;stroke-linecap:butt;stroke-linejoin:miter;stroke-miterlimit:4;stroke-dasharray:none;stroke-dashoffset:0;stroke-opacity:1"
             id="path845" />
        </g>
        <path
           d="m 471.38406,1258.0976 a 3.4690162,7.5213421 0 1 0 0,15.0403 h 799.49784 a 3.4690162,7.5213421 0 1 0 0,-15.0403 z"
           style="fill:#62a433;fill-opacity:1;stroke-width:0.999998"
           id="path1"
           inkscape:connector-curvature="0" />
      </g>
    </g>
  </g>
</svg>
